<svg version="1.1" id="Layer_1" xmlns="http://www.w3.org/2000/svg" xmlns:xlink="http://www.w3.org/1999/xlink" x="0px" y="0px"
	 width="100%" viewBox="0 0 577 374" enable-background="new 0 0 577 374" xml:space="preserve">
<path fill="#000000" opacity="1.000000" stroke="none" 
	d="
M357.000000,375.000000 
	C238.000000,375.000000 119.500000,375.000000 1.000000,375.000000 
	C1.000000,250.333328 1.000000,125.666664 1.000000,1.000000 
	C193.333328,1.000000 385.666656,1.000000 578.000000,1.000000 
	C578.000000,125.666664 578.000000,250.333328 578.000000,375.000000 
	C504.500000,375.000000 431.000000,375.000000 357.000000,375.000000 
M439.017914,212.984100 
	C439.017914,212.984100 439.086823,212.986542 438.945251,212.444702 
	C438.631714,212.267593 438.318146,212.090485 438.033875,212.002533 
	C438.033875,212.002533 438.122803,211.972610 438.008301,211.315491 
	C437.356506,210.516129 436.704742,209.716766 436.024200,208.979706 
	C436.024200,208.979706 436.092285,208.971176 435.965210,208.427979 
	C435.652161,208.255585 435.339111,208.083206 435.019928,207.981522 
	C435.019928,207.981522 435.090820,207.984604 434.946686,207.443527 
	C434.633057,207.266769 434.319397,207.090027 433.996735,206.998947 
	C433.996735,206.998947 434.082397,207.008163 433.928345,206.468094 
	C433.615631,206.284943 433.302948,206.101807 433.046234,206.017578 
	C433.046234,206.017578 433.145264,205.961807 433.027802,205.255951 
	C432.368927,204.782211 431.710083,204.308487 430.992859,203.930481 
	C430.992859,203.930481 431.088898,203.988358 430.960358,203.439682 
	C430.645203,203.262177 430.330078,203.084656 430.014771,202.985153 
	C430.014771,202.985153 430.092773,202.984146 429.962036,202.436584 
	C429.646973,202.259781 429.331940,202.082977 429.019623,201.979599 
	C429.019623,201.979599 429.092957,201.975311 428.966888,201.432571 
	C428.655823,201.255997 428.344757,201.079437 428.025665,200.975281 
	C428.025665,200.975281 428.084961,200.932922 427.881927,200.288589 
	C426.585449,199.481735 425.288940,198.674881 423.841370,197.296204 
	C422.963501,196.535095 422.085602,195.773972 420.852631,194.450775 
	C420.232483,194.243668 419.612305,194.036545 418.698853,193.211334 
	C408.141785,186.092117 396.599823,181.561127 383.952637,179.849991 
	C380.431213,179.373550 376.959229,178.537964 373.441132,178.028915 
	C370.224396,177.563477 366.841583,176.573578 363.769745,177.129288 
	C357.485840,178.266144 351.272644,180.013382 345.191589,182.002365 
	C335.161957,185.282883 324.291168,187.040680 316.456909,195.986755 
	C315.609985,196.638443 314.763062,197.290131 313.975037,197.976227 
	C313.975037,197.976227 313.978394,197.908112 313.432434,198.036652 
	C313.257111,198.350830 313.081757,198.665024 312.980377,198.980316 
	C312.980377,198.980316 312.979889,198.906387 312.432709,199.036392 
	C312.258270,199.351822 312.083801,199.667252 311.993683,199.924118 
	C311.993683,199.924118 311.934235,199.840424 311.241089,199.972168 
	C309.774750,201.625183 308.308411,203.278198 306.921997,204.988770 
	C306.921997,204.988770 306.978455,204.908096 306.433319,205.037216 
	C306.258301,205.351028 306.083252,205.664841 305.975830,205.979523 
	C305.975830,205.979523 305.949615,205.917221 305.305786,206.143494 
	C300.506683,211.990036 294.196228,216.838516 292.955780,224.994766 
	C292.955780,224.994766 292.971710,224.906830 292.349335,225.274353 
	C290.855011,228.668213 289.556976,232.165543 287.832031,235.437836 
	C280.751556,248.870071 281.645386,263.571930 283.708344,277.416687 
	C285.371307,288.577026 291.330139,299.213654 296.158508,309.726471 
	C297.992126,313.718811 301.992889,316.715820 305.131500,320.692383 
	C305.690308,321.121582 306.249115,321.550812 306.961914,322.689331 
	C311.062683,328.424713 316.056549,333.023682 322.894806,335.091797 
	C322.894806,335.091797 322.752747,335.130585 322.538391,335.839539 
	C323.359863,336.259644 324.181366,336.679718 324.994354,337.010376 
	C324.994354,337.010376 324.905029,337.019470 325.213135,337.656128 
	C326.618622,338.705444 327.875885,340.194519 329.455597,340.727112 
	C335.897583,342.899017 342.438263,344.778290 349.729706,347.003418 
	C355.112671,348.024841 360.524536,350.007263 365.871979,349.846558 
	C374.279999,349.593933 382.644653,347.897827 391.545685,346.826935 
	C391.719818,346.539642 391.893951,346.252350 391.959991,345.982483 
	C391.959991,345.982483 391.975067,346.090912 392.838165,346.019531 
	C401.024689,345.652191 408.162781,342.798035 414.014832,337.053833 
	C414.014832,337.053833 414.047150,337.117462 414.794067,337.040741 
	C415.274170,336.384888 415.754272,335.729034 416.044250,335.010681 
	C416.044250,335.010681 415.983368,335.201385 416.672729,335.622925 
	C417.544312,335.075592 418.415863,334.528229 419.674255,333.936005 
	C419.932800,333.787689 420.038910,333.566345 420.496216,332.944611 
	C420.730194,332.625397 420.964142,332.306183 421.906952,332.003204 
	C426.323425,327.485687 430.808136,323.032501 435.141479,318.436615 
	C442.861572,310.248627 449.433258,301.085907 452.280151,290.193329 
	C456.134308,275.446838 457.713715,260.414368 453.746338,245.225189 
	C451.023621,234.801163 447.777252,224.711319 440.980835,215.478348 
	C440.650757,215.176636 440.320679,214.874908 440.092957,214.407425 
	C440.092957,214.407425 439.948975,214.276215 439.961060,213.647247 
	C439.650421,213.403534 439.339783,213.159821 439.017914,212.984100 
M143.947632,290.351990 
	C143.636139,290.071106 143.324646,289.790192 143.009933,289.226715 
	C142.908783,289.026764 142.749573,288.954163 142.083740,288.165314 
	C142.083740,241.252609 142.083740,194.339890 142.083740,146.856857 
	C176.471329,146.856857 210.260788,146.856857 244.973984,146.980713 
	C257.632355,146.939438 270.290741,146.898148 283.866760,147.018997 
	C287.597229,146.958069 291.327698,146.897141 295.978577,146.978348 
	C304.633972,146.933365 313.289398,146.888367 322.869507,146.976822 
	C326.931549,146.932327 330.993622,146.887833 335.977203,146.979141 
	C351.750031,146.985016 367.522980,146.959747 383.295441,147.037384 
	C385.201843,147.046753 387.105499,147.612076 389.116486,148.797424 
	C389.393555,151.565903 389.670624,154.334366 389.970520,157.874329 
	C391.931519,158.739517 393.816772,159.908234 395.866058,160.419754 
	C407.602753,163.349335 407.579407,163.297409 407.229614,151.408585 
	C407.151917,148.768005 407.493073,146.117813 407.534149,143.470383 
	C407.605560,138.874496 407.577209,134.277161 407.620758,129.680710 
	C407.661285,125.406616 407.750305,121.133003 407.800873,116.858978 
	C407.849731,112.727440 407.974701,108.593475 407.883209,104.464630 
	C407.806580,101.006599 407.335175,97.556900 407.269684,94.099136 
	C407.136047,87.046494 408.178070,79.791687 406.849335,72.988609 
	C405.302704,65.070099 400.939728,58.247326 391.725159,55.303776 
	C389.814331,54.909431 387.903534,54.515087 385.067108,53.969177 
	C379.903168,53.960175 374.735931,53.834110 369.576416,53.980499 
	C365.692200,54.090698 361.817902,54.550217 357.230255,54.922947 
	C355.776764,56.367176 354.323242,57.811409 352.472839,59.713646 
	C349.906952,65.170036 351.932465,69.172157 358.187408,70.735710 
	C367.474762,70.861694 376.762146,70.987679 386.014191,70.998428 
	C386.014191,70.998428 385.898804,71.033302 386.066956,71.597855 
	C386.687195,72.047089 387.307404,72.496330 388.441681,73.454262 
	C388.748657,82.623192 389.205505,91.790321 389.315125,100.961609 
	C389.402557,108.276131 388.970612,115.595764 388.975494,122.912994 
	C388.977020,125.193314 389.651703,127.473183 389.100830,129.970383 
	C308.487488,129.984467 227.874161,130.010178 147.260925,129.933578 
	C145.564468,129.931961 143.869110,128.749420 142.053680,127.301605 
	C142.036865,111.542717 141.814270,95.778976 142.185211,80.029221 
	C142.255341,77.052490 144.684860,74.131332 146.946045,71.014519 
	C155.596344,70.987289 164.246658,70.960068 173.664902,71.032028 
	C176.131699,68.795792 179.464264,66.987274 180.836273,64.210167 
	C182.392914,61.059319 181.090439,57.539829 176.765366,55.236355 
	C175.209305,54.805740 173.657761,54.022533 172.096451,54.002628 
	C163.024628,53.886951 153.931015,53.615211 144.888031,54.140720 
	C141.832855,54.318268 138.903946,56.669018 136.031281,58.055264 
	C136.031281,58.055264 136.063385,57.942242 135.465836,58.138290 
	C134.934341,58.427845 134.402863,58.717400 133.440674,59.072338 
	C133.154083,59.225895 133.012894,59.465225 132.414474,60.008133 
	C131.917557,60.328533 131.420624,60.648933 130.986633,60.987270 
	C130.986633,60.987270 130.967453,60.924725 130.383774,61.194519 
	C130.197449,61.802799 130.011124,62.411076 129.236313,63.364712 
	C127.604317,66.764839 124.692123,70.117767 124.564705,73.573372 
	C124.047340,87.604294 124.345367,101.666946 124.416031,115.717522 
	C124.537086,139.786835 124.786896,163.855682 124.847778,187.925064 
	C124.927322,219.372528 124.903816,250.820343 124.855034,282.267914 
	C124.846001,288.086639 125.008652,293.495422 128.397675,298.884094 
	C132.314041,305.111328 136.625275,308.157593 144.383316,307.779663 
	C144.872742,307.857819 145.362183,308.004364 145.851624,308.004395 
	C186.924484,308.008087 227.997375,308.007355 269.070160,307.951660 
	C270.049957,307.950317 271.028931,307.325226 272.103271,306.205536 
	C270.385742,301.780579 268.668213,297.355621 266.586334,292.139923 
	C226.410660,292.145721 186.234985,292.151520 145.549835,291.986908 
	C145.372482,291.962219 145.195114,291.937500 145.015915,291.981720 
	C145.015915,291.981720 145.084473,291.974640 144.989365,291.423920 
	C144.676559,291.254730 144.363770,291.085510 144.019806,290.978516 
	C144.019806,290.978516 144.088074,290.965057 143.947632,290.351990 
M198.305679,28.927635 
	C197.755615,29.275867 197.205566,29.624100 196.160065,30.207561 
	C195.433441,31.014986 194.706802,31.822411 193.368790,33.197746 
	C192.754715,39.467590 191.844849,45.726032 191.602493,52.010212 
	C191.308746,59.627281 191.437866,67.270195 191.659119,74.893936 
	C191.788223,79.342438 192.454987,83.775330 192.844482,88.789703 
	C192.875961,89.171043 192.907440,89.552391 192.898529,90.683983 
	C193.599365,91.159195 194.300217,91.634407 195.250412,92.725777 
	C200.597580,98.621468 210.501709,99.162437 216.841583,93.930962 
	C220.418411,92.633339 221.014267,89.661385 221.019272,86.400856 
	C221.043518,70.641708 221.111603,54.881973 220.970886,39.124172 
	C220.955383,37.389339 219.704468,35.665535 219.008377,33.996742 
	C219.008377,33.996742 219.070862,33.990345 219.050919,33.311134 
	C218.388962,32.519855 217.727005,31.728573 217.001221,30.999878 
	C217.001221,30.999878 217.061371,30.934566 216.846237,30.221939 
	C214.298172,29.540285 211.750122,28.858631 208.344360,28.056427 
	C206.615799,28.004280 204.887253,27.952135 202.738693,27.461475 
	C201.471802,27.961115 200.204895,28.460756 198.993896,28.990526 
	C198.993896,28.990526 198.999802,28.927301 198.305679,28.927635 
M314.010162,174.006607 
	C314.010162,174.006607 314.033081,174.065872 314.697083,173.635529 
	C314.136719,171.066086 313.576355,168.496658 313.006775,165.990082 
	C313.006775,165.990082 313.067810,165.972397 312.647583,165.199692 
	C299.864777,165.199692 287.081970,165.199692 274.110474,165.199692 
	C274.110474,166.938812 274.110474,168.403732 273.791077,170.512207 
	C274.172546,173.826660 274.554016,177.141129 275.048920,181.400970 
	C283.783600,181.594086 292.517761,181.833252 301.253510,181.931870 
	C302.600891,181.947098 303.955505,181.316818 305.929749,180.815338 
	C308.310028,178.854050 310.690308,176.892761 313.563049,174.842438 
	C313.733246,174.565170 313.903412,174.287888 314.010162,174.006607 
M198.890915,265.020020 
	C202.617462,260.617798 201.180923,255.815491 199.746918,250.227127 
	C198.933029,249.760681 198.121979,248.893677 197.304825,248.887878 
	C185.045349,248.801102 172.785080,248.827805 159.618240,248.827805 
	C160.056091,254.106003 160.457642,258.946747 160.368607,264.228302 
	C161.607315,264.779114 162.846024,265.329926 165.002518,266.017334 
	C174.562241,266.021027 184.122345,266.068054 193.681274,265.982910 
	C195.156677,265.969788 196.626663,265.350189 198.037903,265.043335 
	C198.037903,265.043335 198.092789,265.085541 198.890915,265.020020 
M161.046646,180.975052 
	C161.046646,180.975052 160.869537,180.980606 161.258041,181.789337 
	C173.652420,181.865555 186.046783,181.947739 198.441269,181.970383 
	C198.662994,181.970795 198.886017,181.258194 199.297272,180.148331 
	C199.527573,176.058914 200.007431,171.957657 199.814224,167.888351 
	C199.765396,166.859848 197.583221,165.111328 196.355087,165.088181 
	C185.039108,164.875076 173.717270,164.952164 162.397659,165.025711 
	C161.881210,165.029068 161.369766,165.804611 160.632294,166.542633 
	C160.390167,166.652420 160.179047,166.805084 159.115494,166.992432 
	C158.792999,171.212189 158.374542,175.429825 158.280685,179.654663 
	C158.270035,180.132965 160.087250,180.651886 161.046646,180.975052 
M197.987381,223.003998 
	C197.987381,223.003998 198.015976,223.077606 198.804031,222.945129 
	C203.282455,217.757904 200.602325,212.393341 199.729843,207.084900 
	C189.073822,207.084900 178.949722,207.032974 168.826859,207.121063 
	C166.267899,207.143341 163.712830,207.612518 160.939880,208.692444 
	C160.413376,212.395020 159.443344,216.113922 159.578751,219.792130 
	C159.632858,221.262482 162.095383,223.840546 163.511047,223.874863 
	C174.711914,224.146454 185.924713,223.925690 197.580688,223.745255 
	C197.831329,223.544922 197.991348,223.288116 197.987381,223.003998 
M233.335632,57.234116 
	C233.264114,58.103325 233.192596,58.972530 232.752243,60.504967 
	C230.823578,65.847771 234.348938,68.454681 238.948532,71.001617 
	C255.549683,70.994743 272.150970,71.013618 288.751801,70.937950 
	C290.277069,70.931000 291.799591,70.320389 293.965088,69.785652 
	C300.659088,65.136650 299.819885,61.511299 295.067871,56.600716 
	C294.705536,56.372780 294.343201,56.144844 294.002563,55.994167 
	C294.002563,55.994167 294.079742,55.972126 293.681793,55.253777 
	C291.132202,54.816803 288.585571,54.022629 286.032562,54.001778 
	C271.268005,53.881191 256.499176,53.798157 241.738922,54.078228 
	C239.117310,54.127968 236.529205,55.944340 234.000610,56.997967 
	C234.000610,56.997967 233.927917,56.940216 233.335632,57.234116 
M257.775452,219.795227 
	C258.113098,215.981506 258.593079,212.170486 258.665161,208.351761 
	C258.679138,207.611084 257.091705,206.181595 256.260834,206.194794 
	C252.124741,206.260452 247.994629,206.702072 242.950424,206.877487 
	C237.805374,206.855698 232.660339,206.820419 227.515274,206.814819 
	C215.510941,206.801758 215.022446,207.378265 215.780350,219.334152 
	C215.987885,222.608032 217.476761,224.126373 220.741730,224.116318 
	C231.123672,224.084305 241.512360,224.289124 251.881363,223.920776 
	C253.628738,223.858673 255.291214,221.406921 257.775452,219.795227 
M337.614258,90.635185 
	C338.393890,88.052986 339.780334,85.486671 339.848450,82.885834 
	C340.148071,71.444511 340.259888,59.989334 340.029724,48.547432 
	C339.936737,43.926281 338.794556,39.326237 338.055756,34.028912 
	C331.469177,25.022285 317.280884,24.841656 311.289093,34.149403 
	C310.856049,35.191338 310.050446,36.231571 310.045685,37.275463 
	C309.970581,53.764675 309.860748,70.256599 310.129608,86.741859 
	C310.177887,89.701782 310.379028,93.676262 315.677460,94.402367 
	C321.246979,98.001068 329.034149,98.185318 333.657684,94.605324 
	C334.129761,94.068932 334.601837,93.532539 335.626831,92.841217 
	C336.083771,92.253822 336.540710,91.666420 337.614258,90.635185 
M241.486481,266.182251 
	C245.146988,266.188385 248.925476,266.744781 252.423828,265.994629 
	C254.528763,265.543335 257.039337,263.394012 257.839203,261.395874 
	C258.746185,259.130280 258.226288,256.136200 257.813019,253.540634 
	C257.336029,250.544662 255.796936,248.699493 252.124664,248.776505 
	C241.469070,249.000046 230.804321,248.769089 220.146637,248.936630 
	C218.883072,248.956497 216.647903,250.244659 216.563217,251.111115 
	C216.221359,254.608261 216.638306,258.171539 216.599365,261.708496 
	C216.557068,265.549164 218.617752,266.383606 222.024384,266.273041 
	C228.174545,266.073456 234.335220,266.197815 241.486481,266.182251 
M233.333008,181.777695 
	C238.658600,181.866394 243.983902,181.998169 249.309845,182.033478 
	C256.889648,182.083755 258.670685,180.102310 258.137939,172.370941 
	C257.651917,165.317642 257.101318,164.793274 249.984009,164.783447 
	C241.487320,164.771713 232.990311,164.738327 224.494003,164.797104 
	C216.710236,164.850967 214.264435,168.176834 215.597885,176.086227 
	C216.093979,179.028885 216.170517,181.982910 220.057510,181.994263 
	C224.202774,182.006378 228.348984,181.696289 233.333008,181.777695 
z"/>
<path fill="#6DBE68" opacity="1.000000" stroke="none" 
	d="
M317.159363,196.124496 
	C324.291168,187.040680 335.161957,185.282883 345.191589,182.002365 
	C351.272644,180.013382 357.485840,178.266144 363.769745,177.129288 
	C366.841583,176.573578 370.224396,177.563477 373.441132,178.028915 
	C376.959229,178.537964 380.431213,179.373550 383.952637,179.849991 
	C396.599823,181.561127 408.141785,186.092117 419.065735,193.761078 
	C420.024323,194.544846 420.616028,194.778854 421.207703,195.012848 
	C422.085602,195.773972 422.963501,196.535095 424.019592,197.927673 
	C425.493530,199.350418 426.789246,200.141663 428.084961,200.932922 
	C428.084961,200.932922 428.025665,200.975281 428.072296,201.222321 
	C428.443604,201.638016 428.768280,201.806671 429.092957,201.975311 
	C429.092957,201.975311 429.019623,201.979599 429.093933,202.209534 
	C429.476410,202.621048 429.784576,202.802597 430.092773,202.984146 
	C430.092773,202.984146 430.014771,202.985153 430.093262,203.210846 
	C430.477478,203.620468 430.783173,203.804413 431.088898,203.988342 
	C431.088898,203.988358 430.992859,203.930481 431.034668,204.226410 
	C431.766083,205.002151 432.455688,205.481979 433.145264,205.961807 
	C433.145264,205.961807 433.046234,206.017578 433.145752,206.199677 
	C433.524292,206.590561 433.803345,206.799362 434.082397,207.008163 
	C434.082397,207.008163 433.996735,206.998947 434.087463,207.217377 
	C434.482391,207.618729 434.786591,207.801666 435.090820,207.984604 
	C435.090820,207.984604 435.019928,207.981522 435.066162,208.231339 
	C435.439056,208.644501 435.765656,208.807846 436.092285,208.971176 
	C436.092285,208.971176 436.024200,208.979706 435.983643,209.302948 
	C436.669647,210.408310 437.396210,211.190460 438.122803,211.972610 
	C438.122803,211.972610 438.033875,212.002533 438.110107,212.216614 
	C438.486511,212.615982 438.786682,212.801254 439.086823,212.986542 
	C439.086823,212.986542 439.017914,212.984100 439.049011,213.246552 
	C439.369720,213.764755 439.659332,214.020477 439.948975,214.276215 
	C439.948975,214.276215 440.092957,214.407425 440.118958,214.805420 
	C440.407257,215.519730 440.669586,215.836044 440.931946,216.152374 
	C447.777252,224.711319 451.023621,234.801163 453.746338,245.225189 
	C457.713715,260.414368 456.134308,275.446838 452.280151,290.193329 
	C449.433258,301.085907 442.861572,310.248627 435.141479,318.436615 
	C430.808136,323.032501 426.323425,327.485687 421.336792,332.195007 
	C420.508606,332.681854 420.250610,332.976898 419.992615,333.271912 
	C420.038910,333.566345 419.932800,333.787689 419.108826,333.939697 
	C417.690063,334.362701 416.836700,334.782043 415.983368,335.201385 
	C415.983368,335.201385 416.044250,335.010681 415.819763,335.142639 
	C415.079224,335.888885 414.563202,336.503174 414.047150,337.117462 
	C414.047150,337.117462 414.014832,337.053833 413.673828,336.980469 
	C406.213562,339.968384 399.094330,343.029663 391.975067,346.090912 
	C391.975067,346.090912 391.959991,345.982483 391.851685,346.129730 
	C391.465179,346.402740 391.226593,346.581390 391.027649,346.812927 
	C382.644653,347.897827 374.279999,349.593933 365.871979,349.846558 
	C360.524536,350.007263 355.112671,348.024841 349.167236,346.594452 
	C340.704865,343.130157 332.804932,340.074799 324.905029,337.019470 
	C324.905029,337.019470 324.994354,337.010376 324.891602,336.746338 
	C324.110168,336.031708 323.431458,335.581146 322.752747,335.130585 
	C322.752747,335.130585 322.894806,335.091797 322.773376,334.848511 
	C317.370636,330.396851 312.089264,326.188446 306.807922,321.980042 
	C306.249115,321.550812 305.690308,321.121582 304.998291,320.076904 
	C301.305298,313.660461 297.380035,308.049347 294.250885,302.024750 
	C282.609100,279.610748 281.684875,256.557556 290.750824,233.019852 
	C291.753540,230.416565 292.243805,227.615936 292.971710,224.906830 
	C292.971710,224.906830 292.955780,224.994766 293.262451,224.947159 
	C296.854767,220.269363 300.200073,215.679733 303.392365,210.986038 
	C304.447662,209.434418 305.108429,207.614471 305.949615,205.917221 
	C305.949615,205.917221 305.975830,205.979523 306.217743,205.918976 
	C306.632599,205.541656 306.805511,205.224869 306.978455,204.908081 
	C306.978455,204.908096 306.921997,204.988770 307.242157,204.990112 
	C309.019623,203.274429 310.476929,201.557434 311.934235,199.840424 
	C311.934235,199.840424 311.993683,199.924118 312.223083,199.885834 
	C312.628265,199.533813 312.804077,199.220093 312.979889,198.906387 
	C312.979889,198.906387 312.980377,198.980316 313.217529,198.915131 
	C313.629272,198.536011 313.803833,198.222061 313.978394,197.908112 
	C313.978394,197.908112 313.975037,197.976227 314.288574,198.031586 
	C315.454529,197.432785 316.306946,196.778641 317.159363,196.124496 
M391.245697,263.548553 
	C391.496582,263.322632 391.747467,263.096741 392.162933,262.290375 
	C393.067535,261.525604 393.972137,260.760834 395.551422,259.827972 
	C398.958160,256.270752 402.767029,253.008026 405.651672,249.068527 
	C408.226562,245.552063 406.803711,241.444931 402.857422,238.432465 
	C402.222534,237.887680 401.587646,237.342896 400.606628,236.151825 
	C394.329559,233.528931 389.512512,235.479752 387.945801,241.645126 
	C387.808380,241.902664 387.594879,242.013153 386.565155,241.940979 
	C383.042236,245.693787 379.519348,249.446579 375.743256,253.818375 
	C374.839661,254.966476 374.052582,256.235168 373.011597,257.241089 
	C369.197449,260.926636 365.318359,264.545837 361.427856,268.151276 
	C354.095215,274.946716 352.921448,265.095917 348.743774,263.375763 
	C347.433472,262.836243 346.256409,261.830170 345.199951,260.843262 
	C341.784363,257.652435 336.718170,256.920959 334.261566,259.372192 
	C331.248779,262.378418 331.082153,270.728302 334.050995,273.422729 
	C340.762299,279.513641 347.507538,285.567291 354.253082,291.620361 
	C357.852631,294.850403 360.698151,294.760986 364.107544,291.352325 
	C370.143555,285.317627 376.202301,279.305328 382.197906,273.230713 
	C385.183105,270.206207 388.049408,267.064331 391.245697,263.548553 
z"/>
<path fill="#3C3C3C" opacity="1.000000" stroke="none" 
	d="
M390.018250,129.753265 
	C389.651703,127.473183 388.977020,125.193314 388.975494,122.912994 
	C388.970612,115.595764 389.402557,108.276131 389.315125,100.961609 
	C389.205505,91.790321 388.748657,82.623192 388.275024,72.828125 
	C387.371857,71.812424 386.635345,71.422867 385.898804,71.033302 
	C385.898804,71.033302 386.014191,70.998428 385.855835,70.648483 
	C376.355530,70.194267 367.013550,70.089989 357.671600,69.985703 
	C351.932465,69.172157 349.906952,65.170036 353.014709,59.441700 
	C355.038116,58.105869 356.519653,57.041985 358.469788,55.966084 
	C367.951294,55.887638 376.964233,55.821209 386.337158,55.842918 
	C388.513397,55.928387 390.329681,55.925713 392.145966,55.923042 
	C400.939728,58.247326 405.302704,65.070099 406.849335,72.988609 
	C408.178070,79.791687 407.136047,87.046494 407.269684,94.099136 
	C407.335175,97.556900 407.806580,101.006599 407.883209,104.464630 
	C407.974701,108.593475 407.849731,112.727440 407.800873,116.858978 
	C407.750305,121.133003 407.661285,125.406616 407.620758,129.680710 
	C407.577209,134.277161 407.605560,138.874496 407.534149,143.470383 
	C407.493073,146.117813 407.151917,148.768005 407.229614,151.408585 
	C407.579407,163.297409 407.602753,163.349335 395.866058,160.419754 
	C393.816772,159.908234 391.931519,158.739517 390.169495,157.134720 
	C390.521271,153.763351 390.659149,151.130600 390.830841,148.500076 
	C391.021454,145.579285 389.751953,144.518677 386.467987,145.344757 
	C369.059357,145.330734 352.113800,145.345764 334.704773,145.242798 
	C330.103394,145.205688 325.965546,145.286591 321.370605,145.349731 
	C312.336761,145.356186 303.759979,145.380402 294.721008,145.283981 
	C290.448364,145.231735 286.637909,145.300125 282.370880,145.339752 
	C269.331024,145.335953 256.747711,145.360931 243.698471,145.268646 
	C210.256241,145.103683 177.279816,145.087494 144.303818,144.959167 
	C141.028702,144.946426 139.963379,146.149033 139.967743,149.343887 
	C140.029266,194.313095 139.980591,239.282486 140.110580,284.251404 
	C140.115189,285.839569 141.689545,287.423187 142.532303,289.008942 
	C142.749573,288.954163 142.908783,289.026764 142.939819,289.761047 
	C143.275833,290.518616 143.681946,290.741821 144.088074,290.965057 
	C144.088074,290.965057 144.019806,290.978516 143.962601,291.279114 
	C144.298416,291.711365 144.691452,291.842987 145.084473,291.974640 
	C145.084473,291.974640 145.015915,291.981720 145.026764,292.238708 
	C145.391190,292.610474 145.744736,292.725189 146.558975,292.882629 
	C186.996674,292.927155 226.973679,292.928894 266.950684,292.930664 
	C268.668213,297.355621 270.385742,301.780579 271.716492,306.494934 
	C270.856873,306.780914 270.384094,306.777557 269.803986,306.703766 
	C269.429504,306.560333 269.212311,306.645416 268.577026,306.949554 
	C226.734024,307.006866 185.359116,307.003204 143.984192,306.999542 
	C136.625275,308.157593 132.314041,305.111328 128.397675,298.884094 
	C125.008652,293.495422 124.846001,288.086639 124.855034,282.267914 
	C124.903816,250.820343 124.927322,219.372528 124.847778,187.925064 
	C124.786896,163.855682 124.537086,139.786835 124.416031,115.717522 
	C124.345367,101.666946 124.047340,87.604294 124.564705,73.573372 
	C124.692123,70.117767 127.604317,66.764839 129.871155,63.086910 
	C130.659805,62.180981 130.813629,61.552853 130.967453,60.924725 
	C130.967453,60.924725 130.986633,60.987270 131.293518,61.087406 
	C132.072647,60.721809 132.544876,60.256073 133.017105,59.790337 
	C133.012894,59.465225 133.154083,59.225895 133.957794,58.970119 
	C135.004395,58.559349 135.533890,58.250793 136.063385,57.942242 
	C136.063385,57.942242 136.031281,58.055264 136.359283,57.920567 
	C141.747299,57.147537 146.793945,56.136608 151.870316,55.954739 
	C160.321960,55.651939 168.792633,55.880604 177.255295,55.885475 
	C181.090439,57.539829 182.392914,61.059319 180.836273,64.210167 
	C179.464264,66.987274 176.131699,68.795792 173.087402,70.599762 
	C163.690933,70.131813 154.871964,70.096115 145.685013,70.051056 
	C141.556442,71.120155 140.062317,73.841988 140.056610,77.516029 
	C140.030853,94.069191 140.032227,110.622437 140.075592,127.175522 
	C140.078049,128.115768 140.540878,129.054810 141.067535,130.336914 
	C142.332840,130.787537 143.320038,130.990143 144.307281,130.990372 
	C224.968414,131.008774 305.629547,131.017090 386.290649,130.962799 
	C387.533447,130.961960 388.775726,130.173935 390.018250,129.753265 
z"/>
<path fill="#3B3B3B" opacity="1.000000" stroke="none" 
	d="
M216.108429,93.865067 
	C210.501709,99.162437 200.597580,98.621468 195.043732,92.084930 
	C194.204330,90.940636 193.571625,90.437187 192.938919,89.933731 
	C192.907440,89.552391 192.875961,89.171043 193.072968,88.198845 
	C193.527710,69.281937 193.753952,50.955887 193.980179,32.629837 
	C194.706802,31.822411 195.433441,31.014986 196.772537,30.182053 
	C197.923264,29.746794 198.461533,29.337044 198.999802,28.927298 
	C198.999802,28.927301 198.993896,28.990526 199.341797,29.072313 
	C200.846024,28.736063 202.002350,28.318027 203.158691,27.899990 
	C204.887253,27.952135 206.615799,28.004280 209.028748,28.330948 
	C212.162537,29.381836 214.611954,30.158199 217.061371,30.934566 
	C217.061371,30.934566 217.001221,30.999878 216.918167,31.309219 
	C217.580368,32.409153 218.325607,33.199749 219.070862,33.990345 
	C219.070862,33.990345 219.008377,33.996742 218.956055,34.436211 
	C218.966278,48.970440 218.995911,63.065468 219.107285,77.159843 
	C219.152908,82.931854 219.560837,88.735626 216.108429,93.865067 
z"/>
<path fill="#3C3C3C" opacity="1.000000" stroke="none" 
	d="
M333.161682,94.816063 
	C329.034149,98.185318 321.246979,98.001068 315.380127,93.845749 
	C314.018188,89.907402 312.094604,86.540787 312.034760,83.141373 
	C311.744690,66.664757 311.954895,50.179340 311.987793,33.697041 
	C317.280884,24.841656 331.469177,25.022285 337.728943,34.561913 
	C337.267303,53.756275 337.132477,72.417641 336.997650,91.079018 
	C336.540710,91.666420 336.083771,92.253822 335.076172,93.002502 
	C334.070862,93.714554 333.616272,94.265312 333.161682,94.816063 
z"/>
<path fill="#3D3D3D" opacity="1.000000" stroke="none" 
	d="
M238.012878,70.992073 
	C234.348938,68.454681 230.823578,65.847771 233.198608,59.949242 
	C233.739273,58.575748 233.833588,57.757980 233.927917,56.940216 
	C233.927917,56.940216 234.000610,56.997967 234.356873,57.173210 
	C237.789337,56.857384 240.862900,55.962620 243.942184,55.942478 
	C260.653931,55.833157 277.367065,55.939835 294.079742,55.972126 
	C294.079742,55.972126 294.002563,55.994167 294.114014,56.288651 
	C294.676575,56.728485 295.127625,56.873837 295.578705,57.019188 
	C299.819885,61.511299 300.659088,65.136650 293.171692,69.745354 
	C275.720703,69.794785 259.062897,69.859650 242.405991,70.017426 
	C240.938675,70.031326 239.477112,70.652794 238.012878,70.992073 
z"/>
<path fill="#4A4A4A" opacity="1.000000" stroke="none" 
	d="
M240.988998,266.184570 
	C234.335220,266.197815 228.174545,266.073456 222.024384,266.273041 
	C218.617752,266.383606 216.557068,265.549164 216.599365,261.708496 
	C216.638306,258.171539 216.221359,254.608261 216.563217,251.111115 
	C216.647903,250.244659 218.883072,248.956497 220.146637,248.936630 
	C230.804321,248.769089 241.469070,249.000046 252.124664,248.776505 
	C255.796936,248.699493 257.336029,250.544662 257.813019,253.540634 
	C258.226288,256.136200 258.746185,259.130280 257.839203,261.395874 
	C257.039337,263.394012 254.528763,265.543335 252.423828,265.994629 
	C248.925476,266.744781 245.146988,266.188385 240.988998,266.184570 
z"/>
<path fill="#464646" opacity="1.000000" stroke="none" 
	d="
M232.913895,181.652283 
	C228.348984,181.696289 224.202774,182.006378 220.057510,181.994263 
	C216.170517,181.982910 216.093979,179.028885 215.597885,176.086227 
	C214.264435,168.176834 216.710236,164.850967 224.494003,164.797104 
	C232.990311,164.738327 241.487320,164.771713 249.984009,164.783447 
	C257.101318,164.793274 257.651917,165.317642 258.137939,172.370941 
	C258.670685,180.102310 256.889648,182.083755 249.309845,182.033478 
	C243.983902,181.998169 238.658600,181.866394 232.913895,181.652283 
z"/>
<path fill="#464646" opacity="1.000000" stroke="none" 
	d="
M256.992920,220.059265 
	C255.291214,221.406921 253.628738,223.858673 251.881363,223.920776 
	C241.512360,224.289124 231.123672,224.084305 220.741730,224.116318 
	C217.476761,224.126373 215.987885,222.608032 215.780350,219.334152 
	C215.022446,207.378265 215.510941,206.801758 227.515274,206.814819 
	C232.660339,206.820419 237.805374,206.855698 243.864746,207.027771 
	C257.807800,207.424423 256.954926,204.965698 256.938843,219.562943 
	C256.938660,219.728363 256.974091,219.893814 256.992920,220.059265 
z"/>
<path fill="#414141" opacity="1.000000" stroke="none" 
	d="
M160.859192,263.787506 
	C160.457642,258.946747 160.056091,254.106003 159.618240,248.827805 
	C172.785080,248.827805 185.045349,248.801102 197.304825,248.887878 
	C198.121979,248.893677 198.933029,249.760681 199.500381,250.854080 
	C198.866821,256.015869 198.479813,260.550690 198.092789,265.085541 
	C198.092789,265.085541 198.037903,265.043335 197.621353,264.853394 
	C186.119675,264.678589 175.034531,264.693695 163.723312,264.459656 
	C162.617889,264.069519 161.738541,263.928528 160.859192,263.787506 
z"/>
<path fill="#434343" opacity="1.000000" stroke="none" 
	d="
M197.133835,223.856262 
	C185.924713,223.925690 174.711914,224.146454 163.511047,223.874863 
	C162.095383,223.840546 159.632858,221.262482 159.578751,219.792130 
	C159.443344,216.113922 160.413376,212.395020 161.506042,208.291519 
	C172.535477,207.888702 183.000992,208.009857 193.460770,207.818298 
	C197.133179,207.751053 198.790268,209.310181 198.739395,212.699966 
	C198.687439,216.162003 198.272186,219.618622 198.015976,223.077606 
	C198.015976,223.077606 197.987381,223.003998 197.835297,223.100449 
	C197.413483,223.344528 197.230347,223.564316 197.133835,223.856262 
z"/>
<path fill="#3D3D3D" opacity="1.000000" stroke="none" 
	d="
M159.998917,167.000610 
	C160.179047,166.805084 160.390167,166.652420 161.222229,166.398315 
	C169.252228,166.238571 176.692291,166.211716 184.132370,166.210129 
	C198.883575,166.206970 198.883575,166.212738 197.466064,180.922607 
	C184.960663,180.986725 172.915100,180.983673 160.869537,180.980606 
	C160.869537,180.980606 161.046646,180.975052 160.981964,180.639267 
	C160.611145,175.869186 160.305023,171.434906 159.998917,167.000610 
z"/>
<path fill="#404040" opacity="1.000000" stroke="none" 
	d="
M313.070618,174.931458 
	C310.690308,176.892761 308.310028,178.854050 305.144775,180.765289 
	C294.551697,180.628677 284.743591,180.542130 274.935486,180.455582 
	C274.554016,177.141129 274.172546,173.826660 274.212769,169.952423 
	C275.409210,166.305573 277.714600,166.069183 280.377563,166.076141 
	C291.274139,166.104614 302.171021,166.017166 313.067810,165.972412 
	C313.067810,165.972397 313.006775,165.990082 313.002686,166.369934 
	C313.343414,169.188477 313.688232,171.627182 314.033081,174.065872 
	C314.033081,174.065872 314.010162,174.006607 313.777588,174.021484 
	C313.386902,174.334732 313.228729,174.633087 313.070618,174.931458 
z"/>
<path fill="#8F8F8F" opacity="1.000000" stroke="none" 
	d="
M142.308014,288.587128 
	C141.689545,287.423187 140.115189,285.839569 140.110580,284.251404 
	C139.980591,239.282486 140.029266,194.313095 139.967743,149.343887 
	C139.963379,146.149033 141.028702,144.946426 144.303818,144.959167 
	C177.279816,145.087494 210.256241,145.103683 243.697418,145.515152 
	C244.091156,146.201035 244.053818,146.527008 244.050262,146.856857 
	C210.260788,146.856857 176.471329,146.856857 142.083740,146.856857 
	C142.083740,194.339890 142.083740,241.252609 142.308014,288.587128 
z"/>
<path fill="#C0C0C0" opacity="1.000000" stroke="none" 
	d="
M389.559540,129.861816 
	C388.775726,130.173935 387.533447,130.961960 386.290649,130.962799 
	C305.629547,131.017090 224.968414,131.008774 144.307281,130.990372 
	C143.320038,130.990143 142.332840,130.787537 141.388641,130.099808 
	C141.678864,129.052734 141.926056,128.585251 142.173248,128.117783 
	C143.869110,128.749420 145.564468,129.931961 147.260925,129.933578 
	C227.874161,130.010178 308.487488,129.984467 389.559540,129.861816 
z"/>
<path fill="#ABD7A8" opacity="1.000000" stroke="none" 
	d="
M292.660522,225.090591 
	C292.243805,227.615936 291.753540,230.416565 290.750824,233.019852 
	C281.684875,256.557556 282.609100,279.610748 294.250885,302.024750 
	C297.380035,308.049347 301.305298,313.660461 304.935486,319.813934 
	C301.992889,316.715820 297.992126,313.718811 296.158508,309.726471 
	C291.330139,299.213654 285.371307,288.577026 283.708344,277.416687 
	C281.645386,263.571930 280.751556,248.870071 287.832031,235.437836 
	C289.556976,232.165543 290.855011,228.668213 292.660522,225.090591 
z"/>
<path fill="#878787" opacity="1.000000" stroke="none" 
	d="
M337.305969,90.857101 
	C337.132477,72.417641 337.267303,53.756275 337.765991,34.905750 
	C338.794556,39.326237 339.936737,43.926281 340.029724,48.547432 
	C340.259888,59.989334 340.148071,71.444511 339.848450,82.885834 
	C339.780334,85.486671 338.393890,88.052986 337.305969,90.857101 
z"/>
<path fill="#878787" opacity="1.000000" stroke="none" 
	d="
M269.911285,306.774170 
	C270.384094,306.777557 270.856873,306.780914 271.668976,306.887695 
	C271.028931,307.325226 270.049957,307.950317 269.070160,307.951660 
	C227.997375,308.007355 186.924484,308.008087 145.851624,308.004395 
	C145.362183,308.004364 144.872742,307.857819 144.183746,307.389587 
	C185.359116,307.003204 226.734024,307.006866 268.798462,306.958313 
	C269.488007,306.906067 269.911285,306.774170 269.911285,306.774170 
z"/>
<path fill="#7E7E7E" opacity="1.000000" stroke="none" 
	d="
M142.113464,127.709694 
	C141.926056,128.585251 141.678864,129.052734 141.110565,129.757324 
	C140.540878,129.054810 140.078049,128.115768 140.075592,127.175522 
	C140.032227,110.622437 140.030853,94.069191 140.056610,77.516029 
	C140.062317,73.841988 141.556442,71.120155 145.671402,70.331917 
	C146.025742,70.809616 146.025711,70.997070 146.025681,71.184532 
	C144.684860,74.131332 142.255341,77.052490 142.185211,80.029221 
	C141.814270,95.778976 142.036865,111.542717 142.113464,127.709694 
z"/>
<path fill="#C7C7C7" opacity="1.000000" stroke="none" 
	d="
M266.768494,292.535278 
	C226.973679,292.928894 186.996674,292.927155 146.537323,292.712738 
	C146.054962,292.500092 146.059311,292.157318 146.059311,292.157318 
	C186.234985,292.151520 226.410660,292.145721 266.768494,292.535278 
z"/>
<path fill="#7E7E7E" opacity="1.000000" stroke="none" 
	d="
M311.638428,33.923222 
	C311.954895,50.179340 311.744690,66.664757 312.034760,83.141373 
	C312.094604,86.540787 314.018188,89.907402 315.065918,93.666702 
	C310.379028,93.676262 310.177887,89.701782 310.129608,86.741859 
	C309.860748,70.256599 309.970581,53.764675 310.045685,37.275463 
	C310.050446,36.231571 310.856049,35.191338 311.638428,33.923222 
z"/>
<path fill="#767676" opacity="1.000000" stroke="none" 
	d="
M216.475006,93.898010 
	C219.560837,88.735626 219.152908,82.931854 219.107285,77.159843 
	C218.995911,63.065468 218.966278,48.970440 218.965149,34.406143 
	C219.704468,35.665535 220.955383,37.389339 220.970886,39.124172 
	C221.111603,54.881973 221.043518,70.641708 221.019272,86.400856 
	C221.014267,89.661385 220.418411,92.633339 216.475006,93.898010 
z"/>
<path fill="#969696" opacity="1.000000" stroke="none" 
	d="
M293.880768,55.612953 
	C277.367065,55.939835 260.653931,55.833157 243.942184,55.942478 
	C240.862900,55.962620 237.789337,56.857384 234.319382,57.146698 
	C236.529205,55.944340 239.117310,54.127968 241.738922,54.078228 
	C256.499176,53.798157 271.268005,53.881191 286.032562,54.001778 
	C288.585571,54.022629 291.132202,54.816803 293.880768,55.612953 
z"/>
<path fill="#C0C0C0" opacity="1.000000" stroke="none" 
	d="
M335.168274,145.360794 
	C352.113800,145.345764 369.059357,145.330734 386.688660,145.531464 
	C387.918396,146.471405 388.464417,147.195572 389.010406,147.919739 
	C387.105499,147.612076 385.201843,147.046753 383.295441,147.037384 
	C367.522980,146.959747 351.750031,146.985016 335.533936,146.663757 
	C335.160309,146.022614 335.186157,145.693420 335.168274,145.360794 
z"/>
<path fill="#969696" opacity="1.000000" stroke="none" 
	d="
M177.010330,55.560913 
	C168.792633,55.880604 160.321960,55.651939 151.870316,55.954739 
	C146.793945,56.136608 141.747299,57.147537 136.302307,57.906227 
	C138.903946,56.669018 141.832855,54.318268 144.888031,54.140720 
	C153.931015,53.615211 163.024628,53.886951 172.096451,54.002628 
	C173.657761,54.022533 175.209305,54.805740 177.010330,55.560913 
z"/>
<path fill="#7E7E7E" opacity="1.000000" stroke="none" 
	d="
M197.925903,180.855453 
	C198.883575,166.212738 198.883575,166.206970 184.132370,166.210129 
	C176.692291,166.211716 169.252228,166.238571 161.334076,166.237244 
	C161.369766,165.804611 161.881210,165.029068 162.397659,165.025711 
	C173.717270,164.952164 185.039108,164.875076 196.355087,165.088181 
	C197.583221,165.111328 199.765396,166.859848 199.814224,167.888351 
	C200.007431,171.957657 199.527573,176.058914 198.906296,180.555939 
	C198.318848,180.927490 198.122375,180.891464 197.925903,180.855453 
z"/>
<path fill="#C0C0C0" opacity="1.000000" stroke="none" 
	d="
M244.512115,146.918793 
	C244.053818,146.527008 244.091156,146.201035 244.163330,145.632416 
	C256.747711,145.360931 269.331024,145.335953 282.375793,145.589111 
	C282.909088,146.193222 282.946381,146.523087 282.949127,146.856873 
	C270.290741,146.898148 257.632355,146.939438 244.512115,146.918793 
z"/>
<path fill="#878787" opacity="1.000000" stroke="none" 
	d="
M198.410004,223.011368 
	C198.272186,219.618622 198.687439,216.162003 198.739395,212.699966 
	C198.790268,209.310181 197.133179,207.751053 193.460770,207.818298 
	C183.000992,208.009857 172.535477,207.888702 161.614105,207.883453 
	C163.712830,207.612518 166.267899,207.143341 168.826859,207.121063 
	C178.949722,207.032974 189.073822,207.084900 199.729843,207.084900 
	C200.602325,212.393341 203.282455,217.757904 198.410004,223.011368 
z"/>
<path fill="#767676" opacity="1.000000" stroke="none" 
	d="
M193.674484,32.913792 
	C193.753952,50.955887 193.527710,69.281937 193.090668,87.911621 
	C192.454987,83.775330 191.788223,79.342438 191.659119,74.893936 
	C191.437866,67.270195 191.308746,59.627281 191.602493,52.010212 
	C191.844849,45.726032 192.754715,39.467590 193.674484,32.913792 
z"/>
<path fill="#969696" opacity="1.000000" stroke="none" 
	d="
M385.977203,55.754784 
	C376.964233,55.821209 367.951294,55.887638 358.454041,55.685135 
	C357.959564,55.228882 357.949371,55.041565 357.939209,54.854240 
	C361.817902,54.550217 365.692200,54.090698 369.576416,53.980499 
	C374.735931,53.834110 379.903168,53.960175 385.531860,54.317356 
	C385.990143,55.028618 385.983673,55.391697 385.977203,55.754784 
z"/>
<path fill="#C7C7C7" opacity="1.000000" stroke="none" 
	d="
M238.480713,70.996841 
	C239.477112,70.652794 240.938675,70.031326 242.405991,70.017426 
	C259.062897,69.859650 275.720703,69.794785 292.850830,69.847572 
	C291.799591,70.320389 290.277069,70.931000 288.751801,70.937950 
	C272.150970,71.013618 255.549683,70.994743 238.480713,70.996841 
z"/>
<path fill="#ABD7A8" opacity="1.000000" stroke="none" 
	d="
M325.059082,337.337799 
	C332.804932,340.074799 340.704865,343.130157 348.773682,346.475433 
	C342.438263,344.778290 335.897583,342.899017 329.455597,340.727112 
	C327.875885,340.194519 326.618622,338.705444 325.059082,337.337799 
z"/>
<path fill="#C0C0C0" opacity="1.000000" stroke="none" 
	d="
M295.183197,145.404617 
	C303.759979,145.380402 312.336761,145.356186 321.374542,145.596848 
	C321.897034,146.186157 321.933441,146.513382 321.944794,146.843384 
	C313.289398,146.888367 304.633972,146.933365 295.546570,146.668732 
	C295.197571,146.045288 295.220459,145.727112 295.183197,145.404617 
z"/>
<path fill="#ABD7A8" opacity="1.000000" stroke="none" 
	d="
M305.627686,206.030365 
	C305.108429,207.614471 304.447662,209.434418 303.392365,210.986038 
	C300.200073,215.679733 296.854767,220.269363 293.218628,224.938416 
	C294.196228,216.838516 300.506683,211.990036 305.627686,206.030365 
z"/>
<path fill="#ABD7A8" opacity="1.000000" stroke="none" 
	d="
M392.406616,346.055237 
	C399.094330,343.029663 406.213562,339.968384 413.709290,336.984406 
	C408.162781,342.798035 401.024689,345.652191 392.406616,346.055237 
z"/>
<path fill="#878787" opacity="1.000000" stroke="none" 
	d="
M312.857697,165.586060 
	C302.171021,166.017166 291.274139,166.104614 280.377563,166.076141 
	C277.714600,166.069183 275.409210,166.305573 274.372498,169.630646 
	C274.110474,168.403732 274.110474,166.938812 274.110474,165.199692 
	C287.081970,165.199692 299.864777,165.199692 312.857697,165.586060 
z"/>
<path fill="#ABD7A8" opacity="1.000000" stroke="none" 
	d="
M306.884918,322.334686 
	C312.089264,326.188446 317.370636,330.396851 322.789154,334.920441 
	C316.056549,333.023682 311.062683,328.424713 306.884918,322.334686 
z"/>
<path fill="#F0F0F0" opacity="1.000000" stroke="none" 
	d="
M257.384186,219.927246 
	C256.974091,219.893814 256.938660,219.728363 256.938843,219.562943 
	C256.954926,204.965698 257.807800,207.424423 244.320740,207.094696 
	C247.994629,206.702072 252.124741,206.260452 256.260834,206.194794 
	C257.091705,206.181595 258.679138,207.611084 258.665161,208.351761 
	C258.593079,212.170486 258.113098,215.981506 257.384186,219.927246 
z"/>
<path fill="#F0F0F0" opacity="1.000000" stroke="none" 
	d="
M197.466064,180.922607 
	C198.122375,180.891464 198.318848,180.927490 198.811890,180.920898 
	C198.886017,181.258194 198.662994,181.970795 198.441269,181.970383 
	C186.046783,181.947739 173.652420,181.865555 161.063782,181.384979 
	C172.915100,180.983673 184.960663,180.986725 197.466064,180.922607 
z"/>
<path fill="#F0F0F0" opacity="1.000000" stroke="none" 
	d="
M163.949402,264.708832 
	C175.034531,264.693695 186.119675,264.678589 197.651978,264.837280 
	C196.626663,265.350189 195.156677,265.969788 193.681274,265.982910 
	C184.122345,266.068054 174.562241,266.021027 164.524490,265.654358 
	C164.014099,265.097229 163.981750,264.903015 163.949402,264.708832 
z"/>
<path fill="#F0F0F0" opacity="1.000000" stroke="none" 
	d="
M159.557205,166.996521 
	C160.305023,171.434906 160.611145,175.869186 160.987076,180.727722 
	C160.087250,180.651886 158.270035,180.132965 158.280685,179.654663 
	C158.374542,175.429825 158.792999,171.212189 159.557205,166.996521 
z"/>
<path fill="#F0F0F0" opacity="1.000000" stroke="none" 
	d="
M274.992188,180.928284 
	C284.743591,180.542130 294.551697,180.628677 304.833313,180.850143 
	C303.955505,181.316818 302.600891,181.947098 301.253510,181.931870 
	C292.517761,181.833252 283.783600,181.594086 274.992188,180.928284 
z"/>
<path fill="#C0C0C0" opacity="1.000000" stroke="none" 
	d="
M357.929504,70.360703 
	C367.013550,70.089989 376.355530,70.194267 385.873474,70.706100 
	C376.762146,70.987679 367.474762,70.861694 357.929504,70.360703 
z"/>
<path fill="#878787" opacity="1.000000" stroke="none" 
	d="
M198.491852,265.052795 
	C198.479813,260.550690 198.866821,256.015869 199.614410,251.256042 
	C201.180923,255.815491 202.617462,260.617798 198.491852,265.052795 
z"/>
<path fill="#C0C0C0" opacity="1.000000" stroke="none" 
	d="
M146.485870,71.099525 
	C146.025711,70.997070 146.025742,70.809616 146.039383,70.341293 
	C154.871964,70.096115 163.690933,70.131813 172.703430,70.550171 
	C164.246658,70.960068 155.596344,70.987289 146.485870,71.099525 
z"/>
<path fill="#8F8F8F" opacity="1.000000" stroke="none" 
	d="
M389.063446,148.358582 
	C388.464417,147.195572 387.918396,146.471405 387.151733,145.560516 
	C389.751953,144.518677 391.021454,145.579285 390.830841,148.500076 
	C390.659149,151.130600 390.521271,153.763351 390.158081,156.748978 
	C389.670624,154.334366 389.393555,151.565903 389.063446,148.358582 
z"/>
<path fill="#8F8F8F" opacity="1.000000" stroke="none" 
	d="
M322.407166,146.910095 
	C321.933441,146.513382 321.897034,146.186157 321.831604,145.614594 
	C325.965546,145.286591 330.103394,145.205688 334.704773,145.242798 
	C335.186157,145.693420 335.160309,146.022614 335.073181,146.595856 
	C330.993622,146.887833 326.931549,146.932327 322.407166,146.910095 
z"/>
<path fill="#8F8F8F" opacity="1.000000" stroke="none" 
	d="
M294.721008,145.283981 
	C295.220459,145.727112 295.197571,146.045288 295.086365,146.597672 
	C291.327698,146.897141 287.597229,146.958069 283.407959,146.937927 
	C282.946381,146.523087 282.909088,146.193222 282.832336,145.617889 
	C286.637909,145.300125 290.448364,145.231735 294.721008,145.283981 
z"/>
<path fill="#ABD7A8" opacity="1.000000" stroke="none" 
	d="
M311.587646,199.906296 
	C310.476929,201.557434 309.019623,203.274429 307.202209,204.961334 
	C308.308411,203.278198 309.774750,201.625183 311.587646,199.906296 
z"/>
<path fill="#767676" opacity="1.000000" stroke="none" 
	d="
M216.953796,30.578251 
	C214.611954,30.158199 212.162537,29.381836 209.457581,28.391224 
	C211.750122,28.858631 214.298172,29.540285 216.953796,30.578251 
z"/>
<path fill="#8F8F8F" opacity="1.000000" stroke="none" 
	d="
M357.584717,54.888596 
	C357.949371,55.041565 357.959564,55.228882 357.985474,55.697151 
	C356.519653,57.041985 355.038116,58.105869 353.213135,59.212696 
	C354.323242,57.811409 355.776764,56.367176 357.584717,54.888596 
z"/>
<path fill="#878787" opacity="1.000000" stroke="none" 
	d="
M314.365082,173.850708 
	C313.688232,171.627182 313.343414,169.188477 313.007294,166.338501 
	C313.576355,168.496658 314.136719,171.066086 314.365082,173.850708 
z"/>
<path fill="#8F8F8F" opacity="1.000000" stroke="none" 
	d="
M386.337158,55.842918 
	C385.983673,55.391697 385.990143,55.028618 385.994659,54.393139 
	C387.903534,54.515087 389.814331,54.909431 391.935547,55.613411 
	C390.329681,55.925713 388.513397,55.928387 386.337158,55.842918 
z"/>
<path fill="#ABD7A8" opacity="1.000000" stroke="none" 
	d="
M427.983459,200.610748 
	C426.789246,200.141663 425.493530,199.350418 424.095154,198.213593 
	C425.288940,198.674881 426.585449,199.481735 427.983459,200.610748 
z"/>
<path fill="#878787" opacity="1.000000" stroke="none" 
	d="
M163.723312,264.459656 
	C163.981750,264.903015 164.014099,265.097229 164.065598,265.586060 
	C162.846024,265.329926 161.607315,264.779114 160.613907,264.007904 
	C161.738541,263.928528 162.617889,264.069519 163.723312,264.459656 
z"/>
<path fill="#767676" opacity="1.000000" stroke="none" 
	d="
M219.060883,33.650742 
	C218.325607,33.199749 217.580368,32.409153 216.950089,31.277927 
	C217.727005,31.728573 218.388962,32.519855 219.060883,33.650742 
z"/>
<path fill="#ABD7A8" opacity="1.000000" stroke="none" 
	d="
M438.065552,211.644043 
	C437.396210,211.190460 436.669647,210.408310 435.997986,209.271790 
	C436.704742,209.716766 437.356506,210.516129 438.065552,211.644043 
z"/>
<path fill="#767676" opacity="1.000000" stroke="none" 
	d="
M202.948700,27.680733 
	C202.002350,28.318027 200.846024,28.736063 199.313843,29.057249 
	C200.204895,28.460756 201.471802,27.961115 202.948700,27.680733 
z"/>
<path fill="#ABD7A8" opacity="1.000000" stroke="none" 
	d="
M316.808136,196.055634 
	C316.306946,196.778641 315.454529,197.432785 314.259094,198.014374 
	C314.763062,197.290131 315.609985,196.638443 316.808136,196.055634 
z"/>
<path fill="#ABD7A8" opacity="1.000000" stroke="none" 
	d="
M433.086548,205.608887 
	C432.455688,205.481979 431.766083,205.002151 431.063873,204.178543 
	C431.710083,204.308487 432.368927,204.782211 433.086548,205.608887 
z"/>
<path fill="#ABD7A8" opacity="1.000000" stroke="none" 
	d="
M414.420593,337.079102 
	C414.563202,336.503174 415.079224,335.888885 415.914856,335.173889 
	C415.754272,335.729034 415.274170,336.384888 414.420593,337.079102 
z"/>
<path fill="#ABD7A8" opacity="1.000000" stroke="none" 
	d="
M322.645569,335.485046 
	C323.431458,335.581146 324.110168,336.031708 324.895874,336.791016 
	C324.181366,336.679718 323.359863,336.259644 322.645569,335.485046 
z"/>
<path fill="#767676" opacity="1.000000" stroke="none" 
	d="
M192.918732,90.308861 
	C193.571625,90.437187 194.204330,90.940636 194.919037,91.776855 
	C194.300217,91.634407 193.599365,91.159195 192.918732,90.308861 
z"/>
<path fill="#969696" opacity="1.000000" stroke="none" 
	d="
M233.631775,57.087166 
	C233.833588,57.757980 233.739273,58.575748 233.383026,59.617630 
	C233.192596,58.972530 233.264114,58.103325 233.631775,57.087166 
z"/>
<path fill="#ABD7A8" opacity="1.000000" stroke="none" 
	d="
M416.328064,335.412170 
	C416.836700,334.782043 417.690063,334.362701 418.915405,333.962128 
	C418.415863,334.528229 417.544312,335.075592 416.328064,335.412170 
z"/>
<path fill="#878787" opacity="1.000000" stroke="none" 
	d="
M333.409668,94.710693 
	C333.616272,94.265312 334.070862,93.714554 334.799713,93.079971 
	C334.601837,93.532539 334.129761,94.068932 333.409668,94.710693 
z"/>
<path fill="#C0C0C0" opacity="1.000000" stroke="none" 
	d="
M385.982880,71.315582 
	C386.635345,71.422867 387.371857,71.812424 388.018005,72.573776 
	C387.307404,72.496330 386.687195,72.047089 385.982880,71.315582 
z"/>
<path fill="#ABD7A8" opacity="1.000000" stroke="none" 
	d="
M421.030151,194.731812 
	C420.616028,194.778854 420.024323,194.544846 419.212402,194.070129 
	C419.612305,194.036545 420.232483,194.243668 421.030151,194.731812 
z"/>
<path fill="#767676" opacity="1.000000" stroke="none" 
	d="
M198.652740,28.927464 
	C198.461533,29.337044 197.923264,29.746794 197.020264,30.064438 
	C197.205566,29.624100 197.755615,29.275867 198.652740,28.927464 
z"/>
<path fill="#969696" opacity="1.000000" stroke="none" 
	d="
M135.764618,58.040268 
	C135.533890,58.250793 135.004395,58.559349 134.173126,58.937431 
	C134.402863,58.717400 134.934341,58.427845 135.764618,58.040268 
z"/>
<path fill="#969696" opacity="1.000000" stroke="none" 
	d="
M132.715790,59.899239 
	C132.544876,60.256073 132.072647,60.721809 131.262054,61.078438 
	C131.420624,60.648933 131.917557,60.328533 132.715790,59.899239 
z"/>
<path fill="#969696" opacity="1.000000" stroke="none" 
	d="
M130.675613,61.059624 
	C130.813629,61.552853 130.659805,62.180981 130.165405,62.914230 
	C130.011124,62.411076 130.197449,61.802799 130.675613,61.059624 
z"/>
<path fill="#8F8F8F" opacity="1.000000" stroke="none" 
	d="
M145.804565,292.072113 
	C146.059311,292.157318 146.054962,292.500092 146.076630,292.669983 
	C145.744736,292.725189 145.391190,292.610474 145.027679,292.204285 
	C145.195114,291.937500 145.372482,291.962219 145.804565,292.072113 
z"/>
<path fill="#ABD7A8" opacity="1.000000" stroke="none" 
	d="
M391.286682,346.819946 
	C391.226593,346.581390 391.465179,346.402740 391.905762,346.121033 
	C391.893951,346.252350 391.719818,346.539642 391.286682,346.819946 
z"/>
<path fill="#969696" opacity="1.000000" stroke="none" 
	d="
M295.323303,56.809952 
	C295.127625,56.873837 294.676575,56.728485 294.103180,56.250023 
	C294.343201,56.144844 294.705536,56.372780 295.323303,56.809952 
z"/>
<path fill="#ABD7A8" opacity="1.000000" stroke="none" 
	d="
M420.244415,333.108276 
	C420.250610,332.976898 420.508606,332.681854 420.982361,332.186890 
	C420.964142,332.306183 420.730194,332.625397 420.244415,333.108276 
z"/>
<path fill="#878787" opacity="1.000000" stroke="none" 
	d="
M313.316833,174.886932 
	C313.228729,174.633087 313.386902,174.334732 313.809326,174.023499 
	C313.903412,174.287888 313.733246,174.565170 313.316833,174.886932 
z"/>
<path fill="#ABD7A8" opacity="1.000000" stroke="none" 
	d="
M313.705414,197.972382 
	C313.803833,198.222061 313.629272,198.536011 313.180573,198.914581 
	C313.081757,198.665024 313.257111,198.350830 313.705414,197.972382 
z"/>
<path fill="#ABD7A8" opacity="1.000000" stroke="none" 
	d="
M312.706299,198.971390 
	C312.804077,199.220093 312.628265,199.533813 312.180908,199.915100 
	C312.083801,199.667252 312.258270,199.351822 312.706299,198.971390 
z"/>
<path fill="#ABD7A8" opacity="1.000000" stroke="none" 
	d="
M429.029907,201.703949 
	C428.768280,201.806671 428.443604,201.638016 428.076324,201.186127 
	C428.344757,201.079437 428.655823,201.255997 429.029907,201.703949 
z"/>
<path fill="#878787" opacity="1.000000" stroke="none" 
	d="
M197.357269,223.800751 
	C197.230347,223.564316 197.413483,223.344528 197.872009,223.085876 
	C197.991348,223.288116 197.831329,223.544922 197.357269,223.800751 
z"/>
<path fill="#8F8F8F" opacity="1.000000" stroke="none" 
	d="
M145.036926,291.699280 
	C144.691452,291.842987 144.298416,291.711365 143.978180,291.248016 
	C144.363770,291.085510 144.676559,291.254730 145.036926,291.699280 
z"/>
<path fill="#8F8F8F" opacity="1.000000" stroke="none" 
	d="
M144.017853,290.658508 
	C143.681946,290.741821 143.275833,290.518616 142.941437,289.902344 
	C143.324646,289.790192 143.636139,290.071106 144.017853,290.658508 
z"/>
<path fill="#ABD7A8" opacity="1.000000" stroke="none" 
	d="
M430.027405,202.710358 
	C429.784576,202.802597 429.476410,202.621048 429.092529,202.172821 
	C429.331940,202.082977 429.646973,202.259781 430.027405,202.710358 
z"/>
<path fill="#ABD7A8" opacity="1.000000" stroke="none" 
	d="
M431.024628,203.714020 
	C430.783173,203.804413 430.477478,203.620468 430.093323,203.171829 
	C430.330078,203.084656 430.645203,203.262177 431.024628,203.714020 
z"/>
<path fill="#ABD7A8" opacity="1.000000" stroke="none" 
	d="
M306.705872,204.972656 
	C306.805511,205.224869 306.632599,205.541656 306.183960,205.918549 
	C306.083252,205.664841 306.258301,205.351028 306.705872,204.972656 
z"/>
<path fill="#ABD7A8" opacity="1.000000" stroke="none" 
	d="
M434.005371,206.738129 
	C433.803345,206.799362 433.524292,206.590561 433.117737,206.150208 
	C433.302948,206.101807 433.615631,206.284943 434.005371,206.738129 
z"/>
<path fill="#ABD7A8" opacity="1.000000" stroke="none" 
	d="
M435.018738,207.714066 
	C434.786591,207.801666 434.482391,207.618729 434.091980,207.174530 
	C434.319397,207.090027 434.633057,207.266769 435.018738,207.714066 
z"/>
<path fill="#ABD7A8" opacity="1.000000" stroke="none" 
	d="
M436.028748,208.699585 
	C435.765656,208.807846 435.439056,208.644501 435.069244,208.195984 
	C435.339111,208.083206 435.652161,208.255585 436.028748,208.699585 
z"/>
<path fill="#ABD7A8" opacity="1.000000" stroke="none" 
	d="
M439.016052,212.715622 
	C438.786682,212.801254 438.486511,212.615982 438.095490,212.172043 
	C438.318146,212.090485 438.631714,212.267593 439.016052,212.715622 
z"/>
<path fill="#ABD7A8" opacity="1.000000" stroke="none" 
	d="
M439.955017,213.961731 
	C439.659332,214.020477 439.369720,213.764755 439.054626,213.212555 
	C439.339783,213.159821 439.650421,213.403534 439.955017,213.961731 
z"/>
<path fill="#ABD7A8" opacity="1.000000" stroke="none" 
	d="
M440.956360,215.815369 
	C440.669586,215.836044 440.407257,215.519730 440.067780,214.888290 
	C440.320679,214.874908 440.650757,215.176636 440.956360,215.815369 
z"/>
<path fill="#000000" opacity="1.000000" stroke="none" 
	d="
M387.305298,241.976578 
	C387.594879,242.013153 387.808380,241.902664 388.268250,241.258148 
	C391.871368,236.963989 396.027802,235.714798 400.952759,236.798111 
	C401.587646,237.342896 402.222534,237.887680 402.955139,239.096909 
	C405.765137,245.865128 405.286987,247.933640 400.579498,252.899567 
	C398.498718,255.094574 396.766968,257.620422 394.876770,259.996094 
	C393.972137,260.760834 393.067535,261.525604 391.844116,262.699524 
	C391.339996,263.397614 391.154755,263.686584 390.969513,263.975586 
	C388.049408,267.064331 385.183105,270.206207 382.197906,273.230713 
	C376.202301,279.305328 370.143555,285.317627 364.107544,291.352325 
	C360.698151,294.760986 357.852631,294.850403 354.253082,291.620361 
	C347.507538,285.567291 340.762299,279.513641 334.050995,273.422729 
	C331.082153,270.728302 331.248779,262.378418 334.261566,259.372192 
	C336.718170,256.920959 341.784363,257.652435 345.199951,260.843262 
	C346.256409,261.830170 347.433472,262.836243 348.743774,263.375763 
	C352.921448,265.095917 354.095215,274.946716 361.427856,268.151276 
	C365.318359,264.545837 369.197449,260.926636 373.011597,257.241089 
	C374.052582,256.235168 374.839661,254.966476 376.218567,253.424072 
	C380.231049,249.345367 383.768158,245.660965 387.305298,241.976578 
z"/>
<path fill="#ABD7A8" opacity="1.000000" stroke="none" 
	d="
M395.214111,259.912048 
	C396.766968,257.620422 398.498718,255.094574 400.579498,252.899567 
	C405.286987,247.933640 405.765137,245.865128 403.103851,239.376373 
	C406.803711,241.444931 408.226562,245.552063 405.651672,249.068527 
	C402.767029,253.008026 398.958160,256.270752 395.214111,259.912048 
z"/>
<path fill="#ABD7A8" opacity="1.000000" stroke="none" 
	d="
M386.935242,241.958771 
	C383.768158,245.660965 380.231049,249.345367 376.345154,253.114578 
	C379.519348,249.446579 383.042236,245.693787 386.935242,241.958771 
z"/>
<path fill="#ABD7A8" opacity="1.000000" stroke="none" 
	d="
M400.779694,236.474976 
	C396.027802,235.714798 391.871368,236.963989 388.285431,241.068237 
	C389.512512,235.479752 394.329559,233.528931 400.779694,236.474976 
z"/>
<path fill="#ABD7A8" opacity="1.000000" stroke="none" 
	d="
M391.107605,263.762085 
	C391.154755,263.686584 391.339996,263.397614 391.761810,262.989746 
	C391.747467,263.096741 391.496582,263.322632 391.107605,263.762085 
z"/>
<path fill="#313131" opacity="1.000000" stroke="none" 
	d="
M269.803986,306.703735 
	C269.911285,306.774170 269.488007,306.906067 269.266571,306.897339 
	C269.212311,306.645416 269.429504,306.560333 269.803986,306.703735 
z"/>
</svg>