<?xml version="1.0" encoding="UTF-8"?>
<svg version="1.1" xmlns="http://www.w3.org/2000/svg" width="500" height="500">
<path d="M0 0 C16.87968811 8.5801238 35.46892891 10.49889316 53.7890625 5.0234375 C59.99214062 2.77173467 65.52664158 -0.01243379 70.99609375 -3.703125 C74.64312158 -5.64656647 77.969393 -6.17228292 82.04711914 -5.45947266 C82.97129639 -5.1763623 83.89547363 -4.89325195 84.84765625 -4.6015625 C85.8938916 -4.28388916 86.94012695 -3.96621582 88.01806641 -3.63891602 C89.67974854 -3.10609009 89.67974854 -3.10609009 91.375 -2.5625 C92.52661621 -2.19890381 93.67823242 -1.83530762 94.86474609 -1.46069336 C115.20699999 5.11930278 136.25350495 13.54763909 152.3125 28.0625 C153.09109375 28.75988281 153.8696875 29.45726562 154.671875 30.17578125 C160.17716581 35.37624891 165.07524448 41.15786409 168.3125 48.0625 C167.9825 49.0525 167.6525 50.0425 167.3125 51.0625 C166.343125 51.08828125 165.37375 51.1140625 164.375 51.140625 C144.18487014 51.8985815 126.61002947 57.21940457 111.3125 71.0625 C110.54292969 71.73925781 109.77335938 72.41601562 108.98046875 73.11328125 C95.62486814 85.55878983 88.03522016 103.03681773 86.3125 121.0625 C86.18042796 124.91078457 86.19907396 128.75162871 86.23828125 132.6015625 C86.24363892 133.6119458 86.24899658 134.6223291 86.2545166 135.66333008 C86.26837323 138.12981025 86.2878125 140.59610852 86.3125 143.0625 C60.41797047 143.15584672 34.52346606 143.22643179 8.6288023 143.26974869 C-3.39392526 143.29039402 -15.41654842 143.31855226 -27.43920898 143.36425781 C-37.91536549 143.40406524 -48.39144641 143.42991846 -58.86767644 143.43885398 C-64.41731984 143.44407906 -69.96674695 143.45640076 -75.51632118 143.48542023 C-80.7357249 143.51249305 -85.95482244 143.52096149 -91.1742897 143.51493073 C-93.09360224 143.51603461 -95.01292461 143.52403671 -96.93217659 143.5393219 C-99.54580743 143.55912281 -102.15827097 143.55447587 -104.77192688 143.54351807 C-105.53748707 143.55516943 -106.30304725 143.5668208 -107.09180623 143.57882524 C-112.21184967 143.5205031 -112.21184967 143.5205031 -114.65994549 141.16323471 C-115.81443773 138.80298822 -116.04833596 137.32113015 -116.015625 134.703125 C-116.01127441 133.8467041 -116.00692383 132.9902832 -116.00244141 132.10791016 C-115.98101074 131.1854248 -115.95958008 130.26293945 -115.9375 129.3125 C-115.92509277 128.34747559 -115.91268555 127.38245117 -115.89990234 126.38818359 C-115.85040357 123.27876076 -115.77297056 120.17113145 -115.6875 117.0625 C-115.64834473 115.5170752 -115.64834473 115.5170752 -115.60839844 113.94042969 C-114.73029811 81.85444171 -111.91982198 52.08976596 -87.72265625 28.69140625 C-69.47486228 12.3550015 -43.27217513 3.40413564 -20.5 -4.1875 C-18.71529297 -4.78304687 -18.71529297 -4.78304687 -16.89453125 -5.390625 C-10.57300985 -6.46859454 -5.43236502 -2.85786799 0 0 Z " fill="#000000" transform="translate(189.6875,236.9375)"/>
<path d="M0 0 C22.51263741 -0.67201903 43.22718431 7.65835472 60.0234375 22.3046875 C73.99775198 35.55896951 84.90426747 54.58606902 86.08325195 74.04663086 C86.61945723 100.67531117 86.61945723 100.67531117 81.90625 113.125 C81.555625 114.14980469 81.205 115.17460937 80.84375 116.23046875 C73.15395582 136.87008993 56.52454743 152.76301406 36.90625 162.125 C16.1513067 170.85578019 -8.16285455 171.82362261 -29.20214844 163.26757812 C-37.61308658 159.5644557 -45.15699548 155.1946602 -52.09375 149.125 C-52.75375 148.60679687 -53.41375 148.08859375 -54.09375 147.5546875 C-69.90280386 134.77158536 -78.75062814 114.71349667 -81.84375 95 C-83.48113656 69.62050826 -77.11787707 47.2709454 -60.3984375 27.65234375 C-44.54717887 10.26969234 -23.21508787 1.38597539 0 0 Z " fill="#000000" transform="translate(218.09375,60.875)"/>
<path d="M0 0 C14.94213585 11.92371192 26.0834139 29.37184206 28.61328125 48.609375 C30.39550657 68.51619534 26.92589001 89.17969665 13.9296875 105.03515625 C11.30012026 108.04930287 8.49385378 110.83533252 5.61328125 113.609375 C4.96875 114.27324219 4.32421875 114.93710937 3.66015625 115.62109375 C-9.53772667 128.38861093 -28.37688387 133.58278957 -46.30371094 133.64404297 C-67.07273902 133.29837935 -84.76192897 124.95790013 -99.22387695 110.24584961 C-106.49856288 102.52095853 -111.57995007 93.48187401 -115.38671875 83.609375 C-115.86818359 82.36414063 -115.86818359 82.36414063 -116.359375 81.09375 C-122.07354487 62.91471656 -119.05558479 42.27796791 -111.19921875 25.359375 C-101.65243803 7.32430523 -86.2151485 -5.35292202 -66.82421875 -11.328125 C-43.8165286 -18.21124275 -19.468166 -14.22342255 0 0 Z M-82.83203125 25.67578125 C-91.48826323 36.44169791 -96.47724161 49.75569569 -95.38671875 63.609375 C-93.363573 78.11430127 -87.66724898 90.5828866 -75.78125 99.58203125 C-63.12870408 107.98731916 -50.43871748 111.38704481 -35.26171875 109.1484375 C-20.01284562 105.7730359 -9.84208319 97.45502482 -1.38671875 84.609375 C3.32151612 76.64691897 4.98641113 68.99702572 4.92578125 59.796875 C4.9201416 58.90758301 4.91450195 58.01829102 4.90869141 57.10205078 C4.65465189 43.39649305 -0.67318802 32.81582792 -9.99609375 22.78125 C-21.47829098 12.34971134 -34.04663307 8.73891923 -49.16796875 9.265625 C-62.09219908 10.08361426 -74.03164819 16.2227382 -82.83203125 25.67578125 Z " fill="#000000" transform="translate(397.38671875,305.390625)"/>
<path d="M0 0 C0.79792969 0.00386719 1.59585938 0.00773437 2.41796875 0.01171875 C3.61486328 0.00591797 3.61486328 0.00591797 4.8359375 0 C10.79136108 0.01011108 10.79136108 0.01011108 11.91796875 1.13671875 C12.00510706 2.84444233 12.02496882 4.55570524 12.015625 6.265625 C12.01240234 7.30009766 12.00917969 8.33457031 12.00585938 9.40039062 C11.99329102 11.03331055 11.99329102 11.03331055 11.98046875 12.69921875 C11.97595703 13.79169922 11.97144531 14.88417969 11.96679688 16.00976562 C11.95496701 18.7188037 11.93848418 21.42773474 11.91796875 24.13671875 C12.95522095 24.12886353 12.95522095 24.12886353 14.01342773 24.12084961 C17.12743227 24.10014375 20.24142236 24.08707912 23.35546875 24.07421875 C24.44408203 24.06583984 25.53269531 24.05746094 26.65429688 24.04882812 C27.68876953 24.04560547 28.72324219 24.04238281 29.7890625 24.0390625 C30.7473999 24.03382568 31.7057373 24.02858887 32.69311523 24.02319336 C34.91796875 24.13671875 34.91796875 24.13671875 35.91796875 25.13671875 C36.00428749 26.47939288 36.02503348 27.82646197 36.015625 29.171875 C36.01312744 29.90027588 36.01062988 30.62867676 36.00805664 31.37915039 C35.99895264 32.30977295 35.98984863 33.24039551 35.98046875 34.19921875 C35.95984375 37.14859375 35.93921875 40.09796875 35.91796875 43.13671875 C27.99796875 43.13671875 20.07796875 43.13671875 11.91796875 43.13671875 C11.91796875 51.05671875 11.91796875 58.97671875 11.91796875 67.13671875 C5.64796875 67.13671875 -0.62203125 67.13671875 -7.08203125 67.13671875 C-7.08203125 59.21671875 -7.08203125 51.29671875 -7.08203125 43.13671875 C-15.00203125 43.13671875 -22.92203125 43.13671875 -31.08203125 43.13671875 C-31.10265625 40.18734375 -31.12328125 37.23796875 -31.14453125 34.19921875 C-31.15363525 33.26859619 -31.16273926 32.33797363 -31.17211914 31.37915039 C-31.1746167 30.65074951 -31.17711426 29.92234863 -31.1796875 29.171875 C-31.18492432 28.42301025 -31.19016113 27.67414551 -31.19555664 26.90258789 C-31.08203125 25.13671875 -31.08203125 25.13671875 -30.08203125 24.13671875 C-28.37430767 24.04958044 -26.66304476 24.02971868 -24.953125 24.0390625 C-23.40141602 24.04389648 -23.40141602 24.04389648 -21.81835938 24.04882812 C-20.72974609 24.05720703 -19.64113281 24.06558594 -18.51953125 24.07421875 C-16.88081055 24.08098633 -16.88081055 24.08098633 -15.20898438 24.08789062 C-12.4999463 24.09972049 -9.79101526 24.11620332 -7.08203125 24.13671875 C-7.08988647 23.09946655 -7.08988647 23.09946655 -7.09790039 22.04125977 C-7.11860625 18.92725523 -7.13167088 15.81326514 -7.14453125 12.69921875 C-7.15291016 11.61060547 -7.16128906 10.52199219 -7.16992188 9.40039062 C-7.17475586 7.84868164 -7.17475586 7.84868164 -7.1796875 6.265625 C-7.18754272 4.8281189 -7.18754272 4.8281189 -7.19555664 3.36157227 C-6.96170106 -1.22149415 -3.87827753 0.00658451 0 0 Z " fill="#000000" transform="translate(350.08203125,330.86328125)"/>
</svg>
