<?xml version="1.0" encoding="UTF-8"?>
<svg version="1.1" xmlns="http://www.w3.org/2000/svg" width="320" height="320">
<path d="M0 0 C9.95894186 7.53649654 16.9168876 17.83412515 20.45703125 29.859375 C20.74596334 31.97143021 20.9684055 34.09337255 21.1328125 36.21875 C21.23916016 37.41757813 21.34550781 38.61640625 21.45507812 39.8515625 C21.66333545 42.34030215 21.86139318 44.82991809 22.04882812 47.3203125 C22.87963675 56.39604648 24.99925212 63.21298429 30.45703125 70.546875 C31.45703125 72.859375 31.45703125 72.859375 30.20703125 76.046875 C29.76423828 76.94019531 29.76423828 76.94019531 29.3125 77.8515625 C26.82461804 83.69070099 26.93481147 89.3316939 29.08203125 95.234375 C32.15163852 101.89386196 36.70300044 104.16701279 43.17578125 107.02734375 C45.58554738 107.90624818 47.93323315 108.41948766 50.45703125 108.859375 C50.555 109.50003906 50.65296875 110.14070313 50.75390625 110.80078125 C52.10321061 118.60580905 53.87997459 124.0279851 60.14453125 129.109375 C64.2832873 132.02443105 68.58988738 133.57498981 73.45703125 134.859375 C73.37453125 136.014375 73.29203125 137.169375 73.20703125 138.359375 C73.2296058 144.73668424 75.75400209 149.11674051 80.14453125 153.609375 C83.86328692 156.42951105 88.1453219 158.14427284 92.45703125 159.859375 C92.39515625 160.82875 92.33328125 161.798125 92.26953125 162.796875 C92.3214169 169.21772476 94.16885255 174.84907816 98.39453125 179.734375 C102.99347532 183.89578739 108.35450073 185.37529911 114.45703125 185.859375 C121.46091426 184.9009489 126.27370527 181.45576265 130.76953125 176.109375 C131.32640625 175.366875 131.88328125 174.624375 132.45703125 173.859375 C133.44703125 174.189375 134.43703125 174.519375 135.45703125 174.859375 C135.45703125 175.519375 135.45703125 176.179375 135.45703125 176.859375 C136.11703125 176.859375 136.77703125 176.859375 137.45703125 176.859375 C137.45703125 177.519375 137.45703125 178.179375 137.45703125 178.859375 C138.44703125 179.189375 139.43703125 179.519375 140.45703125 179.859375 C140.45703125 180.519375 140.45703125 181.179375 140.45703125 181.859375 C141.11703125 181.859375 141.77703125 181.859375 142.45703125 181.859375 C142.45703125 182.519375 142.45703125 183.179375 142.45703125 183.859375 C143.44703125 184.189375 144.43703125 184.519375 145.45703125 184.859375 C145.45703125 185.519375 145.45703125 186.179375 145.45703125 186.859375 C146.11703125 186.859375 146.77703125 186.859375 147.45703125 186.859375 C147.45703125 187.519375 147.45703125 188.179375 147.45703125 188.859375 C148.44703125 189.189375 149.43703125 189.519375 150.45703125 189.859375 C150.45703125 190.519375 150.45703125 191.179375 150.45703125 191.859375 C151.11703125 191.859375 151.77703125 191.859375 152.45703125 191.859375 C152.45703125 192.519375 152.45703125 193.179375 152.45703125 193.859375 C153.11703125 193.859375 153.77703125 193.859375 154.45703125 193.859375 C159.76769477 201.92020355 160.58531083 209.34350762 159.45703125 218.859375 C157.79778448 225.08643053 153.54074465 230.01985915 148.45703125 233.859375 C142.01380321 237.53039064 135.79388223 238.84447985 128.45703125 237.859375 C120.75820662 235.73518467 115.73510646 231.99536129 110.26171875 226.3203125 C109.54339874 225.59824615 108.82507874 224.87617981 108.08499146 224.13223267 C106.58405967 222.61795253 105.09029063 221.09654151 103.60351562 219.56835938 C101.31774288 217.21969348 99.010762 214.89359444 96.69921875 212.5703125 C95.23961999 211.09239451 93.78124099 209.61327065 92.32421875 208.1328125 C91.63375458 207.43384857 90.94329041 206.73488464 90.23190308 206.01473999 C89.60349518 205.367117 88.97508728 204.71949402 88.32763672 204.05224609 C87.77155731 203.48251068 87.21547791 202.91277527 86.64254761 202.32577515 C85.45703125 200.859375 85.45703125 200.859375 85.45703125 198.859375 C84.81765625 198.59125 84.17828125 198.323125 83.51953125 198.046875 C81.45703125 196.859375 81.45703125 196.859375 80.45703125 193.859375 C79.79703125 193.529375 79.13703125 193.199375 78.45703125 192.859375 C76.45703125 191.859375 76.45703125 191.859375 75.45703125 188.859375 C74.79703125 188.529375 74.13703125 188.199375 73.45703125 187.859375 C71.45703125 186.859375 71.45703125 186.859375 70.45703125 183.859375 C69.79703125 183.859375 69.13703125 183.859375 68.45703125 183.859375 C66.83203125 182.484375 66.83203125 182.484375 65.45703125 180.859375 C65.45703125 180.199375 65.45703125 179.539375 65.45703125 178.859375 C64.79703125 178.859375 64.13703125 178.859375 63.45703125 178.859375 C61.94140625 177.3203125 61.94140625 177.3203125 60.20703125 175.234375 C57.11026573 171.58577496 53.88158714 168.20040514 50.45703125 164.859375 C50.72515625 164.199375 50.99328125 163.539375 51.26953125 162.859375 C51.66140625 161.869375 52.05328125 160.879375 52.45703125 159.859375 C52.72128906 159.25480469 52.98554688 158.65023437 53.2578125 158.02734375 C55.91526485 151.64190138 56.4460035 146.30078762 54.26953125 139.671875 C51.60324597 133.33479697 46.59817379 129.66589836 40.45703125 126.859375 C37.75203685 126.28221726 35.26658079 125.86574835 32.5390625 125.578125 C31.0211966 125.37452992 29.5036253 125.16872861 27.98632812 124.9609375 C25.6362507 124.65354649 23.2879895 124.36135632 20.93139648 124.10839844 C9.72255868 122.86755898 3.28691562 120.42427325 -4.09863281 111.70922852 C-10.09746408 104.71518563 -17.51553659 101.21981746 -26.54296875 99.859375 C-29.66585525 99.66455141 -32.79061257 99.57755908 -35.91796875 99.484375 C-46.81964484 99.15122955 -54.82984762 95.76615111 -64.54296875 90.859375 C-64.54296875 90.199375 -64.54296875 89.539375 -64.54296875 88.859375 C-65.56390625 88.5809375 -65.56390625 88.5809375 -66.60546875 88.296875 C-77.2561095 83.08485931 -82.72821135 71.44045393 -86.54296875 60.859375 C-90.25734577 49.67795139 -89.31879793 37.8722101 -85.54296875 26.859375 C-82.54296875 26.859375 -82.54296875 26.859375 -80.98995972 28.12564087 C-80.43752594 28.71791473 -79.88509216 29.3101886 -79.31591797 29.92041016 C-78.68450897 30.58755035 -78.05309998 31.25469055 -77.40255737 31.94204712 C-76.72444 32.67015594 -76.04632263 33.39826477 -75.34765625 34.1484375 C-73.89575965 35.66263714 -72.44259402 37.17562081 -70.98828125 38.6875 C-68.69751989 41.08341428 -66.41628062 43.48618632 -64.15625 45.91113281 C-61.97410037 48.24466193 -59.75855899 50.54177399 -57.53515625 52.8359375 C-56.53619827 53.93417343 -56.53619827 53.93417343 -55.51705933 55.05459595 C-51.96896454 58.79223559 -51.96896454 58.79223559 -47.15632629 59.90765381 C-36.4983506 57.71532243 -28.57368773 49.59465674 -22.06640625 41.31640625 C-19.40414561 37.02265768 -18.06752884 32.91280875 -18.54296875 27.859375 C-19.76177821 25.92279825 -19.76177821 25.92279825 -21.57226562 24.26245117 C-22.23295044 23.60214401 -22.89363525 22.94183685 -23.57434082 22.26152039 C-24.29617554 21.5654921 -25.01801025 20.86946381 -25.76171875 20.15234375 C-26.49418823 19.42694901 -27.22665771 18.70155426 -27.98132324 17.95417786 C-30.32373742 15.63975427 -32.68293319 13.34331392 -35.04296875 11.046875 C-36.63394882 9.48097139 -38.22380723 7.91392727 -39.8125 6.34570312 C-43.70973692 2.50359768 -47.62089625 -1.3238844 -51.54296875 -5.140625 C-51.21296875 -6.130625 -50.88296875 -7.120625 -50.54296875 -8.140625 C-33.79192214 -14.76520668 -14.26658811 -9.77564163 0 0 Z M123.70703125 203.546875 C121.88914471 206.9099651 121.93668193 209.08684243 122.45703125 212.859375 C124.25839658 216.18041068 126.38775718 218.43166537 129.95703125 219.859375 C134.01883751 219.859375 136.48943779 218.53930554 139.76953125 216.234375 C141.77196708 213.41613199 142.03712075 211.2633742 141.83203125 207.828125 C141.19726225 204.49558772 140.05762251 203.00486279 137.45703125 200.859375 C131.898122 199.12791146 127.94918101 199.45623059 123.70703125 203.546875 Z " fill="#0E0E0E" transform="translate(124.54296875,41.140625)"/>
<path d="M0 0 C16.12452132 0.08871814 31.82448261 0.4380559 43.77734375 12.265625 C44.38191406 12.8328125 44.98648438 13.4 45.609375 13.984375 C47.04937777 15.3603027 48.42080337 16.80734409 49.77734375 18.265625 C49.77734375 18.925625 49.77734375 19.585625 49.77734375 20.265625 C50.41671875 20.53375 51.05609375 20.801875 51.71484375 21.078125 C53.77734375 22.265625 53.77734375 22.265625 54.77734375 25.265625 C55.43734375 25.595625 56.09734375 25.925625 56.77734375 26.265625 C57.43734375 26.595625 58.09734375 26.925625 58.77734375 27.265625 C59.27234375 28.750625 59.27234375 28.750625 59.77734375 30.265625 C61.10275569 30.94790457 62.43725798 31.61263775 63.77734375 32.265625 C65.48828125 34 65.48828125 34 67.15234375 36.015625 C69.40593234 38.69267408 71.6902154 41.21745925 74.21484375 43.640625 C76.77734375 46.265625 76.77734375 46.265625 76.77734375 48.265625 C74.55466695 49.78384686 72.34903099 51.16384855 70.02734375 52.515625 C69.0060437 53.12277344 69.0060437 53.12277344 67.96411133 53.7421875 C63.88383838 56.13780411 59.75963436 58.27221502 55.46484375 60.265625 C46.24127824 64.76553162 39.66407035 71.30662623 34.77734375 80.265625 C30.37267602 78.73645733 26.72145474 76.38107067 22.90234375 73.765625 C21.56909849 72.86445302 20.23576249 71.96341528 18.90234375 71.0625 C17.88140625 70.36930664 17.88140625 70.36930664 16.83984375 69.66210938 C14.17656202 67.8588457 11.5009929 66.07452626 8.82202148 64.29467773 C7.55019318 63.44727744 6.28141928 62.59527352 5.01586914 61.73852539 C2.32811925 59.92360334 -0.33031671 58.20543236 -3.1640625 56.62109375 C-3.98777344 56.15316406 -4.81148437 55.68523437 -5.66015625 55.203125 C-6.36011719 54.84089844 -7.06007812 54.47867188 -7.78125 54.10546875 C-11.23575765 49.69605655 -9.12036389 41.33550301 -8.5116272 36.04615784 C-8.40853241 35.20205856 -8.30543762 34.35795929 -8.19921875 33.48828125 C-8.09298187 32.59572128 -7.986745 31.70316132 -7.87728882 30.78355408 C-7.65304474 28.91518435 -7.42601101 27.04714748 -7.19628906 25.17944336 C-6.84578533 22.31282356 -6.51040427 19.44468369 -6.17578125 16.57617188 C-5.95533896 14.75509772 -5.73401655 12.93412984 -5.51171875 11.11328125 C-5.41267242 10.25501236 -5.3136261 9.39674347 -5.21157837 8.51246643 C-4.20018233 0.50195501 -4.20018233 0.50195501 0 0 Z " fill="#0C0C0C" transform="translate(135.22265625,209.734375)"/>
<path d="M0 0 C1.50507583 0.26442715 3.01028384 0.52810316 4.515625 0.79101562 C7.49858723 1.3136631 10.47893568 1.8487034 13.45800781 2.39306641 C16.41642652 2.93244074 19.37794669 3.43630831 22.34667969 3.91552734 C23.77019116 4.15587198 25.19369412 4.39626701 26.6171875 4.63671875 C28.49833252 4.94162231 28.49833252 4.94162231 30.41748047 5.25268555 C35.20625778 6.54743405 38.62295611 8.64331253 41.75 12.5 C43.6823689 17.11621459 43.41876454 20.7279215 41.6875 25.375 C39.60631304 28.60442805 38.15882174 30.16404848 34.875 32.1875 C31.63164042 32.70047462 28.46229226 32.61039985 25.1875 32.5 C24.29135986 32.48670654 23.39521973 32.47341309 22.47192383 32.4597168 C17.95835337 32.36976576 13.53949567 32.10986938 9.0625 31.5 C4.41549187 30.94268686 1.8786929 31.7052104 -2.125 34.1875 C-6.7081099 39.46320674 -7.0795537 44.76453576 -7.75 51.5625 C-7.92764893 53.15529785 -7.92764893 53.15529785 -8.10888672 54.78027344 C-8.34697787 56.91566358 -8.57900813 59.05173903 -8.8046875 61.18847656 C-9.24140467 65.27737424 -9.73936666 69.35729645 -10.25 73.4375 C-10.39695312 74.65953125 -10.54390625 75.8815625 -10.6953125 77.140625 C-11.03695915 79.56321031 -11.46186192 81.83743172 -12.125 84.1875 C-17.41611681 82.23473655 -21.52231003 79.28746816 -26.0625 76 C-26.84818359 75.44763672 -27.63386719 74.89527344 -28.44335938 74.32617188 C-34.07328552 70.26979831 -39.86478375 65.96814875 -42.125 59.1875 C-42.85868514 49.99257159 -41.54479843 40.64414521 -40.58081055 31.50683594 C-40.31172976 28.9301242 -40.06082255 26.35203539 -39.81054688 23.7734375 C-39.63912439 22.11446893 -39.46663549 20.45561013 -39.29296875 18.796875 C-39.22095749 18.03630798 -39.14894623 17.27574097 -39.07475281 16.49212646 C-38.23950908 8.91168001 -36.12087748 3.28399586 -30.125 -1.8125 C-20.56849567 -4.99800144 -9.63815388 -1.73720447 0 0 Z " fill="#0E0E0E" transform="translate(129.125,169.8125)"/>
<path d="M0 0 C3.10381033 3.10381033 4.46902 5.28359092 4.6875 9.625 C4.51958766 16.46989732 0.99203585 20.72212012 -2.875 26.125 C-3.72018418 27.41755584 -4.55838557 28.7146967 -5.390625 30.015625 C-6.2603366 31.36463496 -7.13012771 32.71359365 -8 34.0625 C-8.40718262 34.70147217 -8.81436523 35.34044434 -9.23388672 35.9987793 C-12.19530487 40.49939483 -15.00114542 44.51843681 -20.55859375 45.69140625 C-28.91448135 45.67955393 -28.91448135 45.67955393 -32.4375 42.9375 C-35.92116376 38.91788797 -36.84557274 36.83178104 -36.9375 31.5 C-35.96089546 25.54049277 -32.23052687 20.99534206 -28.875 16.125 C-28.02233044 14.81621245 -27.1735628 13.5048769 -26.328125 12.19140625 C-25.44827384 10.83570563 -24.56806799 9.48023513 -23.6875 8.125 C-23.27185791 7.47781006 -22.85621582 6.83062012 -22.42797852 6.16381836 C-19.8290742 2.22310822 -17.50993689 -0.74574133 -13.125 -2.625 C-8.08156583 -3.18538157 -4.20478379 -2.7422503 0 0 Z " fill="#171717" transform="translate(219.875,119.875)"/>
<path d="M0 0 C3.17282395 1.66019858 5.37590133 3.75180266 7 7 C8.32515864 13.76407063 7.5116596 18.91028341 3.82641602 24.64868164 C2.04951621 27.2124802 0.21656952 29.72623974 -1.66601562 32.21337891 C-2.90399824 33.87142371 -4.07254899 35.58069721 -5.234375 37.29296875 C-8.72899769 42.41976987 -11.07066524 45.66739369 -17 48 C-21.31521105 48.53940138 -25.28498475 48.11509885 -28.9765625 45.71484375 C-32.09406848 42.58995031 -33.44088507 39.64627474 -33.8125 35.25 C-33.39613426 28.70710975 -29.76934651 24.14068463 -26 19 C-24.76915111 17.23033551 -23.53991534 15.45954768 -22.3125 13.6875 C-21.44625 12.46933594 -21.44625 12.46933594 -20.5625 11.2265625 C-19.25678609 9.36592018 -18.02434109 7.48440423 -16.8125 5.5625 C-12.36891867 -0.71980464 -7.31566364 -1.16289451 0 0 Z " fill="#141414" transform="translate(193,93)"/>
<path d="M0 0 C3.30814014 3.27678337 4.63433777 6.30965887 5.0234375 10.9453125 C4.59392042 18.26708045 0.4187904 23.08050559 -3.8515625 28.7578125 C-4.64633549 29.93322264 -5.43268613 31.11436736 -6.2109375 32.30078125 C-6.59967041 32.88811035 -6.98840332 33.47543945 -7.38891602 34.08056641 C-7.76846436 34.65468262 -8.1480127 35.22879883 -8.5390625 35.8203125 C-11.25052746 39.90981633 -13.3415344 42.68867052 -17.8515625 44.7578125 C-22.08714877 45.49758955 -25.78616309 45.22102963 -29.7265625 43.5078125 C-33.13667867 40.69948154 -34.56286413 38.83012075 -35.7265625 34.5078125 C-36.02241619 25.63220193 -30.8560785 19.59525822 -25.8515625 12.7578125 C-24.64215993 10.96686741 -23.4338001 9.17521766 -22.2265625 7.3828125 C-19.35952375 3.29712194 -16.68883972 0.02969539 -12.0390625 -2.0546875 C-7.55166617 -2.43932147 -3.79668019 -2.54713988 0 0 Z " fill="#131313" transform="translate(240.8515625,146.2421875)"/>
<path d="M0 0 C3.80323152 1.40554208 4.79161927 2.66390205 6.9375 6.125 C8.61012733 10.86739043 8.00169348 14.44239824 6 19 C3.34399533 23.58948497 0.30525474 27.92992042 -2.77246094 32.24365234 C-3.96646941 33.95202484 -5.08115267 35.69595656 -6.1953125 37.45703125 C-6.79085937 38.29621094 -7.38640625 39.13539063 -8 40 C-8.66 40 -9.32 40 -10 40 C-10 40.66 -10 41.32 -10 42 C-14.46897021 43.38041524 -17.76609618 44.39578047 -22.3125 42.9375 C-25.94737751 40.31700691 -28.29393807 38.40153959 -29.59375 33.98046875 C-30.68833354 24.81333163 -24.18900832 17.90048439 -19 11 C-18.30132812 10.04609375 -17.60265625 9.0921875 -16.8828125 8.109375 C-11.82410353 1.37890384 -8.53707616 -0.93186395 0 0 Z " fill="#141414" transform="translate(255,175)"/>
<path d="M0 0 C0.66 0.33 1.32 0.66 2 1 C-2.625 6.875 -2.625 6.875 -6 8 C-4.73058503 4.08597051 -3.48832306 2.20927127 0 0 Z " fill="#747474" transform="translate(99,168)"/>
<path d="M0 0 C-1.5830577 4.2742558 -4.50568404 6.26531794 -8 9 C-6.68994234 5.06982701 -4.75047804 0 0 0 Z " fill="#656565" transform="translate(246,176)"/>
<path d="M0 0 C-1.45255699 3.82946843 -3.42895561 5.12050295 -7 7 C-3.86206897 0 -3.86206897 0 0 0 Z " fill="#696969" transform="translate(227,146)"/>
</svg>
