<?xml version="1.0" encoding="UTF-8"?>
<svg version="1.1" xmlns="http://www.w3.org/2000/svg" width="577" height="374">
<path d="M0 0 C2.6179164 2.04479185 4.87523023 4.17953078 7.10546875 6.64453125 C7.69714844 7.25554687 8.28882813 7.8665625 8.8984375 8.49609375 C25.62413844 26.28939262 32.96183976 48.00415858 32.34765625 72.18359375 C31.38977683 93.74062263 23.91407432 111.83891065 9.10546875 127.64453125 C8.34105469 128.47339844 7.57664062 129.30226563 6.7890625 130.15625 C1.34882337 135.85189942 -3.98814113 139.91997571 -10.89453125 143.64453125 C-11.70019531 144.15757812 -12.50585938 144.670625 -13.3359375 145.19921875 C-23.9945931 151.74086692 -37.48685825 154.14980745 -49.89453125 154.64453125 C-51.40080078 154.73927734 -51.40080078 154.73927734 -52.9375 154.8359375 C-72.52374326 155.53464123 -91.39858537 149.60448948 -106.89453125 137.64453125 C-107.7453125 137.0309375 -108.59609375 136.41734375 -109.47265625 135.78515625 C-115.7745965 131.14787946 -115.7745965 131.14787946 -116.390625 128.5625 C-116.64005859 127.61310547 -116.64005859 127.61310547 -116.89453125 126.64453125 C-118.20332599 125.9308937 -119.54066465 125.26844427 -120.89453125 124.64453125 C-136.83539933 108.40639757 -141.84221786 85.65814672 -141.67773438 63.74072266 C-141.27899113 52.37220607 -138.76983402 42.85956713 -133.89453125 32.64453125 C-133.60626465 32.00757324 -133.31799805 31.37061523 -133.02099609 30.71435547 C-129.69948725 23.44673067 -125.54407147 17.60604366 -120.0078125 11.86328125 C-117.83956529 9.66004684 -117.83956529 9.66004684 -115.921875 7.11328125 C-113.84170853 4.58020762 -111.7132645 2.67333967 -109.14453125 0.64453125 C-108.3453125 0.00515625 -107.54609375 -0.63421875 -106.72265625 -1.29296875 C-100.4050983 -5.90024858 -94.19876133 -9.33988112 -86.83203125 -11.98046875 C-86.00566162 -12.27896729 -85.17929199 -12.57746582 -84.32788086 -12.88500977 C-55.1817741 -23.10004227 -24.96274958 -18.2160605 0 0 Z M-36.43041992 46.03515625 C-37.86017869 47.53678578 -39.2299923 49.07266438 -40.58203125 50.64453125 C-45.77377882 56.5280264 -45.77377882 56.5280264 -48.2265625 58.89453125 C-50.12451043 60.48289341 -50.12451043 60.48289341 -49.89453125 62.64453125 C-50.55453125 62.64453125 -51.21453125 62.64453125 -51.89453125 62.64453125 C-53.30264445 64.03364886 -53.30264445 64.03364886 -54.70703125 65.83203125 C-55.24070312 66.46496094 -55.774375 67.09789062 -56.32421875 67.75 C-57.6698814 69.37349847 -59.00230962 71.00795078 -60.33203125 72.64453125 C-62.89453125 74.64453125 -62.89453125 74.64453125 -66.2109375 74.6171875 C-71.2528139 73.28587549 -73.51166462 70.33644278 -76.7109375 66.50585938 C-79.35504656 63.56496257 -80.59272446 62.67998157 -84.5859375 62.2109375 C-87.89385012 62.41503846 -87.89385012 62.41503846 -90.33203125 64.14453125 C-92.09412003 66.9638733 -92.65393571 69.1766495 -92.45703125 72.51171875 C-91.30310498 76.88702254 -88.09476108 79.61011643 -84.89453125 82.64453125 C-84.01410156 83.48628906 -83.13367188 84.32804687 -82.2265625 85.1953125 C-79.49578101 87.73776423 -76.71959124 90.20755188 -73.89453125 92.64453125 C-73.21777344 93.23234375 -72.54101562 93.82015625 -71.84375 94.42578125 C-69.10394288 96.61276697 -67.52304371 97.67726082 -63.96435547 97.49194336 C-60.49130799 96.53322316 -59.09148617 95.44952067 -56.58984375 92.8984375 C-55.8421875 92.14369141 -55.09453125 91.38894531 -54.32421875 90.61132812 C-53.56367188 89.81791016 -52.803125 89.02449219 -52.01953125 88.20703125 C-51.23578125 87.41748047 -50.45203125 86.62792969 -49.64453125 85.81445312 C-45.5701585 82.29702867 -45.5701585 82.29702867 -43.89453125 77.64453125 C-43.23453125 77.64453125 -42.57453125 77.64453125 -41.89453125 77.64453125 C-41.89453125 76.98453125 -41.89453125 76.32453125 -41.89453125 75.64453125 C-41.23453125 75.64453125 -40.57453125 75.64453125 -39.89453125 75.64453125 C-38.49630154 74.26161106 -38.49630154 74.26161106 -37.01953125 72.39453125 C-33.25943972 67.94283726 -29.18129263 63.89140951 -24.98291016 59.85839844 C-21.24529835 56.21806182 -21.24529835 56.21806182 -18.89453125 51.64453125 C-19.04469954 48.04049223 -19.47039254 46.18567374 -21.70703125 43.33203125 C-27.29652748 39.02013416 -31.56684501 41.63157611 -36.43041992 46.03515625 Z " fill="#6CBE67" transform="translate(422.89453125,194.35546875)"/>
<path d="M0 0 C0.71162292 -0.00807175 1.42324585 -0.01614349 2.15643311 -0.02445984 C3.66269511 -0.03827923 5.16898815 -0.04901097 6.67529297 -0.05688477 C8.20761359 -0.0683877 9.73989468 -0.0888131 11.27197266 -0.1184082 C13.4940901 -0.1613164 15.71501845 -0.17728576 17.9375 -0.1875 C18.95194183 -0.21376213 18.95194183 -0.21376213 19.98687744 -0.24055481 C25.36553179 -0.21636377 28.35914889 1.37240178 32.734375 4.23828125 C33.05907959 8.37826474 33.1648163 10.57827126 30.859375 14.11328125 C27.31495395 17.6577023 24.31439952 17.43896338 19.5390625 17.5546875 C18.83161896 17.5754686 18.12417542 17.59624969 17.39529419 17.61766052 C15.13342075 17.68309203 12.87143038 17.74201099 10.609375 17.80078125 C9.07681078 17.84397258 7.54425843 17.88758707 6.01171875 17.93164062 C2.25272427 18.0387668 -1.50638792 18.14005215 -5.265625 18.23828125 C-6.20388989 21.41251709 -6.38701748 24.25343907 -6.37915039 27.55761719 C-6.37903709 29.14881378 -6.37903709 29.14881378 -6.37892151 30.77215576 C-6.37376022 31.91082092 -6.36859894 33.04948608 -6.36328125 34.22265625 C-6.3618663 35.39338684 -6.36045135 36.56411743 -6.35899353 37.77032471 C-6.3533959 41.50966954 -6.3408438 45.24895451 -6.328125 48.98828125 C-6.3231097 51.52343664 -6.31854684 54.05859296 -6.31445312 56.59375 C-6.30342724 62.80861418 -6.28669144 69.02344344 -6.265625 75.23828125 C-5.07071316 75.23735946 -3.87580132 75.23643766 -2.64468002 75.23548794 C25.754292 75.213805 54.15326381 75.19732819 82.55224229 75.18721592 C86.05175529 75.18596529 89.55126828 75.18467096 93.05078125 75.18334961 C93.74743738 75.1830873 94.44409351 75.18282499 95.16186044 75.18255473 C106.42491199 75.17820979 117.68795841 75.17032871 128.95100692 75.16112845 C140.51787159 75.1517592 152.08473327 75.14629351 163.65160155 75.14419276 C170.14432894 75.14289088 176.63704471 75.13983811 183.12976837 75.13255119 C189.24623157 75.12574245 195.36267842 75.12367416 201.47914505 75.12517357 C203.71878524 75.12489942 205.958426 75.12292319 208.1980629 75.11907578 C229.9382723 75.08357407 229.9382723 75.08357407 239.734375 76.23828125 C239.64921571 68.97115967 239.55523248 61.70424235 239.44684792 54.43742561 C239.39685602 51.06330621 239.35052663 47.68921856 239.3125 44.31494141 C239.26700172 40.43763496 239.20898221 36.56069073 239.1484375 32.68359375 C239.13111069 30.86168015 239.13111069 30.86168015 239.11343384 29.00296021 C239.0836293 27.32144363 239.0836293 27.32144363 239.05322266 25.60595703 C239.03323715 24.12036789 239.03323715 24.12036789 239.0128479 22.60476685 C238.96010054 20.0509243 238.96010054 20.0509243 236.734375 18.23828125 C233.90328658 17.9152913 233.90328658 17.9152913 230.58984375 17.9296875 C229.35556641 17.90455078 228.12128906 17.87941406 226.84960938 17.85351562 C224.24288617 17.81851735 221.63611031 17.7872333 219.02929688 17.75976562 C217.79115234 17.73333984 216.55300781 17.70691406 215.27734375 17.6796875 C214.14321045 17.66623291 213.00907715 17.65277832 211.84057617 17.63891602 C208.37683238 17.19216575 206.51463775 16.32079821 203.734375 14.23828125 C201.734375 11.23828125 201.734375 11.23828125 201.796875 7.80078125 C202.93856888 3.46234449 203.97989491 2.58605955 207.734375 0.23828125 C211.11254883 -0.26342773 211.11254883 -0.26342773 214.94140625 -0.2578125 C215.62563156 -0.25926773 216.30985687 -0.26072296 217.01481628 -0.26222229 C218.457919 -0.26056826 219.90104026 -0.2490624 221.34399414 -0.22827148 C223.53024019 -0.19943814 225.71403791 -0.2076466 227.90039062 -0.22070312 C236.35630419 -0.20740186 243.01404124 0.38412596 250.421875 4.86328125 C257.96610098 12.61140523 258.89221456 21.12445948 258.86376953 31.58862305 C258.86639801 32.7948381 258.86639801 32.7948381 258.86907959 34.02542114 C258.87345318 36.66280321 258.87057686 39.30011734 258.8671875 41.9375 C258.86786163 43.77879347 258.86883257 45.62008684 258.87008667 47.46138 C258.87155738 51.31028088 258.8694285 55.15915848 258.86474609 59.00805664 C258.85903712 63.94101396 258.86233916 68.87391701 258.86831856 73.80687237 C258.87193081 77.6046642 258.87078273 81.40244315 258.86819077 85.20023537 C258.86752396 87.01950906 258.86834131 88.83878393 258.87067032 90.65805626 C258.87320902 93.19744347 258.86933954 95.73674242 258.86376953 98.27612305 C258.86579376 99.02685593 258.86781799 99.77758881 258.86990356 100.55107117 C258.85620979 103.92013189 258.788846 107.01779115 257.734375 110.23828125 C251.55054264 108.99566718 245.689907 107.31799084 239.734375 105.23828125 C239.404375 101.60828125 239.074375 97.97828125 238.734375 94.23828125 C157.554375 93.90828125 76.374375 93.57828125 -7.265625 93.23828125 C-7.1625 116.44140625 -7.059375 139.64453125 -6.953125 163.55078125 C-6.92822998 170.88466064 -6.90333496 178.21854004 -6.87768555 185.7746582 C-6.84113307 192.33298165 -6.84113307 192.33298165 -6.8006134 198.89128113 C-6.78263357 201.81866569 -6.77306142 204.74594994 -6.76850891 207.67338562 C-6.76243437 211.40420947 -6.74215757 215.13469899 -6.71146357 218.86539876 C-6.69844471 220.88505331 -6.70012091 222.90478608 -6.70231915 224.92448139 C-6.68979012 226.11252463 -6.6772611 227.30056787 -6.66435242 228.52461243 C-6.65974345 229.56162953 -6.65513449 230.59864664 -6.65038586 231.66708851 C-6.45090407 234.23958517 -6.45090407 234.23958517 -5.050354 236.07046509 C-2.68719545 237.61676973 -1.12975802 237.62240491 1.68876648 237.63700867 C2.71100311 237.64954681 3.73323975 237.66208496 4.78645325 237.67500305 C5.90710678 237.67356796 7.02776031 237.67213287 8.18237305 237.6706543 C9.36299316 237.68084595 10.54361328 237.6910376 11.76000977 237.70153809 C14.99739593 237.72657467 18.23450963 237.73839776 21.471977 237.74439216 C24.85531579 237.75376574 28.23852285 237.77996823 31.6217804 237.80439758 C38.02840289 237.84809441 44.43499987 237.87662172 50.84172612 237.89972097 C58.13556567 237.92675566 65.42927291 237.97066817 72.72301805 238.01600969 C87.72673242 238.10890147 102.73048102 238.18056136 117.734375 238.23828125 C123.29018366 248.61185756 123.29018366 248.61185756 123.734375 254.23828125 C106.53153304 254.33182564 89.32877073 254.40230982 72.12573242 254.44552994 C64.13760869 254.46613342 56.14964323 254.49421144 48.16162109 254.54003906 C41.19723495 254.57997491 34.23296346 254.60573016 27.268466 254.61463523 C23.58259063 254.61983863 19.8970432 254.63202169 16.21127319 254.66120148 C12.09122321 254.69355322 7.97173917 254.69423635 3.8515625 254.69238281 C2.63667648 254.70676392 1.42179047 254.72114502 0.17008972 254.73596191 C-7.25937256 254.6998122 -13.30970191 254.026449 -18.85110474 248.72003555 C-22.265625 244.84148021 -22.265625 244.84148021 -22.265625 242.23828125 C-22.925625 241.90828125 -23.585625 241.57828125 -24.265625 241.23828125 C-25.18131435 238.54362401 -25.39729328 236.03120646 -25.42384338 233.20031738 C-25.43852756 232.00346959 -25.43852756 232.00346959 -25.45350838 230.78244305 C-25.45926321 229.91257668 -25.46501804 229.04271032 -25.47094727 228.14648438 C-25.4808412 227.2189652 -25.49073513 226.29144602 -25.50092888 225.3358202 C-25.5327229 222.23041675 -25.55746418 219.12499969 -25.58203125 216.01953125 C-25.60278874 213.80885007 -25.62387868 211.598172 -25.64527893 209.38749695 C-25.70148964 203.41315302 -25.75085927 197.43877136 -25.79825592 191.46435165 C-25.82806534 187.74572406 -25.85945884 184.02711294 -25.89129639 180.3085022 C-26.18015399 146.33330388 -26.37000756 112.35832844 -26.38856125 78.38186646 C-26.39061249 75.44370243 -26.39436403 72.50554462 -26.39846802 69.56738281 C-26.40433708 64.95119478 -26.40447069 60.33504041 -26.40000725 55.71885109 C-26.3989876 54.0542789 -26.39948694 52.38970484 -26.40176582 50.7251339 C-26.41117355 42.46326372 -26.30051699 34.21866218 -25.88623047 25.96606445 C-25.84150195 24.92304688 -25.84150195 24.92304688 -25.79586983 23.85895824 C-25.46926155 18.19866646 -24.02968965 14.14226692 -21.265625 9.23828125 C-20.605625 9.23828125 -19.945625 9.23828125 -19.265625 9.23828125 C-19.08 8.66078125 -18.894375 8.08328125 -18.703125 7.48828125 C-14.63966487 1.12808278 -6.99064655 0.07545306 0 0 Z " fill="#3F3F3F" transform="translate(148.265625,52.76171875)"/>
<path d="M0 0 C4.40874813 4.29852943 5.64658589 8.61984691 5.88818359 14.61914062 C5.90784342 16.61058298 5.91036753 18.60224634 5.8984375 20.59375 C5.90130768 21.65484985 5.90417786 22.71594971 5.90713501 23.8092041 C5.90916965 26.04484595 5.90368193 28.28050584 5.89111328 30.51611328 C5.87505174 33.92651399 5.89098309 37.33572964 5.91015625 40.74609375 C5.90817371 42.92448177 5.90432982 45.10286905 5.8984375 47.28125 C5.90451019 48.29497681 5.91058289 49.30870361 5.9168396 50.35314941 C5.8596518 56.14598771 5.33066983 60.33974032 2.5 65.4375 C-2.14998222 69.23090655 -7.59803957 68.92847338 -13.35546875 68.796875 C-17.75859539 68.29366053 -20.04516526 67.185664 -23.5 64.4375 C-24.51003031 61.40740908 -24.64421646 59.31491701 -24.67700195 56.14331055 C-24.68983719 55.06176193 -24.70267242 53.98021332 -24.71589661 52.8658905 C-24.72328354 51.69713882 -24.73067047 50.52838715 -24.73828125 49.32421875 C-24.746353 48.12191116 -24.75442474 46.91960358 -24.76274109 45.68086243 C-24.77657972 43.13466839 -24.78730286 40.58845583 -24.79516602 38.04223633 C-24.81238563 34.15084677 -24.85627647 30.26030518 -24.90039062 26.36914062 C-24.91051697 23.89583958 -24.91903325 21.42253132 -24.92578125 18.94921875 C-24.94328934 17.78653976 -24.96079742 16.62386078 -24.97883606 15.4259491 C-24.96202829 9.15798221 -24.84888527 5.13373873 -20.5 0.4375 C-14.38027825 -2.84625313 -6.24767352 -2.78913996 0 0 Z " fill="#3E3E3E" transform="translate(333.5,27.5625)"/>
<path d="M0 0 C3.36195272 2.03117977 4.29933981 3.32808687 6 6.8125 C6.36749268 9.4815979 6.36749268 9.4815979 6.35644531 12.38134766 C6.35944641 13.47242828 6.36244751 14.56350891 6.36553955 15.68765259 C6.35319275 16.85549286 6.34084595 18.02333313 6.328125 19.2265625 C6.32625183 20.43315521 6.32437866 21.63974792 6.32244873 22.88290405 C6.3157337 25.42977671 6.30183019 27.97663914 6.28125 30.5234375 C6.2500616 34.42978458 6.24027451 38.33572817 6.234375 42.2421875 C6.22520617 44.71615077 6.21483078 47.19010993 6.203125 49.6640625 C6.19675018 51.4218956 6.19675018 51.4218956 6.19024658 53.21524048 C6.18063904 54.30001678 6.17103149 55.38479309 6.16113281 56.50244141 C6.15430481 57.45776764 6.14747681 58.41309387 6.14044189 59.39736938 C6 61.8125 6 61.8125 5 64.8125 C-0.10757374 68.28565014 -4.64145666 70.36367766 -11.0078125 69.55859375 C-13.08279613 69.12071698 -15.00414695 68.52616867 -17 67.8125 C-18.155 67.4 -19.31 66.9875 -20.5 66.5625 C-24.31291404 62.36829455 -23.44548416 58.20713031 -23.2109375 52.734375 C-23.14132813 51.77015625 -23.07171875 50.8059375 -23 49.8125 C-23.66 49.8125 -24.32 49.8125 -25 49.8125 C-25 45.5225 -25 41.2325 -25 36.8125 C-24.34 36.8125 -23.68 36.8125 -23 36.8125 C-23.14120714 34.87465735 -23.28812873 32.93723045 -23.4375 31 C-23.51871094 29.92105469 -23.59992188 28.84210937 -23.68359375 27.73046875 C-23.90212461 24.75260095 -23.90212461 24.75260095 -25 21.8125 C-24.67 21.1525 -24.34 20.4925 -24 19.8125 C-23.75212983 15.66746339 -23.75212983 15.66746339 -25 11.8125 C-24.34 11.8125 -23.68 11.8125 -23 11.8125 C-23.00902344 11.20921875 -23.01804688 10.6059375 -23.02734375 9.984375 C-22.93323425 7.44751018 -22.69425738 5.25712751 -22 2.8125 C-15.9626928 -2.56857816 -7.46880698 -2.75333139 0 0 Z " fill="#3C3C3C" transform="translate(214,27.1875)"/>
<path d="M0 0 C1.20184937 -0.00004028 2.40369873 -0.00008057 3.64196777 -0.00012207 C6.18047318 0.0052343 8.71897809 0.02282163 11.25732422 0.05175781 C15.14211731 0.09359779 19.02517592 0.09282664 22.91015625 0.0859375 C25.37761621 0.09643051 27.84506724 0.1093692 30.3125 0.125 C31.47406616 0.12520142 32.63563232 0.12540283 33.83239746 0.12561035 C34.91702271 0.14152222 36.00164795 0.15743408 37.11914062 0.17382812 C38.07002563 0.18224731 39.02091064 0.1906665 40.00061035 0.19934082 C43.85441724 0.7716989 46.66712173 2.28989909 49.03125 5.40625 C49.92833761 8.54605664 49.62863994 10.48210221 48.65625 13.59375 C46.41896472 16.31428151 44.57500968 17.46340276 41.07348633 17.96017456 C37.74028434 18.10820779 34.43013243 18.12151485 31.09375 18.08984375 C29.86970459 18.09129898 28.64565918 18.09275421 27.38452148 18.09425354 C24.79896665 18.09259502 22.2134019 18.08103924 19.62792969 18.06030273 C15.67079727 18.03135641 11.71500519 18.03969463 7.7578125 18.05273438 C5.24478516 18.04649666 2.73176204 18.03810547 0.21875 18.02734375 C-0.96468994 18.03027939 -2.14812988 18.03321503 -3.36743164 18.03623962 C-4.47207764 18.02355545 -5.57672363 18.01087128 -6.71484375 17.99780273 C-7.68349365 17.99239975 -8.65214355 17.98699677 -9.65014648 17.98143005 C-12.845093 17.52159362 -14.75302684 16.49283254 -17.34375 14.59375 C-18.0078125 12.5078125 -18.0078125 12.5078125 -17.96875 10.21875 C-17.98164063 9.46851563 -17.99453125 8.71828125 -18.0078125 7.9453125 C-15.46833303 -1.04743245 -7.82349801 -0.11042704 0 0 Z " fill="#464646" transform="translate(248.34375,52.40625)"/>
<path d="M0 0 C82.83 0 165.66 0 251 0 C251.33 4.29 251.66 8.58 252 13 C252.99 13.99 252.99 13.99 254 15 C252.35 14.67 250.7 14.34 249 14 C248.67 10.37 248.34 6.74 248 3 C166.82 2.67 85.64 2.34 2 2 C2.103125 25.203125 2.20625 48.40625 2.3125 72.3125 C2.33739502 79.64637939 2.36229004 86.98025879 2.38793945 94.53637695 C2.42449193 101.0947004 2.42449193 101.0947004 2.4650116 107.65299988 C2.48299143 110.58038444 2.49256358 113.50766869 2.49711609 116.43510437 C2.50319063 120.16592822 2.52346743 123.89641774 2.55416143 127.62711751 C2.56718029 129.64677206 2.56550409 131.66650483 2.56330585 133.68620014 C2.57583488 134.87424338 2.5883639 136.06228662 2.60127258 137.28633118 C2.60588155 138.32334828 2.61049051 139.36036539 2.61523914 140.42880726 C2.81472093 143.00130392 2.81472093 143.00130392 4.215271 144.83218384 C6.57842955 146.37848848 8.13586698 146.38412366 10.95439148 146.39872742 C11.97662811 146.41126556 12.99886475 146.42380371 14.05207825 146.4367218 C15.17273178 146.43528671 16.29338531 146.43385162 17.44799805 146.43237305 C18.62861816 146.4425647 19.80923828 146.45275635 21.02563477 146.46325684 C24.26302093 146.48829342 27.50013463 146.50011651 30.737602 146.50611091 C34.12094079 146.51548449 37.50414785 146.54168698 40.8874054 146.56611633 C47.29402789 146.60981316 53.70062487 146.63834047 60.10735112 146.66143972 C67.40119067 146.68847441 74.69489791 146.73238692 81.98864305 146.77772844 C96.99235742 146.87062022 111.99610602 146.94228011 127 147 C127 147.33 127 147.66 127 148 C111.01462582 148.0700405 95.02930132 148.12296376 79.04381084 148.15543652 C71.62168439 148.17091406 64.1996532 148.19202041 56.77758789 148.22631836 C50.30949762 148.2561937 43.84147632 148.27556855 37.37331897 148.28226548 C33.94755536 148.28618095 30.52198912 148.29540093 27.09628868 148.31719017 C23.27468505 148.34130103 19.45327558 148.34197119 15.6315918 148.34057617 C14.49223679 148.351362 13.35288177 148.36214783 12.17900085 148.3732605 C10.62040344 148.36707451 10.62040344 148.36707451 9.03031921 148.36076355 C7.67390084 148.36491162 7.67390084 148.36491162 6.29008007 148.36914349 C3.51457074 147.9217525 2.668737 147.22606861 1 145 C-0.05914546 141.82256362 -0.12320043 139.58608213 -0.12025452 136.24836731 C-0.12163201 135.05192754 -0.12300951 133.85548777 -0.12442875 132.62279224 C-0.12083064 131.3032791 -0.11723253 129.98376596 -0.11352539 128.62426758 C-0.11321909 127.20215451 -0.11335248 125.78004128 -0.11389065 124.35792828 C-0.11411662 120.54585438 -0.1083162 116.7338118 -0.10128021 112.9217453 C-0.09558987 109.34606323 -0.09531734 105.77038883 -0.09460449 102.19470215 C-0.0893549 91.73396394 -0.07539378 81.27323158 -0.0625 70.8125 C-0.041875 47.444375 -0.02125 24.07625 0 0 Z " fill="#A3A3A3" transform="translate(139,144)"/>
<path d="M0 0 C12.87 0 25.74 0 39 0 C41.02168235 4.0433647 41.35927761 6.32129345 41.625 10.75 C41.69976562 11.92046875 41.77453125 13.0909375 41.8515625 14.296875 C41.90054688 15.18890625 41.94953125 16.0809375 42 17 C37.86674244 18.14970661 33.85021882 18.17996239 29.5859375 18.203125 C28.77508698 18.20882507 27.96423645 18.21452515 27.1288147 18.22039795 C25.419223 18.22982376 23.70961332 18.2363723 22 18.24023438 C19.37728775 18.24999149 16.75534269 18.28105715 14.1328125 18.3125 C12.47135882 18.31902547 10.80989954 18.32427773 9.1484375 18.328125 C8.36197845 18.3404718 7.57551941 18.3528186 6.76522827 18.36553955 C4.56005859 18.35644531 4.56005859 18.35644531 1 18 C-1.31861878 14.52207183 -1.24272927 13.09700748 -1.1875 9 C-1.18105469 7.948125 -1.17460937 6.89625 -1.16796875 5.8125 C-1 3 -1 3 0 0 Z " fill="#404040" transform="translate(216,247)"/>
<path d="M0 0 C2.95611059 -0.29152022 5.69941045 -0.39583639 8.65625 -0.36328125 C9.94335876 -0.36402901 9.94335876 -0.36402901 11.25646973 -0.36479187 C13.07220778 -0.36244945 14.88794896 -0.35271102 16.70361328 -0.33618164 C19.48890095 -0.31259399 22.27323166 -0.31561857 25.05859375 -0.32226562 C26.82031823 -0.3166889 28.58203866 -0.30957905 30.34375 -0.30078125 C31.18023071 -0.30169266 32.01671143 -0.30260406 32.87854004 -0.30354309 C38.76898021 -0.23101979 38.76898021 -0.23101979 41 2 C41.30078125 4.42578125 41.30078125 4.42578125 41.3125 7.3125 C41.32925781 8.25738281 41.34601563 9.20226562 41.36328125 10.17578125 C40.91073455 13.6939669 40.33116159 15.2951793 38 18 C34.87273258 18.45276149 32.29581572 18.58441015 29.17578125 18.48828125 C28.31438034 18.48120651 27.45297943 18.47413177 26.56547546 18.46684265 C23.81360087 18.43884839 21.06375967 18.37610323 18.3125 18.3125 C16.44729501 18.28742352 14.58205813 18.26460921 12.71679688 18.24414062 C8.14374752 18.18900551 3.5722185 18.10270033 -1 18 C-2.90792778 14.49481339 -3.16380326 12.43941313 -2.75 8.4375 C-2.66234375 7.48746094 -2.5746875 6.53742188 -2.484375 5.55859375 C-2 3 -2 3 0 0 Z " fill="#3D3D3D" transform="translate(217,205)"/>
<path d="M0 0 C2.06932003 -0.009827 4.13769403 -0.04098608 6.20678711 -0.07226562 C7.51454102 -0.07742187 8.82229492 -0.08257812 10.16967773 -0.08789062 C11.95498901 -0.10190918 11.95498901 -0.10190918 13.77636719 -0.11621094 C16.74389648 0.24023438 16.74389648 0.24023438 18.63427734 1.58496094 C20.32610791 4.10874779 20.06731314 6.24483476 19.99389648 9.24023438 C19.97842773 10.29210937 19.96295898 11.34398437 19.94702148 12.42773438 C19.74389648 15.24023438 19.74389648 15.24023438 18.74389648 18.24023438 C13.24464227 18.28964367 7.74551706 18.32595832 2.24609375 18.35009766 C0.37497711 18.36016004 -1.4961238 18.37381129 -3.3671875 18.39111328 C-6.05545942 18.41535121 -8.74352358 18.42671501 -11.43188477 18.43554688 C-12.2694783 18.44586945 -13.10707184 18.45619202 -13.970047 18.46682739 C-19.9144884 18.46797779 -19.9144884 18.46797779 -23.25610352 16.24023438 C-23.54907227 13.20117188 -23.54907227 13.20117188 -23.44360352 9.61523438 C-23.4165332 8.42671875 -23.38946289 7.23820313 -23.36157227 6.01367188 C-23.32676758 5.0984375 -23.29196289 4.18320313 -23.25610352 3.24023438 C-22.59610352 3.24023438 -21.93610352 3.24023438 -21.25610352 3.24023438 C-21.25610352 2.58023438 -21.25610352 1.92023438 -21.25610352 1.24023438 C-14.18111778 0.11404923 -7.15619433 0.02060078 0 0 Z " fill="#3A3A3A" transform="translate(180.256103515625,162.759765625)"/>
<path d="M0 0 C5.51754805 -0.07402793 11.03480856 -0.12854366 16.55273438 -0.16479492 C18.43071526 -0.17990325 20.30866076 -0.20039094 22.18652344 -0.22631836 C24.88225019 -0.26261246 27.57751146 -0.27970545 30.2734375 -0.29296875 C31.53756973 -0.31619453 31.53756973 -0.31619453 32.82723999 -0.33988953 C35.19287109 -0.34057617 35.19287109 -0.34057617 39 0 C41.29783606 3.44675409 41.29754883 4.93328112 41.3125 9 C41.32925781 10.051875 41.34601563 11.10375 41.36328125 12.1875 C41 15 41 15 39.99926758 16.65527344 C36.80452887 18.80408536 33.36627831 18.38617853 29.6484375 18.328125 C28.83380035 18.32625183 28.01916321 18.32437866 27.17984009 18.32244873 C25.46002095 18.31573109 23.74021702 18.30182222 22.02050781 18.28125 C19.37811199 18.25003676 16.73631207 18.24027358 14.09375 18.234375 C12.42447184 18.22520743 10.75519978 18.21483244 9.0859375 18.203125 C8.29118011 18.19887512 7.49642273 18.19462524 6.67758179 18.19024658 C1.11716689 18.11716689 1.11716689 18.11716689 0 17 C-0.26309771 14.71397321 -0.46071865 12.4202452 -0.625 10.125 C-0.72039062 8.86945313 -0.81578125 7.61390625 -0.9140625 6.3203125 C-1 3 -1 3 0 0 Z " fill="#4F4F4F" transform="translate(159,247)"/>
<path d="M0 0 C0.7891127 -0.0033284 1.5782254 -0.0066568 2.39125061 -0.01008606 C4.06152767 -0.01515223 5.73181487 -0.01749448 7.40209961 -0.01733398 C9.9589911 -0.01951957 12.51545057 -0.03767571 15.07226562 -0.05664062 C16.69400894 -0.05957477 18.3157543 -0.06155943 19.9375 -0.0625 C21.08604713 -0.07327827 21.08604713 -0.07327827 22.25779724 -0.08427429 C26.05843398 -0.06789882 27.7942896 0.00739099 31.03515625 2.16796875 C31.36328125 4.59375 31.36328125 4.59375 31.28515625 7.48046875 C31.2696875 8.42535156 31.25421875 9.37023437 31.23828125 10.34375 C31.04482924 13.03347701 30.58779372 15.53297337 30.03515625 18.16796875 C24.53589201 18.19267344 19.03666003 18.21083098 13.53735352 18.22290039 C11.66625404 18.22793154 9.7951585 18.2347571 7.92407227 18.2434082 C5.23582997 18.25552704 2.54763961 18.26120922 -0.140625 18.265625 C-0.97821854 18.27078629 -1.81581207 18.27594757 -2.67878723 18.28126526 C-6.02860117 18.28158939 -8.76430831 18.2348139 -11.96484375 17.16796875 C-12.17096862 11.39647249 -11.70935716 6.69226122 -9.96484375 1.16796875 C-6.8201458 -0.40438023 -3.4526734 0.00500469 0 0 Z " fill="#3C3C3C" transform="translate(225.96484375,162.83203125)"/>
<path d="M0 0 C0.72256485 0.00141495 1.4451297 0.0028299 2.18959045 0.00428772 C4.4714899 0.009834 6.75328704 0.02237605 9.03515625 0.03515625 C10.59309753 0.04017821 12.15104037 0.04473989 13.70898438 0.04882812 C17.50524706 0.05978575 21.30143438 0.07701253 25.09765625 0.09765625 C26.1620106 3.2907193 26.29830978 5.74209621 26.34765625 9.09765625 C26.3734375 10.14953125 26.39921875 11.20140625 26.42578125 12.28515625 C26.09765625 15.09765625 26.09765625 15.09765625 25.10131836 16.75512695 C21.89291334 18.90487951 18.43906354 18.46334158 14.7109375 18.390625 C13.89392868 18.38638016 13.07691986 18.38213531 12.2351532 18.37776184 C9.62648518 18.36097316 7.01859063 18.32332144 4.41015625 18.28515625 C2.6412872 18.27010962 0.87240604 18.25642117 -0.89648438 18.24414062 C-5.23206871 18.21106911 -9.56707511 18.15928615 -13.90234375 18.09765625 C-14.23234375 17.10765625 -14.56234375 16.11765625 -14.90234375 15.09765625 C-15.56234375 15.09765625 -16.22234375 15.09765625 -16.90234375 15.09765625 C-16.24234375 10.47765625 -15.58234375 5.85765625 -14.90234375 1.09765625 C-9.78740458 0.36695065 -5.11136304 -0.03847307 0 0 Z " fill="#3A3A3A" transform="translate(173.90234375,204.90234375)"/>
<path d="M0 0 C2.22537571 -0.00217913 4.45024955 -0.02032501 6.67553711 -0.03930664 C8.10066563 -0.04224236 9.5257965 -0.04422596 10.95092773 -0.04516602 C12.88609253 -0.05132935 12.88609253 -0.05132935 14.86035156 -0.05761719 C18.39020658 0.1825008 21.14780176 0.90738199 24.43139648 2.18530273 C25.22271969 7.1970164 25.22271969 7.1970164 24.43139648 10.18530273 C21.73660646 12.99772248 18.68351997 15.06435264 15.43139648 17.18530273 C14.93639648 17.68030273 14.93639648 17.68030273 14.43139648 18.18530273 C12.21284384 18.27313815 9.99151152 18.29224882 7.77124023 18.28295898 C6.77454063 18.28083656 6.77454063 18.28083656 5.75770569 18.27867126 C3.62805749 18.27305792 1.49851309 18.26050327 -0.63110352 18.24780273 C-2.07185721 18.24278945 -3.51261255 18.23822624 -4.95336914 18.23413086 C-8.49181454 18.22308418 -12.0301989 18.20581065 -15.56860352 18.18530273 C-17.84635603 12.71068478 -18.01736467 8.68563973 -17.25610352 2.74780273 C-17.02922852 2.23217773 -16.80235352 1.71655273 -16.56860352 1.18530273 C-11.2720631 -0.58021074 -5.54692924 -0.00060922 0 0 Z " fill="#3D3D3D" transform="translate(289.568603515625,162.814697265625)"/>
<path d="M0 0 C0.66 0.33 1.32 0.66 2 1 C-1.58246243 4.41926136 -4.55124215 4.41569925 -9.390625 4.51171875 C-10.44754547 4.53864555 -10.44754547 4.53864555 -11.52581787 4.56611633 C-13.76715179 4.62011858 -16.00827405 4.65408088 -18.25 4.6875 C-19.77346689 4.72068218 -21.29690589 4.75517269 -22.8203125 4.79101562 C-26.5466716 4.87583738 -30.27310463 4.94269724 -34 5 C-34.93826489 8.17423584 -35.12139248 11.01515782 -35.11352539 14.31933594 C-35.11344986 15.38013367 -35.11337433 16.4409314 -35.11329651 17.53387451 C-35.10813522 18.67253967 -35.10297394 19.81120483 -35.09765625 20.984375 C-35.0962413 22.15510559 -35.09482635 23.32583618 -35.09336853 24.53204346 C-35.0877709 28.27138829 -35.0752188 32.01067326 -35.0625 35.75 C-35.0574847 38.28515539 -35.05292184 40.82031171 -35.04882812 43.35546875 C-35.03780224 49.57033293 -35.02106644 55.78516219 -35 62 C-33.80508816 61.99907821 -32.61017632 61.99815641 -31.37905502 61.99720669 C-2.980083 61.97552375 25.41888881 61.95904694 53.81786729 61.94893467 C57.31738029 61.94768404 60.81689328 61.94638971 64.31640625 61.94506836 C65.01306238 61.94480605 65.70971851 61.94454374 66.42748544 61.94427348 C77.69053699 61.93992854 88.95358341 61.93204746 100.21663192 61.9228472 C111.78349659 61.91347795 123.35035827 61.90801226 134.91722655 61.90591151 C141.40995394 61.90460963 147.90266971 61.90155686 154.39539337 61.89426994 C160.51185657 61.8874612 166.62830342 61.88539291 172.74477005 61.88689232 C174.98441024 61.88661817 177.224051 61.88464194 179.4636879 61.88079453 C201.2038973 61.84529282 201.2038973 61.84529282 211 63 C210.91477677 55.75014997 210.82076209 48.50050311 210.71247292 41.25095654 C210.66252038 37.88471284 210.61619053 34.51850037 210.578125 31.15209961 C210.53257165 27.2822002 210.47456059 23.41265975 210.4140625 19.54296875 C210.39673569 17.72879707 210.39673569 17.72879707 210.37905884 15.87797546 C210.3492543 14.19657219 210.3492543 14.19657219 210.31884766 12.48120117 C210.29886215 10.99894295 210.29886215 10.99894295 210.2784729 9.48674011 C210.16446074 6.74981189 210.16446074 6.74981189 208 4 C210.16874252 4.50603992 211.99967627 4.99983813 214 6 C214.03034697 10.41665071 214.04722476 14.83327354 214.0625 19.25 C214.07087891 20.44625 214.07925781 21.6425 214.08789062 22.875 C214.12295898 36.62179495 213.49205932 50.22233915 213 64 C130.17 64 47.34 64 -38 64 C-38 44.86 -38 25.72 -38 6 C-33.53210341 2.64907756 -32.31381855 2.61610495 -26.93359375 2.55859375 C-25.92063988 2.53878197 -25.92063988 2.53878197 -24.88722229 2.51856995 C-22.73727237 2.47779265 -20.58774832 2.45603455 -18.4375 2.4375 C-16.28381065 2.41369037 -14.13052107 2.38555423 -11.97706604 2.34571838 C-10.02580901 2.31026906 -8.074288 2.29036877 -6.12280273 2.27124023 C-2.83601412 2.23779085 -2.83601412 2.23779085 0 0 Z " fill="#CCCCCC" transform="translate(177,66)"/>
<path d="M0 0 C2.06932003 -0.009827 4.13769403 -0.04098608 6.20678711 -0.07226562 C7.51454102 -0.07742187 8.82229492 -0.08257812 10.16967773 -0.08789062 C11.95498901 -0.10190918 11.95498901 -0.10190918 13.77636719 -0.11621094 C16.74389648 0.24023438 16.74389648 0.24023438 18.63427734 1.58496094 C20.32610791 4.10874779 20.06731314 6.24483476 19.99389648 9.24023438 C19.97842773 10.29210937 19.96295898 11.34398437 19.94702148 12.42773438 C19.74389648 15.24023438 19.74389648 15.24023438 18.74389648 18.24023438 C13.24464227 18.28964367 7.74551706 18.32595832 2.24609375 18.35009766 C0.37497711 18.36016004 -1.4961238 18.37381129 -3.3671875 18.39111328 C-6.05545942 18.41535121 -8.74352358 18.42671501 -11.43188477 18.43554688 C-12.2694783 18.44586945 -13.10707184 18.45619202 -13.970047 18.46682739 C-19.9144884 18.46797779 -19.9144884 18.46797779 -23.25610352 16.24023438 C-23.54907227 13.20117188 -23.54907227 13.20117188 -23.44360352 9.61523438 C-23.4165332 8.42671875 -23.38946289 7.23820313 -23.36157227 6.01367188 C-23.32676758 5.0984375 -23.29196289 4.18320313 -23.25610352 3.24023438 C-22.59610352 3.24023438 -21.93610352 3.24023438 -21.25610352 3.24023438 C-21.25610352 2.58023438 -21.25610352 1.92023438 -21.25610352 1.24023438 C-14.18111778 0.11404923 -7.15619433 0.02060078 0 0 Z M-20.25610352 3.24023438 C-21.56775193 5.86353121 -21.38873197 7.87722062 -21.38110352 10.80273438 C-21.38368164 11.79402344 -21.38625977 12.7853125 -21.38891602 13.80664062 C-21.53048782 16.18835785 -21.53048782 16.18835785 -20.25610352 17.24023438 C-17.60154158 17.34119002 -14.97355176 17.37994436 -12.31860352 17.37304688 C-11.12569702 17.37448196 -11.12569702 17.37448196 -9.90869141 17.37594604 C-8.22403891 17.37662781 -6.5393838 17.3747738 -4.85473633 17.37060547 C-2.26711155 17.36525713 0.32033964 17.37055056 2.90795898 17.37695312 C4.54077187 17.37629234 6.17358465 17.37501118 7.80639648 17.37304688 C8.5855542 17.37507111 9.36471191 17.37709534 10.16748047 17.37918091 C13.75183848 17.69863017 13.75183848 17.69863017 16.74389648 16.24023438 C16.74389648 11.95023438 16.74389648 7.66023437 16.74389648 3.24023438 C4.53389648 3.24023438 -7.67610352 3.24023438 -20.25610352 3.24023438 Z " fill="#9C9C9C" transform="translate(180.256103515625,162.759765625)"/>
<path d="M0 0 C0.72256485 0.00141495 1.4451297 0.0028299 2.18959045 0.00428772 C4.4714899 0.009834 6.75328704 0.02237605 9.03515625 0.03515625 C10.59309753 0.04017821 12.15104037 0.04473989 13.70898438 0.04882812 C17.50524706 0.05978575 21.30143438 0.07701253 25.09765625 0.09765625 C26.1620106 3.2907193 26.29830978 5.74209621 26.34765625 9.09765625 C26.3734375 10.14953125 26.39921875 11.20140625 26.42578125 12.28515625 C26.09765625 15.09765625 26.09765625 15.09765625 25.10131836 16.75512695 C21.89291334 18.90487951 18.43906354 18.46334158 14.7109375 18.390625 C13.89392868 18.38638016 13.07691986 18.38213531 12.2351532 18.37776184 C9.62648518 18.36097316 7.01859063 18.32332144 4.41015625 18.28515625 C2.6412872 18.27010962 0.87240604 18.25642117 -0.89648438 18.24414062 C-5.23206871 18.21106911 -9.56707511 18.15928615 -13.90234375 18.09765625 C-14.23234375 17.10765625 -14.56234375 16.11765625 -14.90234375 15.09765625 C-15.56234375 15.09765625 -16.22234375 15.09765625 -16.90234375 15.09765625 C-16.24234375 10.47765625 -15.58234375 5.85765625 -14.90234375 1.09765625 C-9.78740458 0.36695065 -5.11136304 -0.03847307 0 0 Z M-13.90234375 2.09765625 C-13.90234375 6.71765625 -13.90234375 11.33765625 -13.90234375 16.09765625 C-1.69234375 16.09765625 10.51765625 16.09765625 23.09765625 16.09765625 C23.09765625 11.47765625 23.09765625 6.85765625 23.09765625 2.09765625 C10.88765625 2.09765625 -1.32234375 2.09765625 -13.90234375 2.09765625 Z " fill="#A5A5A5" transform="translate(173.90234375,204.90234375)"/>
<path d="M0 0 C4.92413554 5.35232124 4.14806743 12.48108453 4.12939453 19.3503418 C4.13114685 20.15448517 4.13289917 20.95862854 4.13470459 21.78713989 C4.13907818 24.42452196 4.13620186 27.06183609 4.1328125 29.69921875 C4.13348663 31.54051222 4.13445757 33.38180559 4.13571167 35.22309875 C4.13718238 39.07199963 4.1350535 42.92087723 4.13037109 46.76977539 C4.12466212 51.70273271 4.12796416 56.63563576 4.13394356 61.56859112 C4.13755581 65.36638295 4.13640773 69.1641619 4.13381577 72.96195412 C4.13314896 74.78122781 4.13396631 76.60050268 4.13629532 78.41977501 C4.13883402 80.95916222 4.13496454 83.49846117 4.12939453 86.0378418 C4.13141876 86.78857468 4.13344299 87.53930756 4.13552856 88.31278992 C4.12183479 91.68185064 4.054471 94.7795099 3 98 C1.02 97.67 -0.96 97.34 -3 97 C-1.02 96.505 -1.02 96.505 1 96 C1.02324773 85.10735878 1.04097817 74.21472354 1.05181217 63.32206249 C1.05701392 58.26328335 1.06406199 53.20452128 1.07543945 48.14575195 C1.08636507 43.25687303 1.09229721 38.36801045 1.09487724 33.47912025 C1.09671414 31.62097225 1.10030091 29.76282505 1.10573006 27.90468407 C1.14951003 13.92534396 1.14951003 13.92534396 0 0 Z " fill="#A3A3A3" transform="translate(403,65)"/>
<path d="M0 0 C2.95611059 -0.29152022 5.69941045 -0.39583639 8.65625 -0.36328125 C9.94335876 -0.36402901 9.94335876 -0.36402901 11.25646973 -0.36479187 C13.07220778 -0.36244945 14.88794896 -0.35271102 16.70361328 -0.33618164 C19.48890095 -0.31259399 22.27323166 -0.31561857 25.05859375 -0.32226562 C26.82031823 -0.3166889 28.58203866 -0.30957905 30.34375 -0.30078125 C31.18023071 -0.30169266 32.01671143 -0.30260406 32.87854004 -0.30354309 C38.76898021 -0.23101979 38.76898021 -0.23101979 41 2 C41.30078125 4.42578125 41.30078125 4.42578125 41.3125 7.3125 C41.32925781 8.25738281 41.34601563 9.20226562 41.36328125 10.17578125 C40.91073455 13.6939669 40.33116159 15.2951793 38 18 C34.87273258 18.45276149 32.29581572 18.58441015 29.17578125 18.48828125 C28.31438034 18.48120651 27.45297943 18.47413177 26.56547546 18.46684265 C23.81360087 18.43884839 21.06375967 18.37610323 18.3125 18.3125 C16.44729501 18.28742352 14.58205813 18.26460921 12.71679688 18.24414062 C8.14374752 18.18900551 3.5722185 18.10270033 -1 18 C-2.90792778 14.49481339 -3.16380326 12.43941313 -2.75 8.4375 C-2.66234375 7.48746094 -2.5746875 6.53742188 -2.484375 5.55859375 C-2 3 -2 3 0 0 Z M0 3 C-0.0989294 5.16480797 -0.129711 7.33293785 -0.125 9.5 C-0.12757813 10.6859375 -0.13015625 11.871875 -0.1328125 13.09375 C-0.33210219 15.89259422 -0.33210219 15.89259422 1 17 C3.73894085 17.08858646 6.4525327 17.11523479 9.19140625 17.09765625 C10.01124496 17.0962413 10.83108368 17.09482635 11.67576599 17.09336853 C14.30471382 17.08775289 16.93357773 17.07519779 19.5625 17.0625 C21.34049357 17.05748701 23.11848846 17.05292376 24.89648438 17.04882812 C29.26435545 17.03777839 33.63216348 17.02050331 38 17 C38.02685412 14.68756208 38.04632841 12.3750373 38.0625 10.0625 C38.07410156 8.77472656 38.08570313 7.48695313 38.09765625 6.16015625 C38.36532549 3.13701597 38.36532549 3.13701597 37 2 C34.34543807 1.89904436 31.71744824 1.86029002 29.0625 1.8671875 C28.267229 1.86623077 27.47195801 1.86527405 26.65258789 1.86428833 C24.9679354 1.86360657 23.28328029 1.86546057 21.59863281 1.86962891 C19.01100803 1.87497725 16.42355684 1.86968381 13.8359375 1.86328125 C12.20312461 1.86394203 10.57031184 1.8652232 8.9375 1.8671875 C8.15834229 1.86516327 7.37918457 1.86313904 6.57641602 1.86105347 C2.992058 1.5416042 2.992058 1.5416042 0 3 Z " fill="#CBCBCB" transform="translate(217,205)"/>
<path d="M0 0 C2.22537571 -0.00217913 4.45024955 -0.02032501 6.67553711 -0.03930664 C8.10066563 -0.04224236 9.5257965 -0.04422596 10.95092773 -0.04516602 C12.88609253 -0.05132935 12.88609253 -0.05132935 14.86035156 -0.05761719 C18.39020658 0.1825008 21.14780176 0.90738199 24.43139648 2.18530273 C24.43139648 4.82530273 24.43139648 7.46530273 24.43139648 10.18530273 C23.44139648 10.18530273 22.45139648 10.18530273 21.43139648 10.18530273 C21.76139648 7.54530273 22.09139648 4.90530273 22.43139648 2.18530273 C9.89139648 2.18530273 -2.64860352 2.18530273 -15.56860352 2.18530273 C-15.23860352 3.50530273 -14.90860352 4.82530273 -14.56860352 6.18530273 C-14.50235845 7.93417255 -14.48307756 9.68533021 -14.50610352 11.43530273 C-14.51512695 12.32733398 -14.52415039 13.21936523 -14.53344727 14.13842773 C-14.54504883 14.81389648 -14.55665039 15.48936523 -14.56860352 16.18530273 C-13.70581787 16.15500977 -12.84303223 16.1247168 -11.95410156 16.09350586 C-8.75050267 15.98127306 -5.54688793 15.8695069 -2.34326172 15.75805664 C-0.95718748 15.70974103 0.42888031 15.66123988 1.81494141 15.61254883 C3.80816973 15.54256088 5.80142345 15.4732973 7.79467773 15.40405273 C8.99390869 15.3621582 10.19313965 15.32026367 11.42871094 15.27709961 C13.42890558 15.21595048 15.43026735 15.18530273 17.43139648 15.18530273 C16.35986328 16.66699219 16.35986328 16.66699219 14.43139648 18.18530273 C11.33691406 18.52587891 11.33691406 18.52587891 7.57592773 18.47827148 C6.91429123 18.47402664 6.25265472 18.4697818 5.57096863 18.46540833 C3.46152738 18.44863967 1.35304802 18.41099373 -0.75610352 18.37280273 C-2.18773032 18.35775342 -3.61937214 18.34406544 -5.05102539 18.33178711 C-8.55719639 18.29874303 -12.06280605 18.24697441 -15.56860352 18.18530273 C-17.84635603 12.71068478 -18.01736467 8.68563973 -17.25610352 2.74780273 C-17.02922852 2.23217773 -16.80235352 1.71655273 -16.56860352 1.18530273 C-11.2720631 -0.58021074 -5.54692924 -0.00060922 0 0 Z " fill="#ABABAB" transform="translate(289.568603515625,162.814697265625)"/>
<path d="M0 0 C0.7891127 -0.0033284 1.5782254 -0.0066568 2.39125061 -0.01008606 C4.06152767 -0.01515223 5.73181487 -0.01749448 7.40209961 -0.01733398 C9.9589911 -0.01951957 12.51545057 -0.03767571 15.07226562 -0.05664062 C16.69400894 -0.05957477 18.3157543 -0.06155943 19.9375 -0.0625 C21.08604713 -0.07327827 21.08604713 -0.07327827 22.25779724 -0.08427429 C26.05843398 -0.06789882 27.7942896 0.00739099 31.03515625 2.16796875 C31.36328125 4.59375 31.36328125 4.59375 31.28515625 7.48046875 C31.2696875 8.42535156 31.25421875 9.37023437 31.23828125 10.34375 C31.04482924 13.03347701 30.58779372 15.53297337 30.03515625 18.16796875 C24.53589201 18.19267344 19.03666003 18.21083098 13.53735352 18.22290039 C11.66625404 18.22793154 9.7951585 18.2347571 7.92407227 18.2434082 C5.23582997 18.25552704 2.54763961 18.26120922 -0.140625 18.265625 C-0.97821854 18.27078629 -1.81581207 18.27594757 -2.67878723 18.28126526 C-6.02860117 18.28158939 -8.76430831 18.2348139 -11.96484375 17.16796875 C-12.17096862 11.39647249 -11.70935716 6.69226122 -9.96484375 1.16796875 C-6.8201458 -0.40438023 -3.4526734 0.00500469 0 0 Z M-8.96484375 3.16796875 C-9.06377315 5.33277672 -9.09455475 7.5009066 -9.08984375 9.66796875 C-9.09242188 10.85390625 -9.095 12.03984375 -9.09765625 13.26171875 C-9.29694594 16.06056297 -9.29694594 16.06056297 -7.96484375 17.16796875 C-5.29858345 17.25652036 -2.65837261 17.28321548 0.0078125 17.265625 C0.80545517 17.26421005 1.60309784 17.2627951 2.4249115 17.26133728 C4.9825306 17.25572191 7.54006343 17.24316687 10.09765625 17.23046875 C11.8274727 17.22545573 13.55729051 17.22089248 15.28710938 17.21679688 C19.53649178 17.2057475 23.78580937 17.18847261 28.03515625 17.16796875 C29.07392008 14.05167726 29.1687725 11.80852585 29.16015625 8.54296875 C29.16273438 7.56070313 29.1653125 6.5784375 29.16796875 5.56640625 C29.3052159 3.21571864 29.3052159 3.21571864 28.03515625 2.16796875 C25.38059432 2.06701311 22.75260449 2.02825877 20.09765625 2.03515625 C19.30238525 2.03419952 18.50711426 2.0332428 17.68774414 2.03225708 C16.00309165 2.03157532 14.31843654 2.03342932 12.63378906 2.03759766 C10.04616428 2.042946 7.45871309 2.03765256 4.87109375 2.03125 C3.23828086 2.03191078 1.60546809 2.03319195 -0.02734375 2.03515625 C-0.80650146 2.03313202 -1.58565918 2.03110779 -2.38842773 2.02902222 C-5.97278575 1.70957295 -5.97278575 1.70957295 -8.96484375 3.16796875 Z " fill="#A9A9A9" transform="translate(225.96484375,162.83203125)"/>
<path d="M0 0 C9.63578844 14.45368266 7.04800697 37.64900709 3.93359375 53.92578125 C2.8799874 58.86434653 1.24063938 63.47322603 -1 68 C-2.04700453 64.85898641 -1.96757045 63.59326025 -1.4765625 60.40234375 C-1.3425 59.51869141 -1.2084375 58.63503906 -1.0703125 57.72460938 C-0.92335938 56.80486328 -0.77640625 55.88511719 -0.625 54.9375 C-0.48578125 54.01388672 -0.3465625 53.09027344 -0.203125 52.13867188 C0.85854001 45.28291997 0.85854001 45.28291997 2 43 C2.09719991 40.99144648 2.13076533 38.979653 2.1328125 36.96875 C2.13410156 35.76605469 2.13539063 34.56335938 2.13671875 33.32421875 C2.13285156 32.06222656 2.12898438 30.80023438 2.125 29.5 C2.12886719 28.23800781 2.13273437 26.97601563 2.13671875 25.67578125 C2.13478516 23.87173828 2.13478516 23.87173828 2.1328125 22.03125 C2.13112061 20.36932617 2.13112061 20.36932617 2.12939453 18.67382812 C2.18151469 16.02681484 2.18151469 16.02681484 1 14 C0.76970044 11.62876754 0.58880058 9.25258057 0.4375 6.875 C0.35371094 5.59367188 0.26992188 4.31234375 0.18359375 2.9921875 C0.12300781 2.00476563 0.06242187 1.01734375 0 0 Z " fill="#9ACB97" transform="translate(449,231)"/>
<path d="M0 0 C0.66 0.33 1.32 0.66 2 1 C-1.58246243 4.41926136 -4.55124215 4.41569925 -9.390625 4.51171875 C-10.44754547 4.53864555 -10.44754547 4.53864555 -11.52581787 4.56611633 C-13.76715179 4.62011858 -16.00827405 4.65408088 -18.25 4.6875 C-19.77346689 4.72068218 -21.29690589 4.75517269 -22.8203125 4.79101562 C-26.5466716 4.87583738 -30.27310463 4.94269724 -34 5 C-34.93418497 8.18665131 -35.15110186 11.0959426 -35.20532227 14.41113281 C-35.22526749 15.49195129 -35.24521271 16.57276978 -35.26576233 17.68634033 C-35.28247482 18.84687927 -35.29918732 20.00741821 -35.31640625 21.203125 C-35.33718735 22.39605164 -35.35796844 23.58897827 -35.37937927 24.8180542 C-35.44476239 28.62864423 -35.50370776 32.43930314 -35.5625 36.25 C-35.60569589 38.83334046 -35.64931052 41.41667395 -35.69335938 44 C-35.80043234 50.33326052 -35.90221972 56.66658956 -36 63 C-36.99 63.495 -36.99 63.495 -38 64 C-38.09265712 56.48967858 -38.16374292 48.97941636 -38.20724869 41.46865368 C-38.228129 37.98109444 -38.25645318 34.49392606 -38.30175781 31.0065918 C-38.35351062 26.99784583 -38.37294136 22.98951078 -38.390625 18.98046875 C-38.41127014 17.72727341 -38.43191528 16.47407806 -38.45318604 15.1829071 C-38.45348816 14.02193008 -38.45379028 12.86095306 -38.45410156 11.66479492 C-38.46298401 10.64109299 -38.47186646 9.61739105 -38.48101807 8.56266785 C-38 6 -38 6 -36.17488098 4.17098999 C-33.05721601 2.49239033 -30.45930062 2.59628133 -26.93359375 2.55859375 C-25.92063988 2.53878197 -25.92063988 2.53878197 -24.88722229 2.51856995 C-22.73727237 2.47779265 -20.58774832 2.45603455 -18.4375 2.4375 C-16.28381065 2.41369037 -14.13052107 2.38555423 -11.97706604 2.34571838 C-10.02580901 2.31026906 -8.074288 2.29036877 -6.12280273 2.27124023 C-2.83601412 2.23779085 -2.83601412 2.23779085 0 0 Z " fill="#8E8E8E" transform="translate(177,66)"/>
<path d="M0 0 C12.87 0 25.74 0 39 0 C39 0.33 39 0.66 39 1 C26.79 1.33 14.58 1.66 2 2 C2 6.29 2 10.58 2 15 C14.21 15 26.42 15 39 15 C39.33 11.37 39.66 7.74 40 4 C40.33 4 40.66 4 41 4 C41.495 10.435 41.495 10.435 42 17 C37.7787338 18.05531655 33.89893883 18.17969775 29.5859375 18.203125 C28.77508698 18.20882507 27.96423645 18.21452515 27.1288147 18.22039795 C25.419223 18.22982376 23.70961332 18.2363723 22 18.24023438 C19.37728775 18.24999149 16.75534269 18.28105715 14.1328125 18.3125 C12.47135882 18.31902547 10.80989954 18.32427773 9.1484375 18.328125 C8.36197845 18.3404718 7.57551941 18.3528186 6.76522827 18.36553955 C4.56005859 18.35644531 4.56005859 18.35644531 1 18 C-1.31861878 14.52207183 -1.24272927 13.09700748 -1.1875 9 C-1.18105469 7.948125 -1.17460937 6.89625 -1.16796875 5.8125 C-1 3 -1 3 0 0 Z " fill="#BABABA" transform="translate(216,247)"/>
<path d="M0 0 C-4.9000081 3.33455096 -9.20644472 5.67231025 -15 7 C-15 7.66 -15 8.32 -15 9 C-16.65071396 10.02611949 -18.31970006 11.02308143 -20 12 C-20.556875 12.556875 -21.11375 13.11375 -21.6875 13.6875 C-22.120625 14.120625 -22.55375 14.55375 -23 15 C-23.66 15 -24.32 15 -25 15 C-25 15.66 -25 16.32 -25 17 C-25.99 17 -26.98 17 -28 17 C-28.25136719 17.55300781 -28.50273437 18.10601562 -28.76171875 18.67578125 C-30.21550508 21.40449691 -31.92228558 23.74070236 -33.8125 26.1875 C-34.47894531 27.06792969 -35.14539063 27.94835937 -35.83203125 28.85546875 C-38.26498576 31.26212105 -39.64388728 31.7012884 -43 32 C-43.33 33.32 -43.66 34.64 -44 36 C-44.66 36 -45.32 36 -46 36 C-44.60633871 31.80403053 -42.64159779 29.20701426 -39.625 26 C-37.31829373 23.53128426 -35.08221452 21.10575044 -33.0078125 18.4375 C-27.06891984 11.2276381 -10.11264083 -3.37088028 0 0 Z " fill="#92C98E" transform="translate(340,183)"/>
<path d="M0 0 C1.20184937 -0.00004028 2.40369873 -0.00008057 3.64196777 -0.00012207 C6.18047318 0.0052343 8.71897809 0.02282163 11.25732422 0.05175781 C15.14211731 0.09359779 19.02517592 0.09282664 22.91015625 0.0859375 C25.37761621 0.09643051 27.84506724 0.1093692 30.3125 0.125 C31.47406616 0.12520142 32.63563232 0.12540283 33.83239746 0.12561035 C34.91702271 0.14152222 36.00164795 0.15743408 37.11914062 0.17382812 C38.07002563 0.18224731 39.02091064 0.1906665 40.00061035 0.19934082 C43.12833975 0.66386363 45.06663691 1.82189402 47.65625 3.59375 C44.87518333 3.59375 42.09538222 3.57231757 39.31445312 3.54614258 C33.24174524 3.49225623 27.16906731 3.45752525 21.09619141 3.42895508 C18.46952736 3.41381815 15.84288877 3.39331008 13.21630859 3.36743164 C9.43580922 3.33114909 5.65564133 3.31405058 1.875 3.30078125 C0.69683716 3.28529739 -0.48132568 3.26981354 -1.69519043 3.25386047 C-3.33203796 3.25352058 -3.33203796 3.25352058 -5.00195312 3.25317383 C-6.44399109 3.24318108 -6.44399109 3.24318108 -7.91516113 3.23298645 C-10.77600529 3.65796093 -11.48838635 4.46883939 -13.34375 6.59375 C-14.00375 6.59375 -14.66375 6.59375 -15.34375 6.59375 C-15.34375 9.23375 -15.34375 11.87375 -15.34375 14.59375 C-16.00375 14.59375 -16.66375 14.59375 -17.34375 14.59375 C-17.48032216 13.20071395 -17.57646149 11.80368879 -17.65625 10.40625 C-17.71425781 9.62894531 -17.77226562 8.85164063 -17.83203125 8.05078125 C-17.27274708 5.23646331 -16.27793015 3.63670529 -14.20036316 1.66044617 C-9.9793866 -0.76466835 -4.72267758 -0.06665961 0 0 Z " fill="#9F9F9F" transform="translate(248.34375,52.40625)"/>
<path d="M0 0 C2.16874252 0.50603992 3.99967627 0.99983813 6 2 C6.13306356 21.36586547 5.84821884 40.64887977 5 60 C4.67 60 4.34 60 4 60 C2.92274093 53.81973486 2.81629115 47.74862598 2.75390625 41.484375 C2.72099969 39.24218313 2.68778757 36.99999572 2.65429688 34.7578125 C2.60671137 31.23993688 2.56219054 27.72208335 2.52319336 24.20410156 C2.48360751 20.79734816 2.43206983 17.39093972 2.37890625 13.984375 C2.3704921 12.92812927 2.36207794 11.87188354 2.35340881 10.78363037 C2.33676682 9.80541321 2.32012482 8.82719604 2.30297852 7.81933594 C2.29267105 6.95886658 2.28236359 6.09839722 2.27174377 5.21185303 C2.13274587 2.71259434 2.13274587 2.71259434 0 0 Z " fill="#A2A2A2" transform="translate(385,70)"/>
<path d="M0 0 C-0.969375 0.61875 -1.93875 1.2375 -2.9375 1.875 C-6.02835362 3.65678846 -6.02835362 3.65678846 -7 6 C-7.10067582 7.69928789 -7.13835925 9.40248274 -7.14526367 11.10473633 C-7.15164352 12.16956741 -7.15802338 13.2343985 -7.16459656 14.33149719 C-7.16570938 15.48667343 -7.1668222 16.64184967 -7.16796875 17.83203125 C-7.17129715 19.01592941 -7.17462555 20.19982758 -7.17805481 21.41960144 C-7.18312577 23.92890025 -7.18546308 26.43820583 -7.18530273 28.94750977 C-7.18748498 32.78608349 -7.20562753 36.62436796 -7.22460938 40.46289062 C-7.22754409 42.89843652 -7.22952836 45.33398377 -7.23046875 47.76953125 C-7.23765427 48.9186348 -7.24483978 50.06773834 -7.25224304 51.25166321 C-7.24916641 52.32595078 -7.24608978 53.40023834 -7.24291992 54.50708008 C-7.24505745 55.92033318 -7.24505745 55.92033318 -7.24723816 57.36213684 C-6.97879443 60.22624905 -6.1898495 62.39429947 -5 65 C-6.9375 64.6875 -6.9375 64.6875 -9 64 C-10.01003031 60.96990908 -10.14421646 58.87741701 -10.17700195 55.70581055 C-10.18983719 54.62426193 -10.20267242 53.54271332 -10.21589661 52.4283905 C-10.22328354 51.25963882 -10.23067047 50.09088715 -10.23828125 48.88671875 C-10.246353 47.68441116 -10.25442474 46.48210358 -10.26274109 45.24336243 C-10.27657972 42.69716839 -10.28730286 40.15095583 -10.29516602 37.60473633 C-10.31238563 33.71334677 -10.35627647 29.82280518 -10.40039062 25.93164062 C-10.41051697 23.45833958 -10.41903325 20.98503132 -10.42578125 18.51171875 C-10.44328934 17.34903976 -10.46079742 16.18636078 -10.47883606 14.9884491 C-10.46202765 8.7202418 -10.33268542 4.70873932 -6 0 C-3.50907189 -1.24546405 -2.58919267 -0.7767578 0 0 Z " fill="#919191" transform="translate(319,28)"/>
<path d="M0 0 C1.13104352 3.85362686 0.64378175 5.30149106 -1 9 C-1.79563494 11.36267229 -2.55759484 13.73464915 -3.31640625 16.109375 C-4 18 -4 18 -5 19 C-5.18425439 20.57932331 -5.32254756 22.16412556 -5.4375 23.75 C-5.77860525 27.56713015 -6.47517373 30.47383924 -8 34 C-8.89130969 39.02374552 -9.10760158 43.84102167 -9.0625 48.9375 C-9.05798828 49.62134766 -9.05347656 50.30519531 -9.04882812 51.00976562 C-9.0371956 52.67321604 -9.01926694 54.3366205 -9 56 C-8.67 56 -8.34 56 -8 56 C-8 58.97 -8 61.94 -8 65 C-14.44344531 55.33483203 -12.55298417 36.01891357 -10.37304688 24.76269531 C-7.98724402 16.02549838 -4.10051533 8.03773581 0 0 Z " fill="#AFDBAD" transform="translate(293,219)"/>
<path d="M0 0 C0 0.33 0 0.66 0 1 C-6.435 1.495 -6.435 1.495 -13 2 C-13.33 2.99 -13.66 3.98 -14 5 C-14.66 5 -15.32 5 -16 5 C-16.97519853 7.92559558 -17.13734879 9.84661213 -17.16113281 12.89526367 C-17.17554413 14.38777901 -17.17554413 14.38777901 -17.19024658 15.91044617 C-17.19449646 16.98542862 -17.19874634 18.06041107 -17.203125 19.16796875 C-17.20882507 20.27674881 -17.21452515 21.38552887 -17.22039795 22.52790833 C-17.22985061 24.87740118 -17.23638298 27.2269073 -17.24023438 29.57641602 C-17.24991481 33.15600028 -17.28092606 36.73500425 -17.3125 40.31445312 C-17.31903273 42.59895493 -17.32428214 44.88346084 -17.328125 47.16796875 C-17.3404718 48.23283005 -17.3528186 49.29769135 -17.36553955 50.39482117 C-17.34696731 56.64995807 -16.59093041 61.29011953 -14 67 C-15.65 66.34 -17.3 65.68 -19 65 C-19 60.38 -19 55.76 -19 51 C-19.66 51 -20.32 51 -21 51 C-21 46.71 -21 42.42 -21 38 C-20.34 38 -19.68 38 -19 38 C-19.14120714 36.06215735 -19.28812873 34.12473045 -19.4375 32.1875 C-19.51871094 31.10855469 -19.59992188 30.02960937 -19.68359375 28.91796875 C-19.90212461 25.94010095 -19.90212461 25.94010095 -21 23 C-20.67 22.34 -20.34 21.68 -20 21 C-19.75212983 16.85496339 -19.75212983 16.85496339 -21 13 C-20.34 13 -19.68 13 -19 13 C-19.00902344 12.39671875 -19.01804688 11.7934375 -19.02734375 11.171875 C-18.93323425 8.63501018 -18.69425738 6.44462751 -18 4 C-12.55338365 -0.85459283 -7.02665931 -0.45743171 0 0 Z " fill="#A6A6A6" transform="translate(210,26)"/>
<path d="M0 0 C0.68422531 -0.00145523 1.36845062 -0.00291046 2.07341003 -0.00440979 C3.51651275 -0.00275576 4.95963401 0.0087501 6.40258789 0.02954102 C8.58883394 0.05837436 10.77263166 0.0501659 12.95898438 0.03710938 C29.1539609 0.06003761 29.1539609 0.06003761 34.49145508 5.09985352 C34.92095459 5.56061279 35.3504541 6.02137207 35.79296875 6.49609375 C32.85466268 6.08609755 30.26269662 5.71152014 27.55395508 4.46923828 C24.02206468 3.22437887 21.04669738 3.27096444 17.3046875 3.30078125 C16.6014888 3.30361115 15.8982901 3.30644104 15.17378235 3.30935669 C12.94249983 3.32049224 10.71162858 3.34558378 8.48046875 3.37109375 C6.96159437 3.38113215 5.44271365 3.39025649 3.92382812 3.3984375 C0.21340954 3.42040962 -3.49677067 3.45489328 -7.20703125 3.49609375 C-7.53703125 4.15609375 -7.86703125 4.81609375 -8.20703125 5.49609375 C-8.86703125 5.49609375 -9.52703125 5.49609375 -10.20703125 5.49609375 C-9.87703125 8.79609375 -9.54703125 12.09609375 -9.20703125 15.49609375 C-11.26953125 13.93359375 -11.26953125 13.93359375 -13.20703125 11.49609375 C-13.26953125 7.99609375 -13.26953125 7.99609375 -12.20703125 4.49609375 C-8.31538202 0.47243288 -5.50130253 -0.00806797 0 0 Z " fill="#A7A7A7" transform="translate(363.20703125,52.50390625)"/>
<path d="M0 0 C3.79472606 0.17248755 5.50899562 0.48729559 8.17651367 3.27270508 C11.20835591 8.18646816 10.5097234 13.9372795 10.42578125 19.51171875 C10.42249313 20.71689651 10.41920502 21.92207428 10.41581726 23.16377258 C10.40541406 25.70469585 10.38549431 28.24559566 10.35668945 30.78637695 C10.31254091 34.68388872 10.29523998 38.58078452 10.28320312 42.47851562 C10.26978182 44.94792559 10.25485962 47.41732796 10.23828125 49.88671875 C10.23089432 51.05547043 10.22350739 52.22422211 10.21589661 53.4283905 C10.20306137 54.50993912 10.19022614 55.59148773 10.17700195 56.70581055 C10.16715775 57.65812057 10.15731354 58.6104306 10.14717102 59.59159851 C10 62 10 62 9 65 C3.305908 68.87198256 -1.4388715 70.45323454 -8.4375 69.5625 C-9.7059375 69.2840625 -9.7059375 69.2840625 -11 69 C-11 68.67 -11 68.34 -11 68 C-10.19175781 67.97421875 -9.38351563 67.9484375 -8.55078125 67.921875 C-1.9189285 67.64164335 -1.9189285 67.64164335 4.125 65.1875 C7.13008412 61.68156853 8.25301339 59.03638382 8.22705078 54.41503906 C8.22689972 53.51440735 8.22674866 52.61377563 8.22659302 51.68585205 C8.21627045 50.72217712 8.20594788 49.7585022 8.1953125 48.765625 C8.1924826 47.77246277 8.18965271 46.77930054 8.18673706 45.75604248 C8.17555143 42.58723856 8.15044962 39.41871835 8.125 36.25 C8.11496812 34.1002645 8.10584263 31.95052457 8.09765625 29.80078125 C8.07561741 24.53375754 8.04215584 19.26689904 8 14 C7.67 14 7.34 14 7 14 C6.855625 12.7625 6.71125 11.525 6.5625 10.25 C6.21311498 7.43495501 5.79620634 4.7298503 5 2 C3.35 1.67 1.7 1.34 0 1 C0 0.67 0 0.34 0 0 Z " fill="#818181" transform="translate(210,27)"/>
<path d="M0 0 C2.55609235 2.222689 3.38043516 3.69426782 4 7 C4.09400146 8.62226801 4.13794654 10.24783005 4.14526367 11.87280273 C4.15164352 12.837379 4.15802338 13.80195526 4.16459656 14.79576111 C4.16570938 15.83124588 4.1668222 16.86673065 4.16796875 17.93359375 C4.17129715 19.00368179 4.17462555 20.07376984 4.17805481 21.17628479 C4.18311488 23.43823822 4.18546342 25.70019911 4.18530273 27.9621582 C4.18748948 31.42086076 4.20565587 34.87924447 4.22460938 38.33789062 C4.22754343 40.53645724 4.22952814 42.73502538 4.23046875 44.93359375 C4.24124702 46.48378456 4.24124702 46.48378456 4.25224304 48.06529236 C4.24916641 49.03302078 4.24608978 50.00074921 4.24291992 50.99780273 C4.24434494 51.84511459 4.24576996 52.69242645 4.24723816 53.56541443 C3.96672556 56.32765762 3.13523247 58.47855301 2 61 C1.08096731 57.87716848 0.88343066 55.10152978 0.90234375 51.85180664 C0.90564697 50.82716812 0.9089502 49.8025296 0.91235352 48.74684143 C0.92065186 47.64573532 0.9289502 46.54462921 0.9375 45.41015625 C0.94128662 44.27348007 0.94507324 43.13680389 0.94897461 41.96568298 C0.96533049 37.10183336 0.99346345 32.23806761 1.02050781 27.37426758 C1.03857789 23.82373441 1.05068193 20.27321484 1.0625 16.72265625 C1.07079834 15.62357437 1.07909668 14.52449249 1.08764648 13.3921051 C1.09094971 12.36431442 1.09425293 11.33652374 1.09765625 10.27758789 C1.10289307 9.37698135 1.10812988 8.47637482 1.11352539 7.54847717 C0.99732893 4.94003844 0.57866171 2.54260392 0 0 Z " fill="#C0C0C0" transform="translate(335,30)"/>
<path d="M0 0 C-2.59232521 0.93323708 -4.15903138 0.9748449 -6.9140625 0.5390625 C-12.19207483 -0.26898536 -17.48389142 -0.19073362 -22.8125 -0.1875 C-24.45690063 -0.1884668 -24.45690063 -0.1884668 -26.13452148 -0.18945312 C-35.52861545 -0.12920385 -44.70770969 0.67083459 -54 2 C-39.72967276 -7.51355149 -15.31356921 -5.57282794 0 0 Z " fill="#B2DAB0" transform="translate(394,180)"/>
<path d="M0 0 C2.26077474 -0.00437616 4.51959873 -0.04075506 6.7800293 -0.07861328 C8.23379874 -0.08448232 9.68757735 -0.08845113 11.14135742 -0.09033203 C12.44903076 -0.0985498 13.7567041 -0.10676758 15.10400391 -0.11523438 C19.64510747 0.47645004 22.03078818 1.88842304 25.83276367 4.37060547 C25.95776367 7.74560547 25.95776367 7.74560547 25.83276367 11.37060547 C25.17276367 12.03060547 24.51276367 12.69060547 23.83276367 13.37060547 C23.67000326 11.3523763 23.50724284 9.33414714 23.34448242 7.31591797 C22.95883331 4.97541331 22.95883331 4.97541331 19.83276367 3.37060547 C17.22834354 3.17481218 14.73369681 3.09050187 12.12963867 3.10498047 C11.37362366 3.10306702 10.61760864 3.10115356 9.83868408 3.09918213 C8.23823718 3.09782152 6.6377792 3.10150932 5.03735352 3.10986328 C2.60561809 3.12050545 0.17463146 3.10999501 -2.25708008 3.09716797 C-3.81567544 3.09849075 -5.37427034 3.10105559 -6.93286133 3.10498047 C-7.65290344 3.10093201 -8.37294556 3.09688354 -9.11480713 3.0927124 C-13.85967677 3.13603254 -17.70780432 3.90163326 -22.16723633 5.37060547 C-17.45272455 -1.7011622 -7.6480438 -0.00165883 0 0 Z " fill="#A1A1A1" transform="translate(155.167236328125,52.62939453125)"/>
<path d="M0 0 C0 0.99 0 1.98 0 3 C-1.66666667 4.66666667 -3.33333333 6.33333333 -5 8 C-5.515625 9.051875 -6.03125 10.10375 -6.5625 11.1875 C-8.17775609 14.34778365 -8.81314158 14.7424829 -12 16 C-18.61075856 17.33758539 -23.31473382 15.33310544 -28.82421875 11.734375 C-31.72143827 9.42492174 -33.28898437 7.26648438 -35 4 C-34.67 3.34 -34.34 2.68 -34 2 C-33.25234375 2.61488281 -32.5046875 3.22976563 -31.734375 3.86328125 C-30.74953125 4.67152344 -29.7646875 5.47976563 -28.75 6.3125 C-27.28820312 7.51326172 -27.28820312 7.51326172 -25.796875 8.73828125 C-24.87390625 9.48464844 -23.9509375 10.23101562 -23 11 C-22.34515625 11.61230469 -21.6903125 12.22460938 -21.015625 12.85546875 C-18.97708988 14.21887171 -18.97708988 14.21887171 -16.1796875 14.09765625 C-11.72303788 12.55918138 -9.29210145 9.83747656 -6.125 6.4375 C-5.53203125 5.82197266 -4.9390625 5.20644531 -4.328125 4.57226562 C-2.87377978 3.05927745 -1.4352694 1.531096 0 0 Z " fill="#B5DCB3" transform="translate(375,277)"/>
<path d="M0 0 C5.51754805 -0.07402793 11.03480856 -0.12854366 16.55273438 -0.16479492 C18.43071526 -0.17990325 20.30866076 -0.20039094 22.18652344 -0.22631836 C24.88225019 -0.26261246 27.57751146 -0.27970545 30.2734375 -0.29296875 C31.53756973 -0.31619453 31.53756973 -0.31619453 32.82723999 -0.33988953 C35.19287109 -0.34057617 35.19287109 -0.34057617 39 0 C41.1519437 3.22791555 41.20086443 4.28400809 41 8 C40.34 8 39.68 8 39 8 C38.505 5.03 38.505 5.03 38 2 C25.79 2 13.58 2 1 2 C0.67 4.64 0.34 7.28 0 10 C-0.33 10 -0.66 10 -1 10 C-1.125 3.375 -1.125 3.375 0 0 Z " fill="#C0C0C0" transform="translate(159,247)"/>
<path d="M0 0 C3.32722441 0.5545374 6.1013913 1.24013043 9 3 C10.60265322 6.20530644 10.34377149 9.51510081 10 13 C7.63879628 19.61137043 0.02219115 23.10550721 -6 26 C-5.62488281 25.56429688 -5.24976563 25.12859375 -4.86328125 24.6796875 C-3.79306823 23.43425068 -2.72690319 22.18532793 -1.6640625 20.93359375 C-0.63777804 19.74108011 0.40588378 18.56297699 1.4765625 17.41015625 C4.53138794 14.04270248 5.90050081 11.57696274 6 7 C4.90496028 3.5157827 2.99242817 1.99495211 0 0 Z " fill="#9CCF99" transform="translate(397,235)"/>
<path d="M0 0 C-1.0828125 0.8353125 -1.0828125 0.8353125 -2.1875 1.6875 C-4.98374884 3.98663794 -7.45384835 6.42790503 -10 9 C-10.95202949 9.94251411 -11.90517294 10.88390422 -12.859375 11.82421875 C-13.82292902 12.77863337 -14.78647062 13.73306052 -15.75 14.6875 C-16.24371094 15.17283203 -16.73742187 15.65816406 -17.24609375 16.15820312 C-19.96615276 18.81840217 -19.96615276 18.81840217 -22 22 C-22.66 22 -23.32 22 -24 22 C-24.2475 22.5775 -24.495 23.155 -24.75 23.75 C-26.18299988 26.32939979 -27.78424676 28.06121592 -30 30 C-30.66 30 -31.32 30 -32 30 C-31 28 -30 26 -29 24 C-28.01 24 -27.02 24 -26 24 C-25.938125 23.4225 -25.87625 22.845 -25.8125 22.25 C-24.6823124 19.12024972 -22.58982308 18.03486099 -20 16 C-19.505 15.154375 -19.01 14.30875 -18.5 13.4375 C-16.71894545 10.54328636 -14.88706373 9.70262733 -12 8 C-10.67206394 5.93299345 -10.67206394 5.93299345 -10 4 C-9.34 4 -8.68 4 -8 4 C-8 3.34 -8 2.68 -8 2 C-4.77208445 -0.1519437 -3.71599191 -0.20086443 0 0 Z " fill="#B6DEB4" transform="translate(395,235)"/>
<path d="M0 0 C2.59200129 2.59200129 2.29802368 3.77522229 2.3125 7.375 C2.32925781 8.33148438 2.34601563 9.28796875 2.36328125 10.2734375 C2 13 2 13 -1 17 C-1.33 12.38 -1.66 7.76 -2 3 C-16.85 2.505 -16.85 2.505 -32 2 C-32 1.67 -32 1.34 -32 1 C-5.70761698 -0.55477661 -5.70761698 -0.55477661 0 0 Z " fill="#AEAEAE" transform="translate(256,205)"/>
<path d="M0 0 C0.33 0.99 0.66 1.98 1 3 C1.66 3 2.32 3 3 3 C3.08121924 4.60332791 3.13929134 6.20784026 3.1875 7.8125 C3.23970703 9.15248047 3.23970703 9.15248047 3.29296875 10.51953125 C2.93911941 13.51545569 2.32327229 14.15765463 0 16 C-2.91439968 16.24879022 -5.59325575 16.32832011 -8.5 16.25 C-9.30356934 16.23904297 -10.10713867 16.22808594 -10.93505859 16.21679688 C-16.98461824 16.10506038 -22.99269498 15.74098917 -29 15 C-29 14.67 -29 14.34 -29 14 C-19.43 14 -9.86 14 0 14 C0 9.38 0 4.76 0 0 Z " fill="#8B8B8B" transform="translate(197,207)"/>
<path d="M0 0 C0.33 0 0.66 0 1 0 C1 3.3 1 6.6 1 10 C1.86278564 9.96970703 2.72557129 9.93941406 3.61450195 9.90820312 C6.81810085 9.79597033 10.02171559 9.68420416 13.2253418 9.57275391 C14.61141604 9.5244383 15.99748382 9.47593715 17.38354492 9.42724609 C19.37677325 9.35725814 21.37002696 9.28799457 23.36328125 9.21875 C24.56251221 9.17685547 25.76174316 9.13496094 26.99731445 9.09179688 C28.9975091 9.03064774 30.99887086 9 33 9 C31.92626953 10.47949219 31.92626953 10.47949219 30 12 C26.92138672 12.35644531 26.92138672 12.35644531 23.1796875 12.328125 C22.52042267 12.32625183 21.86115784 12.32437866 21.18191528 12.32244873 C19.79163539 12.31573708 18.40137409 12.30183995 17.01123047 12.28125 C14.87579946 12.2500117 12.74110589 12.24027048 10.60546875 12.234375 C0.16348535 12.16348535 0.16348535 12.16348535 -1 11 C-1.09823996 9.52351124 -1.12973519 8.04224583 -1.125 6.5625 C-1.12757813 5.75941406 -1.13015625 4.95632812 -1.1328125 4.12890625 C-1 2 -1 2 0 0 Z " fill="#919191" transform="translate(274,169)"/>
<path d="M0 0 C1.60379341 -0.05416188 3.20811406 -0.09286638 4.8125 -0.125 C5.70582031 -0.14820313 6.59914062 -0.17140625 7.51953125 -0.1953125 C10 0 10 0 13 2 C13.328125 4.42578125 13.328125 4.42578125 13.25 7.3125 C13.23453125 8.25738281 13.2190625 9.20226562 13.203125 10.17578125 C13 13 13 13 12 18 C-0.87 18 -13.74 18 -27 18 C-27 17.67 -27 17.34 -27 17 C-14.79 17 -2.58 17 10 17 C10 12.38 10 7.76 10 3 C6.7 2.34 3.4 1.68 0 1 C0 0.67 0 0.34 0 0 Z " fill="#CDCDCD" transform="translate(244,163)"/>
<path d="M0 0 C0.33 0.66 0.66 1.32 1 2 C-3.32283752 10.47756468 -8.97673021 19.65115347 -17 25 C-17 23.68 -17 22.36 -17 21 C-14.6875 19 -14.6875 19 -12 17 C-9.390178 14.11055421 -8.53451158 11.84848339 -8 8 C-6.68 7.67 -5.36 7.34 -4 7 C-3.67 5.02 -3.34 3.04 -3 1 C-2.01 0.67 -1.02 0.34 0 0 Z " fill="#A9D4A5" transform="translate(446,299)"/>
<path d="M0 0 C5.30862208 -0.43513296 5.30862208 -0.43513296 8 0 C9.625 2.25 9.625 2.25 11 5 C12.95597184 6.39712274 14.95436401 7.73779907 17 9 C17.66 9.66 18.32 10.32 19 11 C20.98821313 11.39764263 22.98944339 11.73775349 25 12 C24.67 12.99 24.34 13.98 24 15 C19.63249116 14.78378669 17.50799959 14.44101063 14.15625 11.53125 C12.79813806 10.0305957 11.49331683 8.49212695 10.18359375 6.94921875 C7.51807198 4.00393376 6.10090386 3.02214963 2.15625 2.15625 C0.59390625 2.07890625 0.59390625 2.07890625 -1 2 C-0.67 1.34 -0.34 0.68 0 0 Z " fill="#B2D3B1" transform="translate(336,255)"/>
<path d="M0 0 C0.556875 0.268125 1.11375 0.53625 1.6875 0.8125 C0.718125 1.43125 -0.25125 2.05 -1.25 2.6875 C-4.34085362 4.46928846 -4.34085362 4.46928846 -5.3125 6.8125 C-5.43090113 8.38456643 -5.48953033 9.96133269 -5.51782227 11.53759766 C-5.53776749 12.51846344 -5.55771271 13.49932922 -5.57826233 14.50991821 C-5.59497482 15.57141083 -5.61168732 16.63290344 -5.62890625 17.7265625 C-5.64968735 18.81133881 -5.67046844 19.89611511 -5.69187927 21.01376343 C-5.75740634 24.48827621 -5.81627447 27.96286624 -5.875 31.4375 C-5.91818221 33.78907058 -5.9617964 36.14063326 -6.00585938 38.4921875 C-6.11309093 44.2655427 -6.21485144 50.0389752 -6.3125 55.8125 C-6.6425 55.8125 -6.9725 55.8125 -7.3125 55.8125 C-7.43932581 48.64106131 -7.52686241 41.46991202 -7.5871582 34.29760742 C-7.61229496 31.85804436 -7.64640946 29.41855655 -7.68969727 26.97924805 C-7.75038229 23.47165354 -7.778719 19.9650551 -7.80078125 16.45703125 C-7.82658768 15.36727493 -7.8523941 14.27751862 -7.87898254 13.15473938 C-7.88210734 4.70941125 -7.88210734 4.70941125 -4.92651367 1.57299805 C-2.3125 -0.1875 -2.3125 -0.1875 0 0 Z " fill="#666666" transform="translate(317.3125,27.1875)"/>
<path d="M0 0 C2.16874252 0.50603992 3.99967627 0.99983813 6 2 C6 11.9 6 21.8 6 32 C5.67 32 5.34 32 5 32 C5 27.38 5 22.76 5 18 C4.34 18 3.68 18 3 18 C2.95101563 16.95199219 2.90203125 15.90398437 2.8515625 14.82421875 C2.77651857 13.44528646 2.70097143 12.0663815 2.625 10.6875 C2.5940625 9.99720703 2.563125 9.30691406 2.53125 8.59570312 C2.31875081 4.93009211 2.08066139 3.12099208 0 0 Z " fill="#5E5E5E" transform="translate(385,70)"/>
<path d="M0 0 C-9.61457789 6.0879192 -20.21890723 11.7600705 -32 11 C-30.68 10.67 -29.36 10.34 -28 10 C-28 9.34 -28 8.68 -28 8 C-23.93126728 6.14845433 -20.10917594 5.45353704 -15.6875 4.875 C-14.43324219 4.70742188 -13.17898438 4.53984375 -11.88671875 4.3671875 C-10.93410156 4.24601562 -9.98148437 4.12484375 -9 4 C-9 3.34 -9 2.68 -9 2 C-3.375 -1.125 -3.375 -1.125 0 0 Z " fill="#B3DAB0" transform="translate(415,336)"/>
<path d="M0 0 C3.75860563 4.39622623 6.35584335 9.07729145 9 14.1796875 C10.84487268 17.78079788 10.84487268 17.78079788 14.171875 19.8046875 C14.77515625 19.86914062 15.3784375 19.93359375 16 20 C17.72101535 22.58152302 18 23.84918025 18 27 C8.96387961 23.16112532 3.8451066 11.43819747 0 3 C0 2.01 0 1.02 0 0 Z " fill="#BADDB8" transform="translate(288,294)"/>
<path d="M0 0 C0.33 0 0.66 0 1 0 C1.33 4.29 1.66 8.58 2 13 C-1.64846005 13.91211501 -4.35701531 14.11589698 -8.078125 14.09765625 C-9.23828125 14.09443359 -10.3984375 14.09121094 -11.59375 14.08789062 C-12.8003125 14.07951172 -14.006875 14.07113281 -15.25 14.0625 C-16.47203125 14.05798828 -17.6940625 14.05347656 -18.953125 14.04882812 C-21.96879946 14.03704815 -24.98437498 14.02059853 -28 14 C-28 13.67 -28 13.34 -28 13 C-14.635 12.01 -14.635 12.01 -1 11 C-0.67 7.37 -0.34 3.74 0 0 Z " fill="#CECECE" transform="translate(256,251)"/>
<path d="M0 0 C0.474375 0.61875 0.94875 1.2375 1.4375 1.875 C-1.49848252 1.46532802 -4.10028719 1.08288806 -6.81518555 -0.13818359 C-10.24271883 -1.36932991 -13.19295709 -1.44920882 -16.83203125 -1.5390625 C-17.51303391 -1.55842865 -18.19403656 -1.5777948 -18.89567566 -1.5977478 C-21.05532593 -1.65718132 -23.21503057 -1.703782 -25.375 -1.75 C-26.84572544 -1.78821328 -28.31642929 -1.82726694 -29.78710938 -1.8671875 C-33.37870789 -1.96285183 -36.97046913 -2.04701575 -40.5625 -2.125 C-40.5625 -2.455 -40.5625 -2.785 -40.5625 -3.125 C-36.5978325 -3.31941048 -32.63277793 -3.49775396 -28.66674805 -3.66210938 C-26.66483083 -3.74828541 -24.66345133 -3.84667564 -22.66210938 -3.9453125 C-5.58740959 -4.63346161 -5.58740959 -4.63346161 0 0 Z " fill="#919191" transform="translate(397.5625,57.125)"/>
<path d="M0 0 C0 0.33 0 0.66 0 1 C-6.435 1.495 -6.435 1.495 -13 2 C-13.33 2.99 -13.66 3.98 -14 5 C-14.66 5 -15.32 5 -16 5 C-17.44347263 9.33041788 -17.35422191 13.75305638 -17.51757812 18.28320312 C-17.78535986 23.78535986 -17.78535986 23.78535986 -20 26 C-20.33 25.01 -20.66 24.02 -21 23 C-20.67 22.34 -20.34 21.68 -20 21 C-19.75212983 16.85496339 -19.75212983 16.85496339 -21 13 C-20.34 13 -19.68 13 -19 13 C-19.00902344 12.39671875 -19.01804688 11.7934375 -19.02734375 11.171875 C-18.93323425 8.63501018 -18.69425738 6.44462751 -18 4 C-12.55338365 -0.85459283 -7.02665931 -0.45743171 0 0 Z " fill="#BDBDBD" transform="translate(210,26)"/>
<path d="M0 0 C0.66 0 1.32 0 2 0 C2.19502282 2.91634122 2.38129328 5.83279545 2.5625 8.75 C2.61857422 9.575 2.67464844 10.4 2.73242188 11.25 C2.78076172 12.04921875 2.82910156 12.8484375 2.87890625 13.671875 C2.9260376 14.4050293 2.97316895 15.13818359 3.02172852 15.89355469 C2.99913793 18.08357226 2.61487456 19.90487187 2 22 C0.02 21.67 -1.96 21.34 -4 21 C-2.68 20.67 -1.36 20.34 0 20 C0 13.4 0 6.8 0 0 Z " fill="#7D7D7D" transform="translate(404,141)"/>
<path d="M0 0 C0 0.33 0 0.66 0 1 C-6.70019789 1.70132913 -13.26257354 2.11044961 -20 2 C-20 6.95 -20 11.9 -20 17 C-20.99 16.67 -21.98 16.34 -23 16 C-23 11.71 -23 7.42 -23 3 C-22.34 3 -21.68 3 -21 3 C-21 2.34 -21 1.68 -21 1 C-13.98194143 -0.10087193 -7.09434233 -0.09733092 0 0 Z " fill="#DFDFDF" transform="translate(180,163)"/>
<path d="M0 0 C-4.8381877 3.33531741 -9.324965 5.55024898 -14.9453125 7.2421875 C-17.78018548 8.28774902 -19.81045718 9.95171801 -22 12 C-22.66 11.67 -23.32 11.34 -24 11 C-18.5321579 5.8359269 -7.62764223 -2.54254741 0 0 Z " fill="#B9DBB5" transform="translate(340,183)"/>
<path d="M0 0 C0.33 0 0.66 0 1 0 C1 3.63 1 7.26 1 11 C7.27 11.33 13.54 11.66 20 12 C20 12.33 20 12.66 20 13 C13.73 13 7.46 13 1 13 C0.67 12.01 0.34 11.02 0 10 C-0.66 10 -1.32 10 -2 10 C-1.85950482 8.52031676 -1.71245174 7.04125484 -1.5625 5.5625 C-1.48128906 4.73878906 -1.40007812 3.91507813 -1.31640625 3.06640625 C-1 1 -1 1 0 0 Z " fill="#BDBDBD" transform="translate(159,210)"/>
<path d="M0 0 C0.33 0 0.66 0 1 0 C2.2992997 4.39762975 3.51467905 8.81695202 4.6875 13.25 C4.95949219 14.26578125 5.23148437 15.2815625 5.51171875 16.328125 C6 19 6 19 5 22 C0.38719808 14.55361975 -0.6727248 8.70057407 0 0 Z " fill="#92CA91" transform="translate(285,276)"/>
<path d="M0 0 C0.66 0.33 1.32 0.66 2 1 C1.505 1.33 1.01 1.66 0.5 2 C-1.399916 4.53322133 -1.59097393 6.66433689 -1.50390625 9.79296875 C-0.56079515 13.92364914 2.2298516 16.90007203 5 20 C2.75 19.9375 2.75 19.9375 0 19 C-3.82648998 13.93248624 -4.82591547 10.29760543 -4 4 C-2 1.5 -2 1.5 0 0 Z " fill="#C4E1C2" transform="translate(333,257)"/>
<path d="M0 0 C0.33 0 0.66 0 1 0 C1 8.91 1 17.82 1 27 C0.01 27 -0.98 27 -2 27 C-2.20871753 17.75845174 -2.14982548 9.0599788 0 0 Z " fill="#81C17E" transform="translate(285,249)"/>
<path d="M0 0 C2.75 0.125 2.75 0.125 6 1 C10.56489474 6.086597 10.50301616 10.41335648 10.25 16.875 C10.23195312 17.75414063 10.21390625 18.63328125 10.1953125 19.5390625 C10.14848379 21.6931832 10.07674994 23.84673774 10 26 C9.67 26 9.34 26 9 26 C8.67 22.04 8.34 18.08 8 14 C7.67 14 7.34 14 7 14 C6.855625 12.7625 6.71125 11.525 6.5625 10.25 C6.21311498 7.43495501 5.79620634 4.7298503 5 2 C3.35 1.67 1.7 1.34 0 1 C0 0.67 0 0.34 0 0 Z " fill="#8A8A8A" transform="translate(210,27)"/>
<path d="M0 0 C9.12163722 1.2637437 16.44318503 8.97432367 23 15 C22.01 15.33 21.02 15.66 20 16 C19.22076172 15.16855469 19.22076172 15.16855469 18.42578125 14.3203125 C17.72839844 13.59585938 17.03101563 12.87140625 16.3125 12.125 C15.62800781 11.40570313 14.94351562 10.68640625 14.23828125 9.9453125 C11.90408709 7.91664113 9.91532366 6.97007267 7 6 C7 5.34 7 4.68 7 4 C6.030625 3.71125 5.06125 3.4225 4.0625 3.125 C1 2 1 2 0 0 Z " fill="#C8E9C7" transform="translate(407,186)"/>
<path d="M0 0 C8.10816336 0.45045352 14.29348305 3.5289887 21 8 C12.86304398 7.72876813 7.06820635 4.91083499 0 1 C0 0.67 0 0.34 0 0 Z " fill="#B7DAB3" transform="translate(325,337)"/>
<path d="M0 0 C0 4.07907331 -1.56697866 5.05743168 -4.3125 8 C-5.11300781 8.86625 -5.91351563 9.7325 -6.73828125 10.625 C-8.46946687 12.44289439 -10.21073329 14.23968582 -12 16 C-12.66 15.67 -13.32 15.34 -14 15 C-12.625 13 -12.625 13 -11 11 C-10.34 11 -9.68 11 -9 11 C-9 10.34 -9 9.68 -9 9 C-8.34 9 -7.68 9 -7 9 C-6.773125 8.443125 -6.54625 7.88625 -6.3125 7.3125 C-4.64103234 4.36753316 -2.44723648 2.31843456 0 0 Z " fill="#B8E5B7" transform="translate(390,261)"/>
<path d="M0 0 C8.01642178 1.96629213 8.01642178 1.96629213 10 5 C10 6.32 10 7.64 10 9 C6.55729549 7.46990911 3.81074178 5.5068778 1 3 C0.67 2.01 0.34 1.02 0 0 Z " fill="#B3DAB2" transform="translate(306,322)"/>
<path d="M0 0 C0.33 0 0.66 0 1 0 C1.27908468 5.42121998 0.42721053 9.37857235 -1.5 14.4375 C-1.73847656 15.07365234 -1.97695313 15.70980469 -2.22265625 16.36523438 C-2.80490924 17.91402732 -3.40101069 19.45760253 -4 21 C-5.09178911 17.72463268 -4.93042848 16.95586381 -4.00390625 13.76953125 C-3.77509766 12.96708984 -3.54628906 12.16464844 -3.31054688 11.33789062 C-2.94026367 10.08782227 -2.94026367 10.08782227 -2.5625 8.8125 C-2.31951172 7.96751953 -2.07652344 7.12253906 -1.82617188 6.25195312 C-1.22506507 4.1657589 -0.61352166 2.08257699 0 0 Z " fill="#BFE3BA" transform="translate(452,278)"/>
<path d="M0 0 C3.35997759 5.03996638 4.29282455 9.99709677 4 16 C3.34 16 2.68 16 2 16 C0.5192152 13.0384304 0.64685963 10.16493705 0.4375 6.875 C0.35371094 5.59367188 0.26992188 4.31234375 0.18359375 2.9921875 C0.12300781 2.00476563 0.06242187 1.01734375 0 0 Z " fill="#ACD9AA" transform="translate(449,231)"/>
<path d="M0 0 C0.99 0 1.98 0 3 0 C3 0.66 3 1.32 3 2 C-3.71674403 6.24936867 -9.00998172 7.75390645 -17 6 C-17 5.67 -17 5.34 -17 5 C-16.19175781 4.97421875 -15.38351563 4.9484375 -14.55078125 4.921875 C-6.47398682 4.55615347 -6.47398682 4.55615347 0 0 Z " fill="#B6B6B6" transform="translate(216,90)"/>
<path d="M0 0 C0.33 0 0.66 0 1 0 C1.20496094 0.90363281 1.40992188 1.80726562 1.62109375 2.73828125 C1.89050781 3.91777344 2.15992188 5.09726563 2.4375 6.3125 C2.83775391 8.07013672 2.83775391 8.07013672 3.24609375 9.86328125 C3.95313969 13.00236971 3.95313969 13.00236971 5 16 C3.0625 15.6875 3.0625 15.6875 1 15 C-0.09506492 11.71480525 -0.09960608 9.26336585 -0.0625 5.8125 C-0.05347656 4.72582031 -0.04445313 3.63914062 -0.03515625 2.51953125 C-0.02355469 1.68808594 -0.01195312 0.85664062 0 0 Z " fill="#9A9A9A" transform="translate(309,77)"/>
<path d="M0 0 C1.32 0.33 2.64 0.66 4 1 C2.89902432 2.12812303 1.79408444 3.25237811 0.6875 4.375 C0.07261719 5.00148438 -0.54226563 5.62796875 -1.17578125 6.2734375 C-3 8 -3 8 -6 10 C-6.99 9.67 -7.98 9.34 -9 9 C-8.071875 8.443125 -7.14375 7.88625 -6.1875 7.3125 C-3.0580593 5.04212145 -1.70245949 3.40491897 0 0 Z " fill="#C0E0BD" transform="translate(425,324)"/>
<path d="M0 0 C0.99 0.33 1.98 0.66 3 1 C4.72795352 1.06802967 6.45835365 1.08495645 8.1875 1.0625 C9.08855469 1.05347656 9.98960937 1.04445313 10.91796875 1.03515625 C11.94857422 1.01775391 11.94857422 1.01775391 13 1 C12.67 1.99 12.34 2.98 12 4 C10.37509046 4.02698189 8.75005367 4.04638757 7.125 4.0625 C5.76761719 4.07990234 5.76761719 4.07990234 4.3828125 4.09765625 C2 4 2 4 0 3 C0 2.01 0 1.02 0 0 Z " fill="#75B772" transform="translate(351,291)"/>
<path d="M0 0 C1.11446301 3.80039903 0.79584021 5.40831958 -1 9 C-2.29788956 11.02318078 -3.62464661 13.02866014 -5 15 C-5.33 14.34 -5.66 13.68 -6 13 C-5.10333658 10.75689987 -4.10853317 8.55245679 -3.0625 6.375 C-2.49660156 5.18648437 -1.93070312 3.99796875 -1.34765625 2.7734375 C-0.90292969 1.85820312 -0.45820313 0.94296875 0 0 Z " fill="#BFDFBF" transform="translate(293,219)"/>
<path d="M0 0 C-1.375 1.5 -1.375 1.5 -3 3 C-3.66 3 -4.32 3 -5 3 C-5 5.64 -5 8.28 -5 11 C-5.66 11 -6.32 11 -7 11 C-7.28782489 7.94905619 -7.44653726 5.03968138 -7 2 C-3.05660377 -1.52830189 -3.05660377 -1.52830189 0 0 Z " fill="#808080" transform="translate(238,56)"/>
<path d="M0 0 C5.32737077 -0.43666974 5.32737077 -0.43666974 8 0 C10.0625 2.375 10.0625 2.375 11 5 C10.67 5.66 10.34 6.32 10 7 C9.484375 6.360625 8.96875 5.72125 8.4375 5.0625 C5.34064377 2.44208319 2.97932377 2.30610183 -1 2 C-0.67 1.34 -0.34 0.68 0 0 Z " fill="#B7DEB4" transform="translate(336,255)"/>
<path d="M0 0 C3.53600465 1.91135386 5.78972846 3.62642766 8 7 C7.34 7.66 6.68 8.32 6 9 C3.72494996 6.83328568 1.76424908 4.60436769 0 2 C0 1.34 0 0.68 0 0 Z " fill="#A6D2A4" transform="translate(340,279)"/>
<path d="M0 0 C0.66 0 1.32 0 2 0 C1.52797514 4.24822374 -0.96655518 6.19989709 -4 9 C-4.99 8.67 -5.98 8.34 -7 8 C-5.88200014 6.66079162 -4.75538103 5.32877444 -3.625 4 C-2.68527344 2.88625 -2.68527344 2.88625 -1.7265625 1.75 C-1.15679687 1.1725 -0.58703125 0.595 0 0 Z " fill="#7FBD7C" transform="translate(376,277)"/>
<path d="M0 0 C3.96 0 7.92 0 12 0 C12.33 2.31 12.66 4.62 13 7 C12.34 7 11.68 7 11 7 C10.67 5.02 10.34 3.04 10 1 C6.7 1 3.4 1 0 1 C0 0.67 0 0.34 0 0 Z " fill="#818181" transform="translate(187,248)"/>
<path d="M0 0 C3.29967665 2.80472516 5.08459104 6.16918209 7 10 C6.67 10.99 6.34 11.98 6 13 C3.01947605 10.44526518 1.53659812 7.58539561 0 4 C0 2.68 0 1.36 0 0 Z " fill="#B0D8AE" transform="translate(442,218)"/>
<path d="M0 0 C0.66 0.33 1.32 0.66 2 1 C0.92173635 2.27513763 -0.16285519 3.54492569 -1.25 4.8125 C-1.85328125 5.52019531 -2.4565625 6.22789062 -3.078125 6.95703125 C-4.92370398 8.91889671 -6.79945332 10.45669625 -9 12 C-7.55575365 8.76138697 -5.74227753 6.38030837 -3.375 3.75 C-2.74335938 3.04359375 -2.11171875 2.3371875 -1.4609375 1.609375 C-0.97882813 1.07828125 -0.49671875 0.5471875 0 0 Z " fill="#BDDFBA" transform="translate(309,199)"/>
<path d="M0 0 C1.86562642 1.57297914 2.90238443 2.45510217 3.34057617 4.90112305 C3.32486572 5.59761963 3.30915527 6.29411621 3.29296875 7.01171875 C3.28330078 7.76904297 3.27363281 8.52636719 3.26367188 9.30664062 C3.23853516 10.09232422 3.21339844 10.87800781 3.1875 11.6875 C3.17396484 12.48478516 3.16042969 13.28207031 3.14648438 14.10351562 C3.11117089 16.06929967 3.05736447 18.03473582 3 20 C2.67 20 2.34 20 2 20 C1.93941406 18.97519531 1.87882812 17.95039062 1.81640625 16.89453125 C1.73194974 15.53384305 1.64730433 14.17316657 1.5625 12.8125 C1.52318359 12.13896484 1.48386719 11.46542969 1.44335938 10.77148438 C1.21072435 7.10300898 0.82792989 3.58305794 0 0 Z " fill="#8B8B8B" transform="translate(335,30)"/>
<path d="M0 0 C2.70269923 2.70269923 3.70570258 5.4252738 5 9 C4.6875 11.4375 4.6875 11.4375 4 13 C4 12.34 4 11.68 4 11 C3.34 11 2.68 11 2 11 C0.80712589 7.12315913 0 4.08378077 0 0 Z " fill="#C2C2C2" transform="translate(266,292)"/>
<path d="M0 0 C-0.33 1.32 -0.66 2.64 -1 4 C-4.3 3.67 -7.6 3.34 -11 3 C-7.97062848 -0.02937152 -4.18236037 0 0 0 Z " fill="#85C081" transform="translate(402,232)"/>
<path d="M0 0 C0.66 0.33 1.32 0.66 2 1 C0.71480435 3.86697492 -0.57129254 5.97607712 -3 8 C-3.66 8 -4.32 8 -5 8 C-4.67 6.68 -4.34 5.36 -4 4 C-3.34 4 -2.68 4 -2 4 C-1.34 2.68 -0.68 1.36 0 0 Z " fill="#8E8E8E" transform="translate(131,58)"/>
<path d="M0 0 C6.57142857 5 6.57142857 5 8 10 C7.4225 9.38125 6.845 8.7625 6.25 8.125 C4.19750179 6.18652947 2.56633418 5.09985751 0 4 C0 2.68 0 1.36 0 0 Z " fill="#BDE0BB" transform="translate(430,202)"/>
<path d="M0 0 C1.32 0.33 2.64 0.66 4 1 C4 6.28 4 11.56 4 17 C3.67 17 3.34 17 3 17 C2.92652344 15.53626953 2.92652344 15.53626953 2.8515625 14.04296875 C2.77679688 12.77066406 2.70203125 11.49835938 2.625 10.1875 C2.55539062 8.92292969 2.48578125 7.65835938 2.4140625 6.35546875 C2.23897061 2.87244766 2.23897061 2.87244766 0 0 Z " fill="#D3D3D3" transform="translate(385,70)"/>
<path d="M0 0 C0 0.66 0 1.32 0 2 C-1.65071396 3.02611949 -3.31970006 4.02308143 -5 5 C-6.75149165 6.58245275 -6.75149165 6.58245275 -8 8 C-8.99 7.67 -9.98 7.34 -11 7 C-9.54634731 5.82750647 -8.08692581 4.66216184 -6.625 3.5 C-5.40683594 2.52546875 -5.40683594 2.52546875 -4.1640625 1.53125 C-2 0 -2 0 0 0 Z " fill="#85BB82" transform="translate(325,190)"/>
<path d="M0 0 C0.8971875 0.309375 0.8971875 0.309375 1.8125 0.625 C0.843125 1.24375 -0.12625 1.8625 -1.125 2.5 C-4.21585362 4.28178846 -4.21585362 4.28178846 -5.1875 6.625 C-5.8475 6.625 -6.5075 6.625 -7.1875 6.625 C-4.6484375 -0.796875 -4.6484375 -0.796875 0 0 Z " fill="#A7A7A7" transform="translate(317.1875,27.375)"/>
<path d="M0 0 C4.40114397 0.50298788 6.71195019 2.08772731 10 5 C9.67 5.66 9.34 6.32 9 7 C8.34 6.67 7.68 6.34 7 6 C7 5.34 7 4.68 7 4 C6.030625 3.71125 5.06125 3.4225 4.0625 3.125 C1 2 1 2 0 0 Z " fill="#C0E0BD" transform="translate(407,186)"/>
<path d="M0 0 C3.09592835 3.5087188 4.74194623 6.49197399 6 11 C3.66475218 8.74259377 1.81294927 6.7194239 0 4 C0 2.68 0 1.36 0 0 Z " fill="#B7DFB3" transform="translate(295,306)"/>
<path d="M0 0 C3.36720387 1.39332574 4.9859524 2.9789286 7 6 C4.625 5.8125 4.625 5.8125 2 5 C0.6875 2.4375 0.6875 2.4375 0 0 Z " fill="#A6D9A4" transform="translate(331,271)"/>
<path d="M0 0 C0.8125 1.6875 0.8125 1.6875 1 4 C-1.4375 6.75 -1.4375 6.75 -4 9 C-2.94124926 5.59687262 -1.99097846 2.98646769 0 0 Z " fill="#A0CF9E" transform="translate(289,231)"/>
<path d="M0 0 C0.33 0 0.66 0 1 0 C1 3.96 1 7.92 1 12 C0.01 12.33 -0.98 12.66 -2 13 C-1.34 8.71 -0.68 4.42 0 0 Z " fill="#888888" transform="translate(219,77)"/>
<path d="M0 0 C2 1.25 2 1.25 4 3 C4 4.32 4 5.64 4 7 C2.68 6.34 1.36 5.68 0 5 C0 3.35 0 1.7 0 0 Z " fill="#A1D09F" transform="translate(312,324)"/>
<path d="M0 0 C0.66 0.66 1.32 1.32 2 2 C-0.97 4.475 -0.97 4.475 -4 7 C-4 4 -4 4 -2 1.8125 C-1.34 1.214375 -0.68 0.61625 0 0 Z " fill="#82C07C" transform="translate(393,260)"/>
<path d="M0 0 C3.16115776 1.36983503 3.9927092 1.9890638 6 5 C5.01 5.495 5.01 5.495 4 6 C4 5.34 4 4.68 4 4 C2.68 4 1.36 4 0 4 C0 2.68 0 1.36 0 0 Z " fill="#7FBD7B" transform="translate(417,193)"/>
</svg>
