<?xml version="1.0" encoding="UTF-8"?>
<svg version="1.1" xmlns="http://www.w3.org/2000/svg" width="225" height="225">
<path d="M0 0 C0.97997955 -0.00860046 1.95995911 -0.01720093 2.96963501 -0.02606201 C4.04862564 -0.03032196 5.12761627 -0.03458191 6.23930359 -0.03897095 C7.37273193 -0.04714844 8.50616028 -0.05532593 9.67393494 -0.06375122 C13.43749965 -0.08863351 17.2010266 -0.10512756 20.96464539 -0.11953735 C22.24738028 -0.12486103 23.53011517 -0.13018471 24.85172081 -0.13566971 C30.24156878 -0.15690429 35.63140441 -0.17603442 41.02128315 -0.1872921 C48.74515048 -0.20353094 56.46851471 -0.23670681 64.19219238 -0.29369295 C70.27799906 -0.33706343 76.36360839 -0.35303719 82.44956017 -0.35942459 C85.03838369 -0.36615456 87.6271994 -0.38142148 90.2159214 -0.4053154 C93.83608648 -0.43682588 97.45497568 -0.43702423 101.07524109 -0.42959595 C102.14815903 -0.44600128 103.22107697 -0.46240662 104.32650757 -0.47930908 C111.61855581 -0.41794084 111.61855581 -0.41794084 115.43600464 2.56097412 C116.06807327 3.41663971 116.70014191 4.2723053 117.35136414 5.15390015 C118.30269226 6.17870483 118.30269226 6.17870483 119.27323914 7.22421265 C123.65071298 12.14419393 127.90462633 17.13915395 131.96464539 22.32577515 C134.28753898 25.22036079 134.28753898 25.22036079 137.14433289 27.60702515 C143.5657605 33.65711491 144.95298765 38.03965019 145.23002625 46.73568726 C145.20624896 69.33520805 145.20624896 69.33520805 137.30632019 77.22210693 C133.57881903 81.54007627 133.52363673 85.16212062 133.64189148 90.69760132 C133.63768692 91.62854111 133.63348236 92.5594809 133.62915039 93.51863098 C133.62147449 96.57871485 133.6549622 99.63697054 133.68730164 102.6968689 C133.68620742 104.82962943 133.68189745 106.96239052 133.67451477 109.09513855 C133.66112544 114.69811531 133.67991785 120.30044937 133.70896912 125.90335083 C133.75439451 134.88148138 133.76997759 143.85927032 133.74942398 152.83748817 C133.74979733 155.97318394 133.77557809 159.10798654 133.80311584 162.24354553 C133.80380054 164.16182446 133.80349816 166.08010407 133.80204773 167.99838257 C133.82373268 169.30682129 133.82373268 169.30682129 133.84585571 170.64169312 C133.82183718 174.32174304 133.74156822 176.5191341 131.78761292 179.69773865 C128.50235894 181.66135599 125.63696282 181.68475868 121.92070007 181.60800171 C120.80791687 181.60887787 120.80791687 181.60887787 119.6726532 181.60977173 C117.22653512 181.6069904 114.78164367 181.575898 112.33573914 181.54452515 C110.63752407 181.53706288 108.93930037 181.53136988 107.24107361 181.52737427 C102.77580404 181.51211666 98.31105661 181.47283404 93.84599304 181.42855835 C89.28795942 181.38760822 84.72984127 181.36936382 80.17167664 181.34921265 C71.23134332 181.30633968 62.29139718 181.238087 53.35136414 181.15390015 C53.34549789 180.20620758 53.33963165 179.25851501 53.33358765 178.28210449 C53.27645204 169.36457616 53.20373905 160.44729384 53.11564922 151.53001595 C53.07086183 146.94518912 53.03162449 142.36045287 53.00492859 137.77548218 C52.97897866 133.35329679 52.93863618 128.93145845 52.88817787 124.50948715 C52.87145264 122.81978537 52.85997371 121.13002349 52.85375023 119.4402504 C52.84417011 117.0789652 52.81618641 114.71857926 52.78373718 112.35751343 C52.78517227 111.65404785 52.78660736 110.95058228 52.78808594 110.22579956 C52.78089102 108.07639144 52.78089102 108.07639144 52.35136414 105.15390015 C49.14722223 103.01780554 48.31780717 102.90208473 44.63627625 102.89511108 C43.20480507 102.8856546 43.20480507 102.8856546 41.74441528 102.87600708 C40.71623184 102.88005554 39.6880484 102.884104 38.62870789 102.88827515 C37.04407494 102.88540497 37.04407494 102.88540497 35.4274292 102.88247681 C33.19398256 102.88111551 30.960528 102.88480808 28.72709656 102.89315796 C25.29893836 102.90386867 21.87130297 102.89325514 18.44316101 102.88046265 C16.27584214 102.88178404 14.1085236 102.88434602 11.94120789 102.88827515 C10.39589638 102.88220245 10.39589638 102.88220245 8.81936646 102.87600708 C7.39262352 102.88546356 7.39262352 102.88546356 5.9370575 102.89511108 C4.67821999 102.89749786 4.67821999 102.89749786 3.39395142 102.89993286 C1.12613653 102.96949007 1.12613653 102.96949007 -0.64863586 105.15390015 C-0.86574219 107.59084427 -0.95999156 109.91775322 -0.96748352 112.35751343 C-0.98255196 113.46985855 -0.98255196 113.46985855 -0.9979248 114.60467529 C-1.02886982 117.06117969 -1.04582306 119.51757457 -1.06269836 121.97421265 C-1.08140094 123.67530263 -1.10097366 125.37638326 -1.12138367 127.07745361 C-1.17280718 131.55889374 -1.21237802 136.04036398 -1.24952698 140.52194214 C-1.28950275 145.0933483 -1.34062432 149.66462809 -1.39082336 154.2359314 C-1.48770355 163.20849901 -1.57206946 172.18113781 -1.64863586 181.15390015 C-4.89833356 181.2702805 -8.14749416 181.34120595 -11.39863586 181.40390015 C-12.31902649 181.43741577 -13.23941711 181.4709314 -14.18769836 181.50546265 C-15.07715149 181.51835327 -15.96660461 181.5312439 -16.88301086 181.54452515 C-17.69995422 181.56547241 -18.51689758 181.58641968 -19.3585968 181.60800171 C-22.70526288 180.94437709 -23.72756997 179.98257557 -25.64863586 177.15390015 C-26.21561583 174.09951772 -26.15066926 171.09675562 -26.09931946 167.99838257 C-26.10001938 167.07269974 -26.1007193 166.14701691 -26.10144043 165.19328308 C-26.10072333 163.18420976 -26.09100426 161.17512413 -26.07336044 159.16612816 C-26.04685975 155.98371678 -26.04677627 152.80229902 -26.05406189 149.61979675 C-26.06972822 140.57233086 -26.03539041 131.52520963 -25.98847961 122.47787476 C-25.96160477 116.94231185 -25.96378261 111.40734408 -25.98294449 105.87175941 C-25.98402553 103.76466622 -25.97358884 101.6575339 -25.95132065 99.55055809 C-25.92023193 96.59890315 -25.92583176 93.64934278 -25.93916321 90.69760132 C-25.92065811 89.83138153 -25.90215302 88.96516174 -25.88308716 88.07269287 C-25.95869651 82.43334059 -27.21571664 79.60609047 -31.22076893 75.60802746 C-37.38387779 69.33157081 -37.35109377 58.72583151 -37.33613586 50.52890015 C-37.37674133 49.4615564 -37.4173468 48.39421265 -37.45918274 47.29452515 C-37.49446869 39.08802187 -35.22234726 35.01591948 -29.64863586 29.15390015 C-28.70579675 28.03576869 -27.76894188 26.91254476 -26.84004211 25.7828064 C-25.96522861 24.75939666 -25.08892475 23.73725901 -24.21113586 22.71640015 C-18.8336737 16.41287615 -13.6128578 9.99579673 -8.55097961 3.43515015 C-5.77770569 0.10949929 -4.16623121 0.02716976 0 0 Z M-9.00679016 21.20297241 C-9.81430054 22.44219085 -10.59474628 23.70000031 -11.33198547 24.98226929 C-13.2565322 28.15654022 -15.49100672 31.13321934 -17.64863586 34.15390015 C-4.77863586 34.15390015 8.09136414 34.15390015 21.35136414 34.15390015 C23.08386414 29.26577515 23.08386414 29.26577515 24.85136414 24.27890015 C25.39953796 22.74000122 25.39953796 22.74000122 25.95878601 21.17001343 C26.24302429 20.36289917 26.52726257 19.55578491 26.82011414 18.72421265 C27.11337585 17.89679565 27.40663757 17.06937866 27.70878601 16.21688843 C28.45049315 14.1957723 28.45049315 14.1957723 28.35136414 12.15390015 C7.05522463 9.46925388 7.05522463 9.46925388 -9.00679016 21.20297241 Z M41.35136414 12.15390015 C40.19636414 15.41265015 39.04136414 18.67140015 37.85136414 22.02890015 C37.30319031 23.56779907 37.30319031 23.56779907 36.74394226 25.13778687 C36.45970398 25.94490112 36.1754657 26.75201538 35.88261414 27.58358765 C35.58935242 28.41100464 35.2960907 29.23842163 34.99394226 30.09091187 C34.25223512 32.112028 34.25223512 32.112028 34.35136414 34.15390015 C47.22136414 34.15390015 60.09136414 34.15390015 73.35136414 34.15390015 C70.48749083 23.05773725 70.48749083 23.05773725 66.35136414 12.15390015 C58.10136414 12.15390015 49.85136414 12.15390015 41.35136414 12.15390015 Z M79.35136414 12.15390015 C79.76137616 13.75978057 80.17989899 15.3634875 80.60136414 16.96640015 C80.83339539 17.85972046 81.06542664 18.75304077 81.30448914 19.6734314 C82.77682067 24.56838437 84.60451463 29.35006402 86.35136414 34.15390015 C99.22136414 34.15390015 112.09136414 34.15390015 125.35136414 34.15390015 C123.37136414 31.51390015 121.39136414 28.87390015 119.35136414 26.15390015 C118.61659851 24.88546265 117.88183289 23.61702515 117.12480164 22.31015015 C114.47034437 18.05511163 111.88647179 14.49964548 107.35136414 12.15390015 C98.16282582 10.40019574 88.60813526 11.28975758 79.35136414 12.15390015 Z M-24.64863586 46.15390015 C-24.96624168 61.5963496 -24.96624168 61.5963496 -17.51582336 73.6109314 C-13.03351253 77.31493303 -7.76240308 78.85723106 -2.08613586 79.65390015 C5.94637648 78.48553471 11.58589472 75.02176028 16.53886414 68.6187439 C21.20015448 61.25455255 19.35136414 55.67344207 19.35136414 46.15390015 C4.83136414 46.15390015 -9.68863586 46.15390015 -24.64863586 46.15390015 Z M31.35136414 46.15390015 C31.39170358 62.24845341 31.39170358 62.24845341 39.10136414 73.96640015 C44.92772198 77.88798715 50.2268883 79.91723684 57.35136414 79.15390015 C64.35297512 77.39326113 69.8548282 73.93403108 73.66386414 67.65390015 C77.24246746 60.23161176 76.35136414 54.89514163 76.35136414 46.15390015 C61.50136414 46.15390015 46.65136414 46.15390015 31.35136414 46.15390015 Z M88.35136414 46.15390015 C87.62307931 60.50352215 87.62307931 60.50352215 93.35136414 72.15390015 C97.97566435 76.68141269 103.1917098 78.78932465 109.60136414 79.52890015 C116.699857 78.81905086 122.43085734 76.6206939 127.35136414 71.34140015 C133.68524044 63.18932876 132.35136414 56.99889822 132.35136414 46.15390015 C117.83136414 46.15390015 103.31136414 46.15390015 88.35136414 46.15390015 Z M66.85868835 103.66122437 C64.71436584 107.20731002 64.79728274 110.51034592 64.85527039 114.5328064 C64.85381516 115.34128525 64.85235992 116.1497641 64.8508606 116.98274231 C64.85251754 118.68818779 64.86405602 120.39364853 64.8848114 122.09896851 C64.91380444 124.71102241 64.90540976 127.32105092 64.89237976 129.93319702 C64.89861632 131.59141002 64.90700661 133.24961661 64.91777039 134.9078064 C64.91483475 135.68910416 64.91189911 136.47040192 64.90887451 137.27537537 C64.89725131 141.32890174 64.89725131 141.32890174 66.63356018 144.86022949 C69.66657757 147.14438164 73.45424628 146.55762916 77.10527039 146.5171814 C77.96192795 146.5176799 78.81858551 146.51817841 79.70120239 146.51869202 C81.51096417 146.51635253 83.32072925 146.50663136 85.13041687 146.49008179 C87.90683429 146.46645996 90.68229346 146.46952521 93.45878601 146.47616577 C95.21595322 146.47059001 96.97311637 146.46348076 98.73027039 146.4546814 C99.98028587 146.45604851 99.98028587 146.45604851 101.2555542 146.45744324 C105.77834598 146.59531712 105.77834598 146.59531712 109.35136414 144.15390015 C109.56364865 141.24814969 109.65532509 138.44016086 109.65214539 135.5328064 C109.65857307 134.24925514 109.65857307 134.24925514 109.66513062 132.93977356 C109.67087882 131.12826422 109.67137058 129.31673179 109.66703796 127.50521851 C109.66388054 124.73081109 109.68732155 121.95747228 109.71269226 119.18319702 C109.71496543 117.42473483 109.71566867 115.66626976 109.71464539 113.9078064 C109.72385513 113.07648697 109.73306488 112.24516754 109.74255371 111.38865662 C109.8257281 107.14448843 109.8257281 107.14448843 108.05769348 103.43609619 C105.13349388 101.23874949 101.62359782 101.70708668 98.10527039 101.7203064 C96.8939872 101.71244362 96.8939872 101.71244362 95.65823364 101.704422 C93.95105641 101.69800129 92.24383494 101.69933947 90.53666687 101.70785522 C87.92656988 101.71635875 85.31866633 101.68761802 82.70878601 101.65585327 C81.04928146 101.65424096 79.38977303 101.65481936 77.73027039 101.6578064 C76.95099686 101.64657242 76.17172333 101.63533844 75.36883545 101.62376404 C72.03590658 101.66654836 69.73412698 101.92244297 66.85868835 103.66122437 Z " fill="#2B2B2B" transform="translate(58.64863586425781,21.846099853515625)"/>
<path d="M0 0 C0.68852554 0.00202423 1.37705109 0.00404846 2.08644104 0.00613403 C3.14261375 0.00469894 3.14261375 0.00469894 4.22012329 0.00323486 C5.71226592 0.00255312 7.2044115 0.00440701 8.69654846 0.00857544 C10.98348147 0.01391591 13.27021737 0.00863443 15.55714417 0.00222778 C17.00441022 0.00288872 18.45167616 0.00417021 19.89894104 0.00613403 C20.58544235 0.0041098 21.27194366 0.00208557 21.97924805 0 C26.82918202 0.0239889 26.82918202 0.0239889 29.05909729 1.13894653 C29.05909729 23.57894653 29.05909729 46.01894653 29.05909729 69.13894653 C17.50909729 69.13894653 5.95909729 69.13894653 -5.94090271 69.13894653 C-5.98101152 52.20857246 -5.98101152 52.20857246 -5.98973083 45.01589966 C-5.99571872 40.09962898 -6.00281755 35.18337684 -6.01634216 30.26712036 C-6.02717296 26.30547825 -6.03317995 22.34385601 -6.03577995 18.38220024 C-6.03763385 16.86746342 -6.04125381 15.35272775 -6.04663277 13.83799934 C-6.05384578 11.72352841 -6.05489354 9.60914059 -6.0544281 7.49465942 C-6.05664871 6.28886734 -6.05886932 5.08307526 -6.06115723 3.84074402 C-5.85698398 -0.74648293 -4.13199762 0.02053941 0 0 Z " fill="#2A2A2A" transform="translate(72.94090270996094,133.86105346679688)"/>
<path d="M0 0 C1.40958984 -0.00193359 1.40958984 -0.00193359 2.84765625 -0.00390625 C3.83636719 -0.00003906 4.82507813 0.00382813 5.84375 0.0078125 C7.32681641 0.00201172 7.32681641 0.00201172 8.83984375 -0.00390625 C9.77957031 -0.00261719 10.71929687 -0.00132812 11.6875 0 C12.55568359 0.00112793 13.42386719 0.00225586 14.31835938 0.00341797 C16.34375 0.1328125 16.34375 0.1328125 17.34375 1.1328125 C17.43088831 2.84053608 17.45075007 4.55179899 17.44140625 6.26171875 C17.43890869 7.19314697 17.43641113 8.1245752 17.43383789 9.08422852 C17.42473389 10.27588623 17.41562988 11.46754395 17.40625 12.6953125 C17.385625 16.4696875 17.365 20.2440625 17.34375 24.1328125 C9.75375 24.1328125 2.16375 24.1328125 -5.65625 24.1328125 C-6.64129144 21.17768818 -6.72285444 19.55264766 -6.5703125 16.5 C-6.52648437 15.61183594 -6.48265625 14.72367188 -6.4375 13.80859375 C-6.3859375 12.88433594 -6.334375 11.96007812 -6.28125 11.0078125 C-6.23742187 10.07582031 -6.19359375 9.14382812 -6.1484375 8.18359375 C-5.71999231 0.00743132 -5.71999231 0.00743132 0 0 Z " fill="#2C2C2C" transform="translate(140.65625,133.8671875)"/>
</svg>
