<?xml version="1.0" encoding="UTF-8"?>
<svg version="1.1" xmlns="http://www.w3.org/2000/svg" width="478" height="373">
<path d="M0 0 C5.15561605 -0.32908188 8.95363024 0.43935282 13.7890625 2.24609375 C15.97286453 3.05121249 15.97286453 3.05121249 18.21875 3.40625 C35.54152606 7.10437073 52.22994262 16.09775622 66 27 C66.99966797 27.78697266 66.99966797 27.78697266 68.01953125 28.58984375 C72.07384658 31.91985874 76.09292352 35.60211506 79 40 C79 40.99 79 41.98 79 43 C79.66 43 80.32 43 81 43 C82.51712598 45.71997735 84.01051422 48.45230314 85.5 51.1875 C86.14388672 52.34088867 86.14388672 52.34088867 86.80078125 53.51757812 C90.63400424 60.60599841 90.63400424 60.60599841 90 65 C90.66 65.33 91.32 65.66 92 66 C92.65807602 68.76512676 93.18377338 71.44850734 93.625 74.25 C93.82065552 75.47638184 93.82065552 75.47638184 94.02026367 76.72753906 C98.02975816 103.41565503 91.03753577 131.56841113 75.3125 153.3359375 C52.36778623 183.61021261 22.24321666 200.40927075 -14.87109375 206.46875 C-17.25638196 206.75836341 -19.59866692 206.91160737 -22 207 C-23.14984375 207.0515625 -24.2996875 207.103125 -25.484375 207.15625 C-60.49363426 207.98650911 -93.6820713 194.56426532 -119.2253418 170.82519531 C-127.36625523 162.96534763 -134.68186406 154.00675641 -140 144 C-140.35473389 143.33427979 -140.70946777 142.66855957 -141.07495117 141.98266602 C-142.17241035 139.89313684 -143.24530461 137.79262582 -144.3125 135.6875 C-144.8703418 134.61532227 -144.8703418 134.61532227 -145.43945312 133.52148438 C-146.35560757 131.71135426 -147.18561641 129.85814137 -148 128 C-147.505 127.01 -147.505 127.01 -147 126 C-142.72538761 126.48938319 -140.67448934 128.95742826 -137.75 131.9375 C-136.85796875 132.83339844 -135.9659375 133.72929687 -135.046875 134.65234375 C-133 137 -133 137 -133 139 C-132.17242187 139.35578125 -132.17242187 139.35578125 -131.328125 139.71875 C-128.43225289 141.31245143 -126.20487963 143.28917273 -123.75 145.5 C-122.41195312 146.69109375 -122.41195312 146.69109375 -121.046875 147.90625 C-119 150 -119 150 -119 152 C-118.1646875 152.1546875 -118.1646875 152.1546875 -117.3125 152.3125 C-113.65629433 153.39948006 -110.85620983 155.10435946 -108.21875 157.86328125 C-91.91819991 173.56117016 -65.69081565 181.44100141 -43.5625 181.3125 C-42.55622559 181.30758545 -41.54995117 181.3026709 -40.51318359 181.29760742 C-28.12152049 181.10207624 -17.11697838 178.64853969 -7.625 170.25 C-1.74728848 163.83499075 -0.82598873 154.36220823 -1 146 C-3.50760026 123.06759121 -13.12813307 100.98387393 -30 85 C-30.825 84.154375 -31.65 83.30875 -32.5 82.4375 C-45.62785065 69.63784561 -61.07017306 64.44964558 -79 63 C-79.33 62.01 -79.66 61.02 -80 60 C-65.02285769 53.63823579 -53.84216829 52.61566137 -38.375 58.25 C-29.67438332 61.80084834 -22.33615801 66.54174639 -15.03125 72.40625 C-12.85099872 74.16400613 -12.85099872 74.16400613 -9.75 76.125 C-6.75905008 78.16428403 -4.53285556 80.40957954 -2 83 C17.32852071 102.16722994 17.32852071 102.16722994 42 111.4375 C47.6691829 111.14904842 51.92165651 109.04093331 55.953125 105.08203125 C64.22048378 95.2688848 64.93405739 84.56827371 64.20703125 72.21142578 C62.91042825 58.36162632 56.12388307 45.54605877 46.50390625 35.70703125 C45 34 45 34 45 32 C44.443125 31.773125 43.88625 31.54625 43.3125 31.3125 C40.35812928 29.63569499 38.36897657 27.42675648 36 25 C32.68966618 22.20935253 32.68966618 22.20935253 29 20 C29 19.34 29 18.68 29 18 C28.01 17.6596875 28.01 17.6596875 27 17.3125 C24.51398485 16.22486837 22.55734778 15.10486922 20.3125 13.625 C16.46996049 11.15063744 12.52719139 9.53449669 8.2734375 7.8984375 C5.6062225 6.84438346 3.2743291 5.76077092 1 4 C0.1875 1.8125 0.1875 1.8125 0 0 Z " fill="#0A673D" transform="translate(268,89)"/>
<path d="M0 0 C1.09957031 0.2165625 2.19914063 0.433125 3.33203125 0.65625 C21.77903908 4.80497465 39.88231589 13.97624797 54 26.5 C56.21145784 28.45373155 58.41317825 30.3192741 60.75 32.125 C63.23040443 34.19200369 65.03529511 36.44588364 67 39 C67.45503906 39.45117188 67.91007813 39.90234375 68.37890625 40.3671875 C76.760004 48.8088715 82.52002149 58.96667521 87.9375 69.4375 C88.25662354 70.04110352 88.57574707 70.64470703 88.90454102 71.26660156 C89.68194148 72.80705048 90.34950412 74.40181683 91 76 C90.67 76.99 90.34 77.98 90 79 C86.62509907 77.55254249 84.61363507 75.73996146 82.125 73.0625 C78.2505632 69.09168417 74.17512473 65.59684457 69.8125 62.1875 C69.23064941 61.73189697 68.64879883 61.27629395 68.04931641 60.80688477 C65.30825425 58.68971236 62.54736504 56.67903735 59.63671875 54.80078125 C57 53 57 53 56 51 C54.35342399 49.96725356 52.68246266 48.97318918 51 48 C49.11990015 46.73672374 47.24520032 45.4653862 45.375 44.1875 C39.74135225 40.42488125 34.01658686 37.10583861 28 34 C27.43361816 33.70125977 26.86723633 33.40251953 26.28369141 33.09472656 C1.49234885 20.03967582 -22.79544947 12.01174945 -51 12 C-52.16660156 11.97679687 -53.33320313 11.95359375 -54.53515625 11.9296875 C-72.77866832 12.35340778 -90.26535818 21.14799957 -103.22265625 33.49609375 C-105 35 -105 35 -107 35 C-107.24492187 35.55042969 -107.48984375 36.10085937 -107.7421875 36.66796875 C-109.26111555 39.48411795 -111.13515589 41.80612841 -113.125 44.3125 C-116.7346073 49.05705676 -119.77012261 53.85990062 -122.5625 59.125 C-122.90877441 59.77637939 -123.25504883 60.42775879 -123.61181641 61.09887695 C-125.4134917 64.37810184 -125.4134917 64.37810184 -126 68 C-124.80503906 68.37511719 -123.61007813 68.75023438 -122.37890625 69.13671875 C-96.30851224 77.46422846 -96.30851224 77.46422846 -89.42578125 88.53125 C-86.74313555 93.75818145 -84.8777934 98.33381465 -84.87402344 104.25170898 C-84.87021667 105.08455917 -84.86640991 105.91740936 -84.86248779 106.77549744 C-84.86146057 107.67329422 -84.86043335 108.571091 -84.859375 109.49609375 C-84.84100597 111.43816238 -84.82143207 113.38021992 -84.80078125 115.32226562 C-84.77218753 118.35150402 -84.75000944 121.38004309 -84.74951172 124.40942383 C-84.7191921 150.52544114 -79.4998583 177.5001417 -60.27734375 196.72265625 C-58.05216365 198.94783635 -57.3401967 199.93822969 -57 203 C-60.30528992 204.10176331 -61.01172946 203.92842183 -64.203125 202.92578125 C-65.01910156 202.66990234 -65.83507812 202.41402344 -66.67578125 202.15039062 C-67.52527344 201.87388672 -68.37476563 201.59738281 -69.25 201.3125 C-70.50103516 200.92674805 -70.50103516 200.92674805 -71.77734375 200.53320312 C-76.96404589 198.87622685 -81.34865925 196.82130505 -86 194 C-87.093125 193.54625 -88.18625 193.0925 -89.3125 192.625 C-108.56002173 184.5589654 -128.90522085 166.82572162 -138 148 C-138.50660156 146.99839844 -139.01320313 145.99679688 -139.53515625 144.96484375 C-140.03917969 143.96582031 -140.54320312 142.96679688 -141.0625 141.9375 C-141.56910156 140.93589844 -142.07570313 139.93429688 -142.59765625 138.90234375 C-152.7751627 117.83859085 -151.77360926 93.08939265 -144.796875 71.23046875 C-142.53369137 65.53669981 -139.74496454 60.82903323 -136 56 C-135.525625 55.195625 -135.05125 54.39125 -134.5625 53.5625 C-126.74458892 40.74112583 -115.00212815 27.61699476 -102 20 C-100.7256066 19.10923843 -99.45481665 18.21330144 -98.1875 17.3125 C-68.87441239 -2.2620203 -34.07186613 -6.78047087 0 0 Z M-132 96 C-132.2011018 100.7258923 -131.75019737 104.80474416 -130.6328125 109.3984375 C-130.26443572 110.91287538 -129.91515247 112.4326901 -129.61523438 113.9621582 C-128.4445126 119.76698702 -126.59309951 125.00732817 -124.25 130.4375 C-123.89583008 131.26644775 -123.54166016 132.09539551 -123.17675781 132.94946289 C-119.7570795 140.80562647 -116.25581419 148.02489542 -110 154 C-109.67 153.01 -109.34 152.02 -109 151 C-109.95885212 149.63677574 -110.97019746 148.31045202 -112 147 C-113.19635067 144.61562592 -114.33787364 142.24008548 -115.4375 139.8125 C-115.74461914 139.1419458 -116.05173828 138.4713916 -116.36816406 137.78051758 C-116.9758915 136.45131436 -117.58158623 135.12117953 -118.18505859 133.79003906 C-118.85853563 132.31073001 -119.54650586 130.83802855 -120.23828125 129.3671875 C-122.34464234 124.82915858 -123.91097951 120.28740347 -125.28125 115.4765625 C-125.97619095 113.0820377 -126.75229905 110.73268475 -127.5625 108.375 C-128.94465085 104.29401776 -130.0090626 100.19242745 -131 96 C-131.33 96 -131.66 96 -132 96 Z M-109 153 C-109.33 153.66 -109.66 154.32 -110 155 C-109.01 156.485 -109.01 156.485 -108 158 C-107.34 157.67 -106.68 157.34 -106 157 C-106.99 155.68 -107.98 154.36 -109 153 Z M-107 159 C-106.34 159.66 -105.68 160.32 -105 161 C-105 160.34 -105 159.68 -105 159 C-105.66 159 -106.32 159 -107 159 Z " fill="#1BA806" transform="translate(267,43)"/>
<path d="M0 0 C1.09957031 0.2165625 2.19914063 0.433125 3.33203125 0.65625 C21.77903908 4.80497465 39.88231589 13.97624797 54 26.5 C56.21145784 28.45373155 58.41317825 30.3192741 60.75 32.125 C63.23040443 34.19200369 65.03529511 36.44588364 67 39 C67.45503906 39.45117188 67.91007813 39.90234375 68.37890625 40.3671875 C76.760004 48.8088715 82.52002149 58.96667521 87.9375 69.4375 C88.25662354 70.04110352 88.57574707 70.64470703 88.90454102 71.26660156 C89.68194148 72.80705048 90.34950412 74.40181683 91 76 C90.67 76.99 90.34 77.98 90 79 C86.62509907 77.55254249 84.61363507 75.73996146 82.125 73.0625 C78.2505632 69.09168417 74.17512473 65.59684457 69.8125 62.1875 C69.23064941 61.73189697 68.64879883 61.27629395 68.04931641 60.80688477 C65.30825425 58.68971236 62.54736504 56.67903735 59.63671875 54.80078125 C57 53 57 53 56 51 C54.35342399 49.96725356 52.68246266 48.97318918 51 48 C49.11990015 46.73672374 47.24520032 45.4653862 45.375 44.1875 C39.74135225 40.42488125 34.01658686 37.10583861 28 34 C27.43361816 33.70125977 26.86723633 33.40251953 26.28369141 33.09472656 C1.49234885 20.03967582 -22.79544947 12.01174945 -51 12 C-52.16660156 11.97679687 -53.33320313 11.95359375 -54.53515625 11.9296875 C-72.77866832 12.35340778 -90.26535818 21.14799957 -103.22265625 33.49609375 C-105 35 -105 35 -107 35 C-107.28875 35.639375 -107.5775 36.27875 -107.875 36.9375 C-109 39 -109 39 -111 40 C-109.67461876 36.02385628 -107.98769086 33.88810116 -105 31 C-105 30.34 -105 29.68 -105 29 C-105.99 28.67 -106.98 28.34 -108 28 C-108.24621094 28.58523437 -108.49242187 29.17046875 -108.74609375 29.7734375 C-110.19373768 32.34402017 -111.79242482 33.75455693 -114.0625 35.625 C-116.97875712 37.95485552 -116.97875712 37.95485552 -119 41 C-119.639375 41.309375 -120.27875 41.61875 -120.9375 41.9375 C-123.31971493 42.95345922 -123.31971493 42.95345922 -125 46 C-125.66 46 -126.32 46 -127 46 C-127.33 46.99 -127.66 47.98 -128 49 C-129.485 49.495 -129.485 49.495 -131 50 C-129.48761514 44.7369007 -126.06996072 41.4761806 -122.375 37.625 C-121.42765991 36.62581543 -121.42765991 36.62581543 -120.46118164 35.60644531 C-114.78219976 29.66876478 -109.2109429 24.04516309 -102 20 C-100.72863874 19.10491606 -99.45788907 18.20896323 -98.1875 17.3125 C-68.87441239 -2.2620203 -34.07186613 -6.78047087 0 0 Z M-101 22 C-100.67 22.66 -100.34 23.32 -100 24 C-99.67 23.34 -99.34 22.68 -99 22 C-99.66 22 -100.32 22 -101 22 Z M-102 24 C-103.485 25.98 -103.485 25.98 -105 28 C-103.68 28 -102.36 28 -101 28 C-101.33 26.68 -101.66 25.36 -102 24 Z " fill="#83EE07" transform="translate(267,43)"/>
<path d="M0 0 C3.944162 2.58468488 6.25824003 5.54912701 7.7109375 10.078125 C8.61640218 16.9143833 7.89783749 21.56904607 3.7109375 27.078125 C-0.83592487 31.09628244 -5.31916064 32.3490106 -11.2890625 32.078125 C-16.7273591 30.35599774 -21.53464096 27.91861702 -24.6015625 22.953125 C-25.92218074 17.43053962 -25.96460769 12.18423646 -24.2265625 6.765625 C-18.39689182 -1.3206924 -9.57648664 -3.85674206 0 0 Z " fill="#0B663D" transform="translate(314.2890625,154.921875)"/>
<path d="M0 0 C1.02174316 -0.00475342 2.04348633 -0.00950684 3.09619141 -0.0144043 C9.07446038 -0.00130895 14.90344148 0.17134194 20.8125 1.125 C21.3075 2.115 21.3075 2.115 21.8125 3.125 C24.25869143 3.74314776 24.25869143 3.74314776 27.125 4.125 C30.78322601 4.67202445 33.56172391 5.37616476 36.8125 7.125 C38.4521875 7.5890625 38.4521875 7.5890625 40.125 8.0625 C43.85811982 9.13814469 47.24527488 10.59618924 50.8125 12.125 C53.13257031 12.86506157 55.45748845 13.50020102 57.8125 14.125 C57.8125 15.115 57.8125 16.105 57.8125 17.125 C52.51444834 15.68327355 47.49925472 14.03023561 42.5 11.75 C26.53941675 5.02331741 9.98780362 3.13215489 -7.1875 3.125 C-8.35410156 3.10179687 -9.52070313 3.07859375 -10.72265625 3.0546875 C-28.96616832 3.47840778 -46.45285818 12.27299957 -59.41015625 24.62109375 C-61.1875 26.125 -61.1875 26.125 -63.1875 26.125 C-63.47625 26.764375 -63.765 27.40375 -64.0625 28.0625 C-65.1875 30.125 -65.1875 30.125 -67.1875 31.125 C-65.86211876 27.14885628 -64.17519086 25.01310116 -61.1875 22.125 C-61.1875 21.465 -61.1875 20.805 -61.1875 20.125 C-62.1775 19.795 -63.1675 19.465 -64.1875 19.125 C-64.43371094 19.71023437 -64.67992187 20.29546875 -64.93359375 20.8984375 C-66.38123768 23.46902017 -67.97992482 24.87955693 -70.25 26.75 C-73.16625712 29.07985552 -73.16625712 29.07985552 -75.1875 32.125 C-75.826875 32.434375 -76.46625 32.74375 -77.125 33.0625 C-79.50721493 34.07845922 -79.50721493 34.07845922 -81.1875 37.125 C-81.8475 37.125 -82.5075 37.125 -83.1875 37.125 C-83.5175 38.115 -83.8475 39.105 -84.1875 40.125 C-85.6725 40.62 -85.6725 40.62 -87.1875 41.125 C-85.67511514 35.8619007 -82.25746072 32.6011806 -78.5625 28.75 C-77.61515991 27.75081543 -77.61515991 27.75081543 -76.64868164 26.73144531 C-70.96969976 20.79376478 -65.3984429 15.17016309 -58.1875 11.125 C-56.70402438 10.13140345 -55.22531532 9.13067328 -53.75 8.125 C-50.33584481 5.84320628 -46.99593463 3.70410704 -43.1875 2.125 C-42.5275 2.455 -41.8675 2.785 -41.1875 3.125 C-41.1875 3.785 -41.1875 4.445 -41.1875 5.125 C-38.8775 5.455 -36.5675 5.785 -34.1875 6.125 C-34.1875 5.465 -34.1875 4.805 -34.1875 4.125 C-22.86505304 0.14210383 -11.89030752 0.04596072 0 0 Z M-57.1875 13.125 C-56.8575 13.785 -56.5275 14.445 -56.1875 15.125 C-55.8575 14.465 -55.5275 13.805 -55.1875 13.125 C-55.8475 13.125 -56.5075 13.125 -57.1875 13.125 Z M-58.1875 15.125 C-59.6725 17.105 -59.6725 17.105 -61.1875 19.125 C-59.8675 19.125 -58.5475 19.125 -57.1875 19.125 C-57.5175 17.805 -57.8475 16.485 -58.1875 15.125 Z " fill="#6ED237" transform="translate(223.1875,51.875)"/>
<path d="M0 0 C4.54769975 0.60635997 8.21124623 2.45581291 12.1875 4.625 C12.84951416 4.98327881 13.51152832 5.34155762 14.19360352 5.71069336 C22.24082093 10.13856939 29.43807339 15.28384296 36.25390625 21.44140625 C37.6993019 22.73159163 39.21691785 23.94034561 40.75 25.125 C43.23040443 27.19200369 45.03529511 29.44588364 47 32 C47.68255859 32.67675781 47.68255859 32.67675781 48.37890625 33.3671875 C56.760004 41.8088715 62.52002149 51.96667521 67.9375 62.4375 C68.25662354 63.04110352 68.57574707 63.64470703 68.90454102 64.26660156 C69.68194148 65.80705048 70.34950412 67.40181683 71 69 C70.505 70.485 70.505 70.485 70 72 C66.62509907 70.55254249 64.61363507 68.73996146 62.125 66.0625 C58.2505632 62.09168417 54.17512473 58.59684457 49.8125 55.1875 C49.23064941 54.73189697 48.64879883 54.27629395 48.04931641 53.80688477 C45.30825425 51.68971236 42.54736504 49.67903735 39.63671875 47.80078125 C37 46 37 46 36 44 C34.35194973 42.9696078 32.68154482 41.97477422 31 41 C29.21891208 39.78574006 27.44792224 38.55653172 25.6875 37.3125 C24.80449219 36.68988281 23.92148437 36.06726563 23.01171875 35.42578125 C22.34785156 34.95527344 21.68398438 34.48476562 21 34 C22.7265625 33.3359375 22.7265625 33.3359375 25 33 C27.1484375 34.0390625 27.1484375 34.0390625 29.375 35.625 C30.15875 36.18058594 30.9425 36.73617187 31.75 37.30859375 C35.23531809 39.92863322 38.64893025 42.5450018 41.625 45.75 C43.32642969 47.29675426 44.76134195 47.61402447 47 48 C47 48.99 47 49.98 47 51 C47.78375 51.268125 48.5675 51.53625 49.375 51.8125 C52 53 52 53 54 56 C55.96752828 57.06246527 57.96587579 58.07137808 60 59 C60 59.66 60 60.32 60 61 C60.99 61 61.98 61 63 61 C62.67 59.35 62.34 57.7 62 56 C61.34 56 60.68 56 60 56 C60 55.01 60 54.02 60 53 C59.01 52.67 58.02 52.34 57 52 C56.27425635 50.28460593 55.55333076 48.56672086 54.875 46.83203125 C53.50583673 43.96534566 51.30827305 42.14339641 49 40 C46.65789338 37.42301163 44.43513436 34.92146099 42.9375 31.75 C41.71625745 29.47034725 40.35442297 28.94176919 38 28 C38 27.01 38 26.02 38 25 C37.278125 24.773125 36.55625 24.54625 35.8125 24.3125 C32.43417673 22.73594914 30.56203262 20.69013425 28 18 C24.85578976 15.03545892 21.93422191 13.50609609 17.9375 12 C13.9942957 10.50970073 11.89681644 9.08370782 9 6 C6.06596738 4.2066946 3.04852362 2.58940121 0 1 C0 0.67 0 0.34 0 0 Z " fill="#B6F35B" transform="translate(287,50)"/>
<path d="M0 0 C-3.38979965 1.12993322 -3.98035883 0.88521113 -7.1875 -0.3125 C-13.85199048 -2.67037305 -20.15967179 -4.16093296 -27.21484375 -4.75390625 C-29 -5 -29 -5 -30 -6 C-51.9987483 -7.65309631 -72.77141302 -6.12584531 -93.02685547 3.17480469 C-96.65906843 4.69384451 -100.10599539 4.75276161 -104 5 C-100.09101773 1.48571109 -96.10460254 -0.38738763 -91.1875 -2.0625 C-90.07568359 -2.44764771 -90.07568359 -2.44764771 -88.94140625 -2.84057617 C-61.53984956 -11.98120139 -26.47528858 -12.63593319 0 0 Z " fill="#C3F28D" transform="translate(286,49)"/>
<path d="M0 0 C1.02867187 0.00064453 2.05734375 0.00128906 3.1171875 0.00195312 C9.14335047 0.03645406 15.04415319 0.22943858 21 1.1875 C21.495 2.1775 21.495 2.1775 22 3.1875 C24.44619143 3.80564776 24.44619143 3.80564776 27.3125 4.1875 C30.97072601 4.73452445 33.74922391 5.43866476 37 7.1875 C38.6396875 7.6515625 38.6396875 7.6515625 40.3125 8.125 C44.04561982 9.20064469 47.43277488 10.65868924 51 12.1875 C53.32007031 12.92756157 55.64498845 13.56270102 58 14.1875 C58 15.1775 58 16.1675 58 17.1875 C52.70194834 15.74577355 47.68675472 14.09273561 42.6875 11.8125 C21.85536025 3.03267099 -6.31947616 -1.17853687 -27.9765625 6.6640625 C-30 7.1875 -30 7.1875 -33 6.1875 C-31.1895935 5.55646152 -29.37653479 4.93303125 -27.5625 4.3125 C-26.55316406 3.96445312 -25.54382813 3.61640625 -24.50390625 3.2578125 C-16.17939674 0.71498574 -8.71564095 -0.10375763 0 0 Z " fill="#A4E568" transform="translate(223,51.8125)"/>
<path d="M0 0 C4.86599438 4.17085232 7.6932046 9.7727636 9 16 C9.11190492 17.70962311 9.17564115 19.42271769 9.20532227 21.13574219 C9.22526749 22.15649841 9.24521271 23.17725464 9.26576233 24.22894287 C9.28247482 25.32386047 9.29918732 26.41877808 9.31640625 27.546875 C9.33718735 28.6732135 9.35796844 29.799552 9.37937927 30.96002197 C9.44474333 34.55661949 9.50369885 38.15328977 9.5625 41.75 C9.6056977 44.1888096 9.6493124 46.62761184 9.69335938 49.06640625 C9.8004113 55.044194 9.90220217 61.02205407 10 67 C9.34 67 8.68 67 8 67 C6.69160626 59.47917003 5.83927919 52.16285451 5.76171875 44.5390625 C5.75294708 43.81233337 5.74417542 43.08560425 5.73513794 42.33685303 C5.70535572 39.35495463 5.6851267 36.37365392 5.69458008 33.39160156 C5.70681255 23.24532174 4.48363934 14.66064859 1.06958008 5.07568359 C0 2 0 2 0 0 Z " fill="#67C251" transform="translate(173,127)"/>
<path d="M0 0 C2.01633914 3.02450871 2.21653997 3.72420388 2.375 7.125 C2.76541838 11.51898141 4.1140684 14.72775656 6.01171875 18.66796875 C8.35493914 24.19722793 9.12697708 30.03207746 9 36 C6.42853943 33.42853943 6.19882003 31.3949583 5.375 27.875 C5.11460937 26.77929688 4.85421875 25.68359375 4.5859375 24.5546875 C4.39257812 23.71164063 4.19921875 22.86859375 4 22 C4.14230808 23.41702513 4.28900746 24.8336096 4.4375 26.25 C4.55931641 27.43335938 4.55931641 27.43335938 4.68359375 28.640625 C4.97718334 30.82986099 5.43989311 32.86646307 6 35 C6.11859375 35.62777344 6.2371875 36.25554687 6.359375 36.90234375 C7.52785023 42.9900997 9.65461378 48.53958029 11.9765625 54.27734375 C13 57 13 57 13 59 C12.01 58.67 11.02 58.34 10 58 C9.25154623 55.95876245 8.52151082 53.90870589 7.890625 51.828125 C6.84233088 48.49933141 5.6239116 45.25865439 4.375 42 C3.94960937 40.88625 3.52421875 39.7725 3.0859375 38.625 C2.24468401 36.11698536 2.24468401 36.11698536 1 35 C-0.25501802 23.37946278 -0.11416472 11.67017122 0 0 Z " fill="#5FBA54" transform="translate(132,120)"/>
<path d="M0 0 C5.15561605 -0.32908188 8.95363024 0.43935282 13.7890625 2.24609375 C15.97344886 3.05153842 15.97344886 3.05153842 18.22265625 3.40625 C22.21691106 4.26015539 25.97568409 5.67635779 29.8125 7.0625 C30.60076172 7.34416016 31.38902344 7.62582031 32.20117188 7.91601562 C34.13522289 8.60758538 36.06776488 9.30337278 38 10 C38 10.33 38 10.66 38 11 C36.08302063 10.85833643 34.16642277 10.71150416 32.25 10.5625 C31.18265625 10.48128906 30.1153125 10.40007812 29.015625 10.31640625 C26.56320038 10.05909227 24.36078709 9.68187782 22 9 C22 9.66 22 10.32 22 11 C23.32 11.33 24.64 11.66 26 12 C26 13.32 26 14.64 26 16 C22.36337889 14.63053367 19.06326999 12.98243865 15.6875 11.0625 C12.3238287 9.19429878 9.06299862 7.54009531 5.4375 6.25 C2 5 2 5 0 3 C0 2.01 0 1.02 0 0 Z " fill="#5F977A" transform="translate(268,89)"/>
<path d="M0 0 C0.66 0 1.32 0 2 0 C2.4125 0.598125 2.825 1.19625 3.25 1.8125 C4.92530101 4.23118788 4.92530101 4.23118788 8 5.4375 C11.39546272 7.20597017 12.41686363 8.56987119 14 12 C14 12.66 14 13.32 14 14 C16.31 14.66 18.62 15.32 21 16 C21 16.66 21 17.32 21 18 C21.66 18 22.32 18 23 18 C23 18.66 23 19.32 23 20 C24.11375 20.0928125 24.11375 20.0928125 25.25 20.1875 C28 21 28 21 29.6875 23.375 C33.07643573 27.22190001 37.12421007 27.85549206 42 29 C42 29.66 42 30.32 42 31 C42.99 31.33 43.98 31.66 45 32 C45 32.66 45 33.32 45 34 C46.65 34 48.3 34 50 34 C50.66 35.32 51.32 36.64 52 38 C42.17927552 34.91556505 33.33268147 29.98780628 25 24 C24.07574219 23.35417969 23.15148437 22.70835937 22.19921875 22.04296875 C16.48222634 17.92762402 11.3044243 13.58458247 6.3125 8.625 C5.79518311 8.11308105 5.27786621 7.60116211 4.74487305 7.07373047 C2.44419066 4.72831799 1.05322999 3.15968997 0 0 Z " fill="#60B95F" transform="translate(138,203)"/>
<path d="M0 0 C3.17422393 3.4502434 3.39917604 6.45090431 4 11 C4.66 11.33 5.32 11.66 6 12 C6.65807602 14.76512676 7.18377338 17.44850734 7.625 20.25 C7.75543701 21.06758789 7.88587402 21.88517578 8.02026367 22.72753906 C9.86456397 35.00362534 10.67399936 49.65200128 5 61 C5.33 46.81 5.66 32.62 6 18 C5.34 18 4.68 18 4 18 C3.32678716 15.75194998 2.66165877 13.50147776 2 11.25 C1.62875 9.99703125 1.2575 8.7440625 0.875 7.453125 C0 4 0 4 0 0 Z " fill="#4B886C" transform="translate(354,143)"/>
<path d="M0 0 C0 3 0 3 -1.3125 4.6875 C-3 6 -3 6 -6 6 C-6.24621094 6.58523437 -6.49242187 7.17046875 -6.74609375 7.7734375 C-8.19373768 10.34402017 -9.79242482 11.75455693 -12.0625 13.625 C-14.97875712 15.95485552 -14.97875712 15.95485552 -17 19 C-17.9590625 19.4640625 -17.9590625 19.4640625 -18.9375 19.9375 C-21.31971493 20.95345922 -21.31971493 20.95345922 -23 24 C-23.66 24 -24.32 24 -25 24 C-25.33 24.99 -25.66 25.98 -26 27 C-26.99 27.33 -27.98 27.66 -29 28 C-27.4877207 22.73726803 -24.07028203 19.47555406 -20.375 15.625 C-19.74343994 14.96032715 -19.11187988 14.2956543 -18.46118164 13.61083984 C-6.30962936 0.92756944 -6.30962936 0.92756944 0 0 Z " fill="#78CE4F" transform="translate(165,65)"/>
<path d="M0 0 C3.07826714 3.44871763 4.12954585 7.16399111 5.1875 11.5625 C5.36039551 12.27559326 5.53329102 12.98868652 5.71142578 13.72338867 C7.04841241 19.56990607 7.57039293 25.00634735 7 31 C6.92910156 31.93585938 6.85820312 32.87171875 6.78515625 33.8359375 C5.89356156 41.14901756 3.23797331 44.97744117 -2 50 C-2.70769531 50.81017578 -2.70769531 50.81017578 -3.4296875 51.63671875 C-4.6875 53.0625 -4.6875 53.0625 -7 55 C-9.3125 54.8125 -9.3125 54.8125 -11 54 C-10.113125 53.443125 -9.22625 52.88625 -8.3125 52.3125 C-1.76690106 47.8664328 1.29154204 43.67635903 3 36 C4.60371502 27.51264664 3.5762476 20.1773019 1.7890625 11.859375 C0.97963226 7.90037955 0.4547567 4.01255914 0 0 Z " fill="#80AE9B" transform="translate(263,211)"/>
<path d="M0 0 C0.66 0.33 1.32 0.66 2 1 C1.33613281 1.96679688 0.67226562 2.93359375 -0.01171875 3.9296875 C-8.73915016 15.1490249 -8.73915016 15.1490249 -13 28 C-11.80503906 28.37511719 -10.61007813 28.75023438 -9.37890625 29.13671875 C12.01521871 35.97438718 12.01521871 35.97438718 18 43 C13.75354935 43 11.61475228 41.18249194 8 39 C8 38.34 8 37.68 8 37 C7.35675781 36.84144531 6.71351563 36.68289062 6.05078125 36.51953125 C-1.53503859 34.56085309 -8.73564143 31.92191211 -16 29 C-15.39644592 25.14974121 -14.23227397 22.13898841 -12.4375 18.6875 C-11.98246094 17.80449219 -11.52742187 16.92148438 -11.05859375 16.01171875 C-10.70925781 15.34785156 -10.35992187 14.68398437 -10 14 C-9.34 14 -8.68 14 -8 14 C-7.90847656 13.27425781 -7.81695312 12.54851562 -7.72265625 11.80078125 C-6.87962297 8.53345769 -5.56837543 6.7832937 -3.4375 4.1875 C-2.79683594 3.39730469 -2.15617188 2.60710937 -1.49609375 1.79296875 C-1.00238281 1.20128906 -0.50867188 0.60960938 0 0 Z " fill="#90DB77" transform="translate(154,83)"/>
<path d="M0 0 C-4.74097824 6.26666539 -9.53289752 12.4153405 -16 17 C-16.66 17 -17.32 17 -18 17 C-18.28875 17.639375 -18.5775 18.27875 -18.875 18.9375 C-20 21 -20 21 -22 22 C-20.66837689 18.00513068 -18.94159079 15.94159079 -16 13 C-16 12.01 -16 11.02 -16 10 C-14.68 10 -13.36 10 -12 10 C-11.40267181 7.23735711 -11 4.83967231 -11 2 C-9.54494642 1.47007308 -8.08581873 0.9513211 -6.625 0.4375 C-5.81289062 0.14746094 -5.00078125 -0.14257812 -4.1640625 -0.44140625 C-2 -1 -2 -1 0 0 Z " fill="#69CA33" transform="translate(178,61)"/>
<path d="M0 0 C1.33333333 1.33333333 2.66666667 2.66666667 4 4 C5.2684375 5.2375 5.2684375 5.2375 6.5625 6.5 C10.67484663 10.71779141 10.67484663 10.71779141 12 13 C11.5703125 15.12109375 11.5703125 15.12109375 11 17 C4.98922864 15.36959185 -1.01663928 13.72852643 -7 12 C-7 11.67 -7 11.34 -7 11 C-4.03 11 -1.06 11 2 11 C2 8.69 2 6.38 2 4 C1.34 4 0.68 4 0 4 C0 2.68 0 1.36 0 0 Z " fill="#7AC473" transform="translate(198,230)"/>
<path d="M0 0 C-3.56431454 2.3762097 -7.17277887 3.31190818 -11.25 4.4375 C-15.52555583 5.62017993 -19.68671405 6.79231032 -23.73828125 8.6171875 C-26.65565042 9.85401227 -28.81416476 10.44724344 -31.9375 10.6875 C-33.09572266 10.78611328 -33.09572266 10.78611328 -34.27734375 10.88671875 C-34.84582031 10.92410156 -35.41429687 10.96148437 -36 11 C-31.85306238 7.21437971 -27.78439579 5.55918104 -22.5625 3.8125 C-21.82451172 3.55275391 -21.08652344 3.29300781 -20.32617188 3.02539062 C-13.45389749 0.66132824 -7.24209449 -0.1248637 0 0 Z " fill="#9FE366" transform="translate(218,43)"/>
<path d="M0 0 C0.33 0 0.66 0 1 0 C1.46147483 5.67870411 1.07071982 10.21208042 -0.9375 15.5625 C-4.47403632 25.90968048 -3.8532323 37.17588243 -4 48 C-4.33 48 -4.66 48 -5 48 C-7.51319239 31.97839854 -5.57781838 15.25106196 0 0 Z " fill="#99D994" transform="translate(123,112)"/>
<path d="M0 0 C4.54776613 0.60636882 8.21111822 2.45597264 12.1875 4.625 C12.84878906 4.98255371 13.51007813 5.34010742 14.19140625 5.70849609 C22.50952009 10.28224498 29.91889985 15.68858465 37 22 C33.07943389 22 31.98866605 20.65581151 28.9375 18.25 C24.45222557 14.87117258 20.32515629 12.74161174 15.0703125 10.85546875 C12.39783575 9.75118119 10.96753371 8.09447137 9 6 C6.06596738 4.2066946 3.04852362 2.58940121 0 1 C0 0.67 0 0.34 0 0 Z " fill="#C0F570" transform="translate(287,50)"/>
<path d="M0 0 C5.35810998 -0.28704161 9.12197483 0.14595237 14.0625 2.2109375 C16.23545483 3.13837515 16.23545483 3.13837515 19.5625 4 C23.19898593 5.05788682 26.52153408 6.50922889 30 8 C32.32007031 8.74006157 34.64498845 9.37520102 37 10 C37 10.99 37 11.98 37 13 C31.59478051 11.52911063 26.44406233 9.81843785 21.3125 7.5625 C14.40169853 4.58914343 7.28770309 2.78210226 0 1 C0 0.67 0 0.34 0 0 Z " fill="#B1EE76" transform="translate(244,56)"/>
<path d="M0 0 C6.32905742 8.43874323 7.67362453 16.58862241 8 27 C5.42853943 24.42853943 5.19882003 22.3949583 4.375 18.875 C4.11460937 17.77929688 3.85421875 16.68359375 3.5859375 15.5546875 C3.29589844 14.29011719 3.29589844 14.29011719 3 13 C2.34 13.66 1.68 14.32 1 15 C0.67 10.05 0.34 5.1 0 0 Z " fill="#89D180" transform="translate(133,129)"/>
<path d="M0 0 C3.37600471 3.15093773 5.66430402 5.66964536 6.3359375 10.33203125 C6.43263918 16.47258802 5.5154766 19.94650238 2 25 C1.34 25 0.68 25 0 25 C0.32484375 24.31808594 0.6496875 23.63617188 0.984375 22.93359375 C2.17616376 19.49115776 2.26579955 16.70034569 2.25 13.0625 C2.25515625 11.87785156 2.2603125 10.69320312 2.265625 9.47265625 C1.99993706 5.99917717 1.24620553 3.23914532 0 0 Z " fill="#5F967B" transform="translate(316,157)"/>
<path d="M0 0 C2.10042935 3.75354504 3.26041646 7.780618 4.5 11.875 C4.92654885 13.2683929 5.35362432 14.6616247 5.78125 16.0546875 C5.98492187 16.71952148 6.18859375 17.38435547 6.3984375 18.06933594 C7.2262799 20.72622623 8.10762411 23.36418604 9 26 C8.01 26 7.02 26 6 26 C6 25.34 6 24.68 6 24 C5.34 24 4.68 24 4 24 C3.32114013 21.50276548 2.65682573 19.00303859 2 16.5 C1.80921875 15.80390625 1.6184375 15.1078125 1.421875 14.390625 C0.14322988 9.4587081 -0.18357474 5.09419909 0 0 Z " fill="#7ECA72" transform="translate(183,194)"/>
<path d="M0 0 C-2.63259368 1.01253603 -3.78533799 1.07787423 -6.4765625 0.1015625 C-11.71540031 -1.53630032 -16.91528149 -1.47066167 -22.375 -1.625 C-24.05142578 -1.68300781 -24.05142578 -1.68300781 -25.76171875 -1.7421875 C-28.50765161 -1.83606555 -31.25358476 -1.92174911 -34 -2 C-24.12116432 -8.58589045 -10.24720908 -3.65971753 0 0 Z " fill="#82B19E" transform="translate(232,148)"/>
<path d="M0 0 C3.07850798 3.44898745 4.12866428 7.16402106 5.1875 11.5625 C5.36112061 12.27341797 5.53474121 12.98433594 5.71362305 13.71679688 C7.68878581 22.30395517 7.30751848 30.33769009 6 39 C5.67 39 5.34 39 5 39 C5 31.41 5 23.82 5 16 C4.34 16 3.68 16 3 16 C2.49595192 13.89679937 1.99689492 11.79240209 1.5 9.6875 C1.08234375 7.92986328 1.08234375 7.92986328 0.65625 6.13671875 C0 3 0 3 0 0 Z " fill="#2B6D4F" transform="translate(263,211)"/>
<path d="M0 0 C0.66 0 1.32 0 2 0 C2.33 0.99 2.66 1.98 3 3 C3.66 3.33 4.32 3.66 5 4 C5.67578125 5.890625 5.67578125 5.890625 6.3125 8.25 C7.71023444 12.76742007 9.40368242 14.98686905 13 18 C12.67 18.66 12.34 19.32 12 20 C6.25 16.375 6.25 16.375 4 13 C3.875 10.3125 3.875 10.3125 4 8 C3.01 8.33 2.02 8.66 1 9 C1 7.68 1 6.36 1 5 C0.06716704 2.79932579 0.06716704 2.79932579 -1 1 C-0.67 0.67 -0.34 0.34 0 0 Z " fill="#A6DBA4" transform="translate(158,194)"/>
<path d="M0 0 C0.99 0 1.98 0 3 0 C3.64633275 1.77065111 4.2920483 3.54152753 4.9375 5.3125 C5.29714844 6.29863281 5.65679687 7.28476563 6.02734375 8.30078125 C7.41262385 12.14507263 8.12122478 15.02811274 8.09765625 19.10546875 C8.09443359 20.08837891 8.09121094 21.07128906 8.08789062 22.08398438 C8.07951172 23.10814453 8.07113281 24.13230469 8.0625 25.1875 C8.05798828 26.22326172 8.05347656 27.25902344 8.04882812 28.32617188 C8.0370401 30.88417266 8.02058515 33.44205733 8 36 C7.67 36 7.34 36 7 36 C6.96132813 34.40285156 6.96132813 34.40285156 6.921875 32.7734375 C6.5108788 21.05936759 4.50799929 10.91623147 0 0 Z " fill="#8BB7A3" transform="translate(326,140)"/>
<path d="M0 0 C3.15079515 1.04814483 6.29451684 2.1161797 9.4375 3.1875 C10.31599609 3.47947266 11.19449219 3.77144531 12.09960938 4.07226562 C19.74697064 6.69663683 27.63126517 9.69757216 33 16 C28.75354935 16 26.61475228 14.18249194 23 12 C23 11.34 23 10.68 23 10 C22.01773438 9.76216797 22.01773438 9.76216797 21.015625 9.51953125 C13.69922827 7.64909649 6.90302226 5.0479313 0 2 C0 1.34 0 0.68 0 0 Z " fill="#A4E596" transform="translate(139,110)"/>
<path d="M0 0 C5.65394631 -0.34615998 9.03006806 0.56574762 14 3 C12.02 3.99 12.02 3.99 10 5 C10.99 6.485 10.99 6.485 12 8 C10.55989519 7.74337755 9.1229313 7.46909179 7.6875 7.1875 C6.88699219 7.03667969 6.08648437 6.88585937 5.26171875 6.73046875 C2.71584187 5.90822527 1.59597449 5.13313096 0 3 C0 2.01 0 1.02 0 0 Z " fill="#89AB9E" transform="translate(268,89)"/>
<path d="M0 0 C0 3.20395416 -0.74335022 5.09399739 -2 8 C-1.35675781 8.15855469 -0.71351563 8.31710938 -0.05078125 8.48046875 C7.53503859 10.43914691 14.73564143 13.07808789 22 16 C22 16.33 22 16.66 22 17 C20.35 17 18.7 17 17 17 C17 16.34 17 15.68 17 15 C15.02 15.99 15.02 15.99 13 17 C12.67 16.01 12.34 15.02 12 14 C10.21983488 13.37629833 10.21983488 13.37629833 8 13 C6.07674299 12.33115783 4.16030185 11.64249235 2.25 10.9375 C1.26515625 10.57527344 0.2803125 10.21304688 -0.734375 9.83984375 C-1.48203125 9.56269531 -2.2296875 9.28554687 -3 9 C-2.25 2.25 -2.25 2.25 0 0 Z " fill="#40AF22" transform="translate(140,104)"/>
<path d="M0 0 C3.87511727 0.54984772 5.59576506 2.27555331 8.25 5.0625 C8.95640625 5.79597656 9.6628125 6.52945313 10.390625 7.28515625 C10.92171875 7.85105469 11.4528125 8.41695312 12 9 C8.89448334 9 7.64738916 8.4606285 5 7 C4.01 8.485 4.01 8.485 3 10 C2.30289269 8.71349294 1.61757124 7.42059335 0.9375 6.125 C0.36322266 5.04605469 0.36322266 5.04605469 -0.22265625 3.9453125 C-0.47917969 3.30335938 -0.73570313 2.66140625 -1 2 C-0.67 1.34 -0.34 0.68 0 0 Z " fill="#9DB9AC" transform="translate(121,215)"/>
<path d="M0 0 C3.59391114 1.33488128 6.75490696 2.96022723 10 5 C9.67 5.66 9.34 6.32 9 7 C7.35 6.67 5.7 6.34 4 6 C4 7.98 4 9.96 4 12 C1.95780294 10.30820672 1.08206694 9.36272334 0.48828125 6.73828125 C0.43027344 5.93777344 0.37226562 5.13726562 0.3125 4.3125 C0.24675781 3.50425781 0.18101563 2.69601563 0.11328125 1.86328125 C0.07589844 1.24839844 0.03851563 0.63351563 0 0 Z " fill="#538A71" transform="translate(125,221)"/>
<path d="M0 0 C3.18079315 3.65202177 5.41230636 7.47425279 7.6953125 11.70703125 C9.56576442 14.9943225 11.74227364 17.96819604 14 21 C13.34 21.33 12.68 21.66 12 22 C12 21.34 12 20.68 12 20 C11.01 19.67 10.02 19.34 9 19 C8.3125 16.9375 8.3125 16.9375 8 15 C7.34 15 6.68 15 6 15 C2.14658603 10.37830412 0.37165567 5.94649079 0 0 Z " fill="#75C872" transform="translate(145,179)"/>
<path d="M0 0 C0.33 0 0.66 0 1 0 C0.76641617 5.72280376 -0.72478561 8.46382667 -4.52734375 12.71484375 C-6 14 -6 14 -8 14 C-8.12375 14.639375 -8.2475 15.27875 -8.375 15.9375 C-8.58125 16.618125 -8.7875 17.29875 -9 18 C-9.66 18.33 -10.32 18.66 -11 19 C-9.79272593 14.50016028 -7.99208446 11.33939555 -5.23828125 7.67578125 C-3.66277014 5.54362268 -2.34315089 3.28335651 -1 1 C-0.67 0.67 -0.34 0.34 0 0 Z " fill="#77C964" transform="translate(135,93)"/>
<path d="M0 0 C0.33 0 0.66 0 1 0 C1.20211135 5.86122906 1.30443233 10.9942187 -2.4375 15.875 C-4 17 -4 17 -7 17 C-7.66 18.32 -8.32 19.64 -9 21 C-9.66 20.67 -10.32 20.34 -11 20 C-10.45730469 19.39414063 -9.91460937 18.78828125 -9.35546875 18.1640625 C-4.41351516 12.37618893 -1.52676271 7.47477574 0 0 Z " fill="#77A692" transform="translate(332,177)"/>
<path d="M0 0 C2.97 0.495 2.97 0.495 6 1 C6 2.32 6 3.64 6 5 C7.32 5.33 8.64 5.66 10 6 C10 7.32 10 8.64 10 10 C6.41005174 8.66659064 3.04479945 7.34884529 0 5 C-0.3125 2.3125 -0.3125 2.3125 0 0 Z " fill="#3A7F62" transform="translate(284,95)"/>
<path d="M0 0 C6.94646569 1.04383384 12.92193676 4.72402597 17.625 9.875 C18.305625 10.926875 18.305625 10.926875 19 12 C18.01 12.33 17.02 12.66 16 13 C15.67 12.34 15.34 11.68 15 11 C13.3532474 9.96753515 11.68257357 8.97299741 10 8 C8.21784514 6.80842785 6.44683314 5.60001715 4.6875 4.375 C3.80449219 3.76398438 2.92148437 3.15296875 2.01171875 2.5234375 C1.34785156 2.02070312 0.68398438 1.51796875 0 1 C0 0.67 0 0.34 0 0 Z " fill="#B4F26F" transform="translate(308,83)"/>
<path d="M0 0 C0.33 0 0.66 0 1 0 C1.6861217 22.94695893 1.6861217 22.94695893 -3 31 C-3.27681167 24.18735722 -2.63303636 17.79417182 -1.51171875 11.07421875 C-0.89869842 7.39141725 -0.43614925 3.7072686 0 0 Z " fill="#A0C3B0" transform="translate(362,173)"/>
<path d="M0 0 C0.33 0 0.66 0 1 0 C1.02505615 0.93384521 1.0501123 1.86769043 1.07592773 2.82983398 C1.17086928 6.28325189 1.27011258 9.7364896 1.37231445 13.18969727 C1.41571813 14.68639269 1.45738913 16.18313939 1.49731445 17.67993164 C1.55488616 19.82714312 1.61861716 21.97409521 1.68359375 24.12109375 C1.72025146 25.4145874 1.75690918 26.70808105 1.79467773 28.04077148 C1.6667278 30.88555008 1.6667278 30.88555008 3 32 C3.04080783 33.99958364 3.04254356 36.00045254 3 38 C2.34 38 1.68 38 1 38 C-0.03987597 33.75054147 -0.12989631 29.64072144 -0.09765625 25.29296875 C-0.0962413 24.56757401 -0.09482635 23.84217926 -0.09336853 23.09480286 C-0.08779931 20.7923255 -0.07525261 18.48994765 -0.0625 16.1875 C-0.05748102 14.62044412 -0.05291881 13.0533867 -0.04882812 11.48632812 C-0.03783998 7.65751411 -0.02059673 3.82877389 0 0 Z " fill="#66BE55" transform="translate(180,156)"/>
<path d="M0 0 C0.99 0.33 1.98 0.66 3 1 C3.66 0.67 4.32 0.34 5 0 C5.4125 0.928125 5.825 1.85625 6.25 2.8125 C7.95985121 5.92687186 9.1611847 7.04219635 12 9 C12 9.66 12 10.32 12 11 C8.87547564 10.62711438 5.93980725 10.14684788 3 9 C1.5 6.0625 1.5 6.0625 1 3 C0.67 2.01 0.34 1.02 0 0 Z " fill="#2FAA2A" transform="translate(167,211)"/>
<path d="M0 0 C0.66 0 1.32 0 2 0 C2 0.66 2 1.32 2 2 C2.99 2 3.98 2 5 2 C7.85351557 5.23934303 9.86470894 8.70120583 10.3125 13 C10.1578125 13.99 10.1578125 13.99 10 15 C5.81340142 11.17225273 2.62179138 7.05392126 0 2 C0 1.34 0 0.68 0 0 Z " fill="#62B863" transform="translate(128,188)"/>
<path d="M0 0 C4.38914698 2.82065301 8.4008749 5.87444683 12.375 9.25 C12.92027344 9.70890625 13.46554687 10.1678125 14.02734375 10.640625 C15.35386136 11.75769246 16.67726419 12.87845702 18 14 C17.01 14.495 17.01 14.495 16 15 C15.48050781 14.59007812 14.96101563 14.18015625 14.42578125 13.7578125 C10.7576223 10.92363424 7.48550294 8.40171967 3 7 C3 6.01 3 5.02 3 4 C1.68 4 0.36 4 -1 4 C-0.67 2.68 -0.34 1.36 0 0 Z " fill="#6F9D88" transform="translate(267,174)"/>
<path d="M0 0 C0 0.33 0 0.66 0 1 C-7.8125 0.21875 -7.8125 0.21875 -15.625 -0.5625 C-16.46289062 -0.64628906 -17.30078125 -0.73007813 -18.1640625 -0.81640625 C-18.76992187 -0.87699219 -19.37578125 -0.93757812 -20 -1 C-20.33 -1.99 -20.66 -2.98 -21 -4 C-15.52261983 -6.73869009 -5.54535229 -1.73654038 0 0 Z " fill="#8FB4A1" transform="translate(209,153)"/>
<path d="M0 0 C0.99 0.495 0.99 0.495 2 1 C1.01 1.495 1.01 1.495 0 2 C0 1.34 0 0.68 0 0 Z M-1 2 C-0.67 3.32 -0.34 4.64 0 6 C-1.32 5.67 -2.64 5.34 -4 5 C-3.01 4.01 -2.02 3.02 -1 2 Z M-7 6 C-5.68 6.33 -4.36 6.66 -3 7 C-4.52961986 10.44164469 -6.62729066 13.09151758 -9 16 C-9.33 16.66 -9.66 17.32 -10 18 C-10.66 18 -11.32 18 -12 18 C-11.58225916 15.57710315 -11.30387062 14.29120935 -9.5 12.5625 C-7.53426922 10.51486377 -7.37331439 8.76252651 -7 6 Z " fill="#49C113" transform="translate(166,65)"/>
<path d="M0 0 C4.80190528 0.53194759 8.11072045 1.91015263 12.25 4.375 C13.28640625 4.98085937 14.3228125 5.58671875 15.390625 6.2109375 C18 8 18 8 20 11 C15.08558588 9.56347895 10.99761642 7.45840385 6.625 4.875 C5.98433594 4.50246094 5.34367187 4.12992187 4.68359375 3.74609375 C3.11951523 2.83565998 1.55934466 1.91851809 0 1 C0 0.67 0 0.34 0 0 Z " fill="#B6EF71" transform="translate(288,72)"/>
<path d="M0 0 C-2.46713092 2.95723437 -4.75500782 3.77066694 -8.4375 4.75 C-9.38496094 5.01296875 -10.33242187 5.2759375 -11.30859375 5.546875 C-13.97438552 5.99568755 -15.47919097 5.88198519 -18 5 C-16.730447 4.35165346 -15.45930294 3.70642185 -14.1875 3.0625 C-13.47980469 2.70285156 -12.77210938 2.34320313 -12.04296875 1.97265625 C-7.89052607 -0.00431933 -4.55429524 -0.0859301 0 0 Z " fill="#90DE57" transform="translate(200,48)"/>
<path d="M0 0 C3.17422393 3.4502434 3.39917604 6.45090431 4 11 C4.66 11.33 5.32 11.66 6 12 C6.4140625 14.06640625 6.4140625 14.06640625 6.625 16.5625 C6.69976562 17.38878906 6.77453125 18.21507812 6.8515625 19.06640625 C6.90054687 19.70449219 6.94953125 20.34257812 7 21 C6.67 20.01 6.34 19.02 6 18 C5.34 18 4.68 18 4 18 C3.32678716 15.75194998 2.66165877 13.50147776 2 11.25 C1.62875 9.99703125 1.2575 8.7440625 0.875 7.453125 C0 4 0 4 0 0 Z " fill="#79A891" transform="translate(354,143)"/>
<path d="M0 0 C0 0.33 0 0.66 0 1 C-5.61 2.32 -11.22 3.64 -17 5 C-17 5.66 -17 6.32 -17 7 C-19.64 7.66 -22.28 8.32 -25 9 C-24.67 8.34 -24.34 7.68 -24 7 C-23.01 7 -22.02 7 -21 7 C-21 6.34 -21 5.68 -21 5 C-20.01 5 -19.02 5 -18 5 C-18 4.34 -18 3.68 -18 3 C-11.79485526 0.86380263 -6.57315478 -0.36517527 0 0 Z " fill="#7DD63B" transform="translate(207,53)"/>
<path d="M0 0 C0.33 0 0.66 0 1 0 C1.226875 1.216875 1.45375 2.43375 1.6875 3.6875 C2.87162966 9.1154812 4.89672401 14.13785845 6.9765625 19.27734375 C8 22 8 22 8 24 C7.01 23.67 6.02 23.34 5 23 C4.12109375 21.109375 4.12109375 21.109375 3.4375 18.75 C2.67692597 16.20407851 1.95471052 13.90465373 0.8125 11.5 C-0.421147 7.70416307 -0.15518359 3.95718153 0 0 Z " fill="#81CC7E" transform="translate(137,155)"/>
<path d="M0 0 C1.7325 0.7425 1.7325 0.7425 3.5 1.5 C10.32787211 4.04088362 16.18720646 3.27093118 23 1 C20.20979984 4.05593351 18.21433605 4.93192119 14.00390625 5.16796875 C12.86824219 5.17441406 11.73257812 5.18085938 10.5625 5.1875 C9.42941406 5.20167969 8.29632813 5.21585938 7.12890625 5.23046875 C4.14542021 5.01071135 2.50704577 4.55843386 0 3 C0 2.01 0 1.02 0 0 Z " fill="#8CBBA6" transform="translate(298,197)"/>
<path d="M0 0 C0.33 0 0.66 0 1 0 C1.37634203 6.80203375 0.77471079 11.75690073 -2 18 C-2.33 18 -2.66 18 -3 18 C-3.42765417 11.58518742 -1.85743168 6.11404596 0 0 Z " fill="#69C05C" transform="translate(123,112)"/>
<path d="M0 0 C3 3.625 3 3.625 3 7 C3.66 7 4.32 7 5 7 C7.27678571 15.03571429 7.27678571 15.03571429 6 19 C5.73445312 18.32453125 5.46890625 17.6490625 5.1953125 16.953125 C4.84210938 16.06109375 4.48890625 15.1690625 4.125 14.25 C3.77695313 13.36828125 3.42890625 12.4865625 3.0703125 11.578125 C2.05978696 9.03811093 2.05978696 9.03811093 0.875 6.84375 C-0.24613997 4.48134792 -0.14339144 2.58104594 0 0 Z " fill="#82CD7C" transform="translate(143,161)"/>
<path d="M0 0 C2.64465038 3.1254959 3.84414715 6.08788267 5 10 C1 10 1 10 -0.484375 8.6875 C-1.65625 7.125 -2.828125 5.5625 -4 4 C-2.68 4.33 -1.36 4.66 0 5 C0 3.35 0 1.7 0 0 Z " fill="#D6F5AF" transform="translate(353,111)"/>
<path d="M0 0 C0.66 0 1.32 0 2 0 C1.52925297 2.54203398 0.98923007 4.0146471 -0.5625 6.125 C-2.67530695 10.35061389 -2.24330919 14.35910239 -2 19 C-4.48002593 16.51997407 -4.29694693 15.67167487 -4.3125 12.25 C-4.23103487 7.55896639 -3.46322612 3.46322612 0 0 Z " fill="#82AB99" transform="translate(293,158)"/>
<path d="M0 0 C1.32 0.33 2.64 0.66 4 1 C4 1.66 4 2.32 4 3 C4.99 3 5.98 3 7 3 C7 3.99 7 4.98 7 6 C7.66 6 8.32 6 9 6 C9.33 7.65 9.66 9.3 10 11 C5.86062408 7.69984002 2.41337795 4.82675589 0 0 Z " fill="#6EA38A" transform="translate(142,251)"/>
<path d="M0 0 C3.46137392 0.28844783 4.7064274 0.67084284 7.0625 3.3125 C7.701875 4.199375 8.34125 5.08625 9 6 C10.31494512 7.35147138 11.64264858 8.69112542 13 10 C7.78891146 8.6351911 4.83408676 6.65575714 1 3 C0.67 2.01 0.34 1.02 0 0 Z " fill="#6ABE5E" transform="translate(161,223)"/>
<path d="M0 0 C2.97 0.99 5.94 1.98 9 3 C9 3.66 9 4.32 9 5 C9.66 5 10.32 5 11 5 C11.33 6.32 11.66 7.64 12 9 C7.09198451 7.51272258 3.59508707 4.55364515 0 1 C0 0.67 0 0.34 0 0 Z " fill="#56B656" transform="translate(150,216)"/>
<path d="M0 0 C0.99 0 1.98 0 3 0 C3 0.66 3 1.32 3 2 C3.66 2 4.32 2 5 2 C5.33 4.97 5.66 7.94 6 11 C2.1334716 7.777893 1.11940982 4.85077588 0 0 Z " fill="#5FBD5D" transform="translate(152,183)"/>
<path d="M0 0 C1.13566406 -0.00773438 2.27132813 -0.01546875 3.44140625 -0.0234375 C6.4375 0.375 6.4375 0.375 8.33984375 1.8984375 C8.70207031 2.38570312 9.06429688 2.87296875 9.4375 3.375 C8.756875 3.21 8.07625 3.045 7.375 2.875 C2.08390347 1.97438782 -1.80234152 1.91284906 -6.5625 4.375 C-8.8125 4 -8.8125 4 -10.5625 3.375 C-7.13418336 0.19096145 -4.6065565 -0.03144407 0 0 Z " fill="#70A28C" transform="translate(305.5625,153.625)"/>
<path d="M0 0 C2.56435439 2.56435439 4.01529448 4.46554044 5.75 7.5625 C6.19859375 8.34753906 6.6471875 9.13257812 7.109375 9.94140625 C7.40328125 10.62074219 7.6971875 11.30007812 8 12 C7.67 12.66 7.34 13.32 7 14 C5.5 12.625 5.5 12.625 4 11 C4 10.34 4 9.68 4 9 C3.34 9 2.68 9 2 9 C1.34 6.03 0.68 3.06 0 0 Z " fill="#C1F77C" transform="translate(345,97)"/>
<path d="M0 0 C-1.6209213 1.17232685 -3.24686833 2.3377077 -4.875 3.5 C-5.77992188 4.1496875 -6.68484375 4.799375 -7.6171875 5.46875 C-10 7 -10 7 -12 7 C-12.33 6.01 -12.66 5.02 -13 4 C-11.02 3.67 -9.04 3.34 -7 3 C-7 2.01 -7 1.02 -7 0 C-2.25 -1.125 -2.25 -1.125 0 0 Z " fill="#6F9F8B" transform="translate(315,271)"/>
<path d="M0 0 C5.28 1.98 10.56 3.96 16 6 C16 6.33 16 6.66 16 7 C9.40770855 7.7013076 5.50623443 5.49602186 0 2 C0 1.34 0 0.68 0 0 Z " fill="#7CAB96" transform="translate(182,261)"/>
<path d="M0 0 C0.33 0.66 0.66 1.32 1 2 C0.06553465 4.03144641 -0.93224776 6.03533587 -2 8 C-2.66 8 -3.32 8 -4 8 C-4.33 8.99 -4.66 9.98 -5 11 C-5.99 11.33 -6.98 11.66 -8 12 C-6.49087042 7.01987239 -3.44338151 3.75740058 0 0 Z " fill="#83D46C" transform="translate(144,81)"/>
<path d="M0 0 C4.86896303 0.59619955 9.32790951 1.56976822 14 3 C14 3.99 14 4.98 14 6 C12.41375765 5.57316761 10.8310902 5.13303842 9.25 4.6875 C8.36828125 4.44386719 7.4865625 4.20023437 6.578125 3.94921875 C3.94227495 2.97874669 2.14592674 1.78994356 0 0 Z " fill="#C0F181" transform="translate(267,63)"/>
<path d="M0 0 C0.66 0 1.32 0 2 0 C1.57476184 1.60746056 1.13429874 3.21089836 0.6875 4.8125 C0.44386719 5.70582031 0.20023437 6.59914062 -0.05078125 7.51953125 C-1.0200819 10.05247738 -1.95009604 11.2716496 -4 13 C-3.50269348 8.02693484 -2.44697666 4.36200187 0 0 Z " fill="#659D89" transform="translate(354,217)"/>
<path d="M0 0 C1.81618856 1.11903546 3.62785526 2.24541284 5.4375 3.375 C6.44683594 4.00148437 7.45617187 4.62796875 8.49609375 5.2734375 C11 7 11 7 12 9 C10.35 9 8.7 9 7 9 C6.67 8.01 6.34 7.02 6 6 C5.360625 5.87625 4.72125 5.7525 4.0625 5.625 C3.381875 5.41875 2.70125 5.2125 2 5 C0.87109375 2.4609375 0.87109375 2.4609375 0 0 Z " fill="#67A28B" transform="translate(285,189)"/>
<path d="M0 0 C-1.1875 2 -1.1875 2 -3 4 C-5.6875 4.25 -5.6875 4.25 -8 4 C-8 4.66 -8 5.32 -8 6 C-8.66 5.67 -9.32 5.34 -10 5 C-9.375 3.125 -9.375 3.125 -8 1 C-2.66666667 -1.33333333 -2.66666667 -1.33333333 0 0 Z " fill="#4EC90A" transform="translate(178,61)"/>
<path d="M0 0 C-0.33 0.66 -0.66 1.32 -1 2 C-1.66 2 -2.32 2 -3 2 C-3 2.66 -3 3.32 -3 4 C-5.31 4 -7.62 4 -10 4 C-9.67 3.01 -9.34 2.02 -9 1 C-6.04335481 -0.4783226 -3.25770263 -0.06032783 0 0 Z " fill="#3B785E" transform="translate(202,146)"/>
<path d="M0 0 C-0.99 1.485 -0.99 1.485 -2 3 C-1.34 3.33 -0.68 3.66 0 4 C-2.31 4 -4.62 4 -7 4 C-7 2.68 -7 1.36 -7 0 C-3.98968256 -0.93423645 -3.13349732 -1.04449911 0 0 Z " fill="#5CCD10" transform="translate(189,54)"/>
<path d="M0 0 C3.95781786 0.27612683 5.69956508 0.74053348 8.75 3.375 C11 6 11 6 13 9 C9.91220974 7.53400783 7.09532795 5.82973607 4.25 3.9375 C3.45078125 3.41027344 2.6515625 2.88304687 1.828125 2.33984375 C1.22484375 1.89769531 0.6215625 1.45554687 0 1 C0 0.67 0 0.34 0 0 Z " fill="#7CA391" transform="translate(161,269)"/>
<path d="M0 0 C3.79062273 4.82442893 5.28418033 7.74803275 5 14 C1.37892551 9.55595403 -0.33060893 5.78565632 0 0 Z " fill="#7EC57B" transform="translate(121,169)"/>
<path d="M0 0 C3.76687864 3.76687864 4.67652988 5.14727622 6 10 C5.34 10 4.68 10 4 10 C3.67 10.66 3.34 11.32 3 12 C2.01 8.04 1.02 4.08 0 0 Z " fill="#7AD161" transform="translate(173,127)"/>
<path d="M0 0 C5.65394631 -0.34615998 9.03006806 0.56574762 14 3 C9.99799622 4.60080151 6.95443764 3.29279692 3 2 C2.67 2.99 2.34 3.98 2 5 C1.34 4.34 0.68 3.68 0 3 C0 2.01 0 1.02 0 0 Z " fill="#C4DACC" transform="translate(268,89)"/>
<path d="M0 0 C1 1.33333333 2 2.66666667 3 4 C3.556875 4.70125 4.11375 5.4025 4.6875 6.125 C6 8 6 8 6 10 C4.35 9.67 2.7 9.34 1 9 C0.67 6.03 0.34 3.06 0 0 Z " fill="#71C36C" transform="translate(192,220)"/>
<path d="M0 0 C8.35010941 1.99562363 8.35010941 1.99562363 11.0625 6.1875 C11.371875 7.115625 11.68125 8.04375 12 9 C8.98472262 7.59422879 6.4052059 5.93873852 3.75 3.9375 C3.04359375 3.41027344 2.3371875 2.88304687 1.609375 2.33984375 C1.07828125 1.89769531 0.5471875 1.45554688 0 1 C0 0.67 0 0.34 0 0 Z " fill="#6AA38F" transform="translate(224,161)"/>
<path d="M0 0 C5.93002267 -0.37851209 10.47239641 0.89424625 16 3 C16 3.33 16 3.66 16 4 C14.08249714 3.91256669 12.16593335 3.8043811 10.25 3.6875 C9.18265625 3.62949219 8.1153125 3.57148437 7.015625 3.51171875 C3.8178932 2.96909846 2.37401309 2.14928855 0 0 Z " fill="#589982" transform="translate(290,96)"/>
<path d="M0 0 C0.66 0.33 1.32 0.66 2 1 C0.37660195 2.70884005 -1.29319053 4.37446717 -3 6 C-3.66 6 -4.32 6 -5 6 C-5.28875 6.639375 -5.5775 7.27875 -5.875 7.9375 C-7 10 -7 10 -9 11 C-7.59928507 5.70841026 -4.14512755 3.22521956 0 0 Z " fill="#9BDB7A" transform="translate(165,72)"/>
<path d="M0 0 C3.0994029 3.90794279 4.13464242 6.70967334 4.0625 11.6875 C4.05347656 12.49574219 4.04445313 13.30398437 4.03515625 14.13671875 C4.02355469 14.75160156 4.01195312 15.36648437 4 16 C3.67 16 3.34 16 3 16 C2.49595192 13.89679937 1.99689492 11.79240209 1.5 9.6875 C1.08234375 7.92986328 1.08234375 7.92986328 0.65625 6.13671875 C0 3 0 3 0 0 Z " fill="#86B7A0" transform="translate(263,211)"/>
<path d="M0 0 C0.99 0.33 1.98 0.66 3 1 C3.33 3.31 3.66 5.62 4 8 C4.66 8 5.32 8 6 8 C6.33 9.32 6.66 10.64 7 12 C6.34 11.67 5.68 11.34 5 11 C5 10.34 5 9.68 5 9 C4.01 8.67 3.02 8.34 2 8 C1.26953125 6.15234375 1.26953125 6.15234375 0.8125 3.9375 C0.65394531 3.20402344 0.49539062 2.47054687 0.33203125 1.71484375 C0.22246094 1.14894531 0.11289063 0.58304688 0 0 Z " fill="#3CA435" transform="translate(163,199)"/>
<path d="M0 0 C-1.28913487 0.67154933 -2.58140204 1.33708859 -3.875 2 C-4.59429687 2.37125 -5.31359375 2.7425 -6.0546875 3.125 C-8 4 -8 4 -10 4 C-9.67 2.68 -9.34 1.36 -9 0 C-5.5657338 -0.85856655 -3.38317487 -0.97591583 0 0 Z " fill="#5D937D" transform="translate(303,279)"/>
<path d="M0 0 C2.09715785 3.14573677 2.52004559 5.01456251 3.125 8.6875 C3.29257812 9.68136719 3.46015625 10.67523438 3.6328125 11.69921875 C3.75398438 12.45847656 3.87515625 13.21773437 4 14 C3.01 13.67 2.02 13.34 1 13 C0.67 8.71 0.34 4.42 0 0 Z " fill="#488269" transform="translate(290,167)"/>
<path d="M0 0 C0.66 0 1.32 0 2 0 C2.8638129 1.45264038 3.71580454 2.9123163 4.5625 4.375 C5.27599609 5.59316406 5.27599609 5.59316406 6.00390625 6.8359375 C6.33261719 7.55007812 6.66132813 8.26421875 7 9 C6.67 9.66 6.34 10.32 6 11 C1.9957657 7.50912907 0.37328935 5.35048061 0 0 Z " fill="#73A494" transform="translate(347,132)"/>
<path d="M0 0 C1.0169313 2.65498232 1.13022151 3.69155375 0.00390625 6.359375 C-0.47175781 7.14828125 -0.94742188 7.9371875 -1.4375 8.75 C-2.14712891 9.94882813 -2.14712891 9.94882813 -2.87109375 11.171875 C-3.24363281 11.77515625 -3.61617187 12.3784375 -4 13 C-5 10 -5 10 -4.00390625 7.51953125 C-3.52824219 6.62621094 -3.05257812 5.73289062 -2.5625 4.8125 C-2.08941406 3.91144531 -1.61632812 3.01039062 -1.12890625 2.08203125 C-0.75636719 1.39496094 -0.38382813 0.70789063 0 0 Z " fill="#80CC6A" transform="translate(143,99)"/>
<path d="M0 0 C4.06815373 1.84916079 7.0094833 3.66442368 10 7 C8.68 7.33 7.36 7.66 6 8 C5.938125 7.38125 5.87625 6.7625 5.8125 6.125 C5.171081 3.72238859 5.171081 3.72238859 2.4375 2.75 C1.633125 2.5025 0.82875 2.255 0 2 C0 1.34 0 0.68 0 0 Z " fill="#B6F44C" transform="translate(320,71)"/>
<path d="M0 0 C0 3 0 3 -1.1875 4.625 C-3.41406801 6.31412056 -5.25851328 6.62952882 -8 7 C-3.375 1.125 -3.375 1.125 0 0 Z " fill="#56C224" transform="translate(165,65)"/>
<path d="M0 0 C1.32 0 2.64 0 4 0 C2.7508258 3.45925163 1.32472205 6.14693203 -1 9 C-0.67 6.03 -0.34 3.06 0 0 Z " fill="#6B9D87" transform="translate(346,230)"/>
<path d="M0 0 C5.35048061 0.37328935 7.50912907 1.9957657 11 6 C6.49197399 4.74194623 3.5087188 3.09592835 0 0 Z " fill="#C3F478" transform="translate(288,72)"/>
<path d="M0 0 C3.64775386 3.88309282 4.58525633 6.71201818 5 12 C1.94063363 8.24532309 0 4.91886939 0 0 Z " fill="#7EB69E" transform="translate(258,199)"/>
<path d="M0 0 C2 0 2 0 3.5 1 C5.80070868 4.06761157 6.20423508 7.26602613 7 11 C4.59424393 8.81482901 3.20464419 6.74080329 1.8125 3.8125 C1.46832031 3.09707031 1.12414062 2.38164062 0.76953125 1.64453125 C0.51558594 1.10183594 0.26164063 0.55914062 0 0 Z " fill="#84B19C" transform="translate(251,188)"/>
<path d="M0 0 C0.66 0 1.32 0 2 0 C2.474375 0.639375 2.94875 1.27875 3.4375 1.9375 C4.9091365 4.28372963 4.9091365 4.28372963 8 5 C8.33 6.65 8.66 8.3 9 10 C8.01 9.34 7.02 8.68 6 8 C6 7.34 6 6.68 6 6 C5.38125 5.7525 4.7625 5.505 4.125 5.25 C1.64931313 3.79371361 1.04874998 2.62187494 0 0 Z " fill="#93BEAB" transform="translate(307,115)"/>
<path d="M0 0 C4.41889613 1.35021826 6.34345343 3.26115668 9 7 C4.71193127 6.52354792 2.73352513 5.34097516 0 2 C0 1.34 0 0.68 0 0 Z " fill="#98BCAF" transform="translate(153,243)"/>
<path d="M0 0 C1.11375 0.598125 2.2275 1.19625 3.375 1.8125 C4.00148437 2.14894531 4.62796875 2.48539063 5.2734375 2.83203125 C7 4 7 4 9 7 C6.03 6.505 6.03 6.505 3 6 C2.67 5.01 2.34 4.02 2 3 C1.34 2.67 0.68 2.34 0 2 C0 1.34 0 0.68 0 0 Z " fill="#74AA91" transform="translate(246,157)"/>
<path d="M0 0 C3.25543229 0.34879632 4.01873107 1.02133261 6.25 3.5625 C6.8275 4.366875 7.405 5.17125 8 6 C7.01 6.33 6.02 6.66 5 7 C4.67 6.34 4.34 5.68 4 5 C1.98330173 3.86649466 1.98330173 3.86649466 0 3 C0 2.01 0 1.02 0 0 Z " fill="#ABEE54" transform="translate(319,89)"/>
<path d="M0 0 C3.06261493 1.02087164 4.05779403 1.52810149 6 4 C6.6875 6.6875 6.6875 6.6875 7 9 C4.03595495 6.19195732 1.55500981 3.81684226 0 0 Z " fill="#82AF99" transform="translate(135,242)"/>
<path d="M0 0 C2.64 0.99 5.28 1.98 8 3 C8 3.66 8 4.32 8 5 C2.25 4.125 2.25 4.125 0 3 C0 2.01 0 1.02 0 0 Z " fill="#75A08B" transform="translate(298,197)"/>
<path d="M0 0 C2.96404505 2.80804268 5.44499019 5.18315774 7 9 C6.34 9 5.68 9 5 9 C5 8.34 5 7.68 5 7 C4.01 6.67 3.02 6.34 2 6 C0.8125 2.9375 0.8125 2.9375 0 0 Z " fill="#8AD688" transform="translate(152,192)"/>
<path d="M0 0 C2.1875 -0.3125 2.1875 -0.3125 5 0 C7.8125 2.5 7.8125 2.5 10 5 C5.75354935 5 3.61475228 3.18249194 0 1 C0 0.67 0 0.34 0 0 Z " fill="#91D67F" transform="translate(162,121)"/>
<path d="M0 0 C2.64 1.98 5.28 3.96 8 6 C7.01 6.33 6.02 6.66 5 7 C3.29115995 5.37660195 1.62553283 3.70680947 0 2 C0 1.34 0 0.68 0 0 Z " fill="#91B8A4" transform="translate(140,232)"/>
<path d="M0 0 C1.32 0.33 2.64 0.66 4 1 C4.33 3.31 4.66 5.62 5 8 C1.75267068 6.37633534 1.29844864 3.24612161 0 0 Z " fill="#6DA085" transform="translate(321,131)"/>
<path d="M0 0 C-1.28524261 0.86380259 -2.57842419 1.71580369 -3.875 2.5625 C-4.59429687 3.03816406 -5.31359375 3.51382813 -6.0546875 4.00390625 C-6.69664062 4.33261719 -7.33859375 4.66132812 -8 5 C-8.66 4.67 -9.32 4.34 -10 4 C-4.4 -2.2 -4.4 -2.2 0 0 Z " fill="#AAE57C" transform="translate(182,63)"/>
<path d="M0 0 C5.94 0.99 5.94 0.99 12 2 C12 2.33 12 2.66 12 3 C9.69 3.33 7.38 3.66 5 4 C5 3.34 5 2.68 5 2 C3.35 1.67 1.7 1.34 0 1 C0 0.67 0 0.34 0 0 Z " fill="#8EE920" transform="translate(266,45)"/>
<path d="M0 0 C0.99 0.33 1.98 0.66 3 1 C3.66 0.67 4.32 0.34 5 0 C5.33 1.65 5.66 3.3 6 5 C4.125 4.75 4.125 4.75 2 4 C0.75 1.9375 0.75 1.9375 0 0 Z " fill="#5BB556" transform="translate(167,211)"/>
<path d="M0 0 C0.66 0.33 1.32 0.66 2 1 C-0.25 3.0625 -0.25 3.0625 -3 5 C-5.3125 4.75 -5.3125 4.75 -7 4 C-1.7265625 0.77734375 -1.7265625 0.77734375 0 0 Z " fill="#A4E27D" transform="translate(180,54)"/>
<path d="" fill="#FFFFFF" transform="translate(0,0)"/>
</svg>
