<svg width="289" height="193" viewBox="0 0 289 193" fill="none" xmlns="http://www.w3.org/2000/svg">
<path fill-rule="evenodd" clip-rule="evenodd" d="M14.56 177.27C14.12 176.73 13.57 176.31 12.92 176.02C12.27 175.73 11.52 175.59 10.67 175.59C9.82 175.59 9.03 175.75 8.3 176.08C7.57 176.41 6.94 176.87 6.41 177.46C5.88 178.05 5.46 178.75 5.16 179.57C4.86 180.38 4.71 181.27 4.71 182.21C4.71 183.18 4.86 184.07 5.16 184.87C5.46 185.67 5.87 186.37 6.4 186.96C6.92 187.55 7.54 188.01 8.24 188.34C8.94 188.67 9.7 188.83 10.52 188.83C11.45 188.83 12.27 188.64 12.99 188.25C13.71 187.86 14.3 187.32 14.76 186.62L18.53 189.44C17.66 190.66 16.56 191.56 15.22 192.14C13.88 192.72 12.51 193.01 11.1 193.01C9.49 193.01 8.01 192.76 6.66 192.25C5.3 191.75 4.13 191.03 3.14 190.09C2.16 189.15 1.39 188.01 0.830002 186.68C0.280002 185.34 0 183.86 0 182.21C0 180.57 0.270002 179.08 0.830002 177.74C1.38 176.4 2.15 175.27 3.14 174.33C4.13 173.39 5.3 172.67 6.66 172.17C8.01 171.67 9.49 171.41 11.1 171.41C11.68 171.41 12.29 171.46 12.92 171.57C13.55 171.67 14.17 171.85 14.78 172.08C15.39 172.31 15.98 172.62 16.54 173.01C17.1 173.4 17.61 173.87 18.05 174.43L14.56 177.27ZM33.81 190.05C33.11 190.94 32.23 191.63 31.16 192.11C30.1 192.59 29 192.84 27.85 192.84C26.77 192.84 25.74 192.67 24.79 192.32C23.83 191.97 23 191.47 22.29 190.82C21.58 190.17 21.03 189.39 20.62 188.48C20.21 187.57 20.01 186.55 20.01 185.43C20.01 184.31 20.21 183.29 20.62 182.38C21.03 181.47 21.59 180.69 22.29 180.04C23 179.39 23.83 178.89 24.79 178.54C25.75 178.19 26.77 178.02 27.85 178.02C28.86 178.02 29.77 178.2 30.6 178.54C31.42 178.89 32.12 179.39 32.69 180.04C33.26 180.69 33.7 181.47 34.01 182.38C34.32 183.29 34.47 184.31 34.47 185.43V186.79H24.37C24.55 187.62 24.92 188.29 25.5 188.78C26.08 189.27 26.8 189.52 27.65 189.52C28.36 189.52 28.97 189.36 29.47 189.04C29.96 188.72 30.39 188.31 30.76 187.81L33.81 190.05ZM30.12 183.84C30.14 183.1 29.9 182.47 29.39 181.95C28.89 181.43 28.24 181.16 27.45 181.16C26.96 181.16 26.54 181.24 26.17 181.39C25.8 181.55 25.49 181.74 25.22 181.99C24.96 182.23 24.76 182.51 24.61 182.83C24.46 183.15 24.38 183.48 24.36 183.83H30.12V183.84ZM37.12 178.37H41.3V180.29H41.36C41.49 180.02 41.69 179.75 41.94 179.48C42.19 179.21 42.5 178.96 42.84 178.75C43.19 178.53 43.58 178.36 44.03 178.23C44.48 178.09 44.96 178.03 45.48 178.03C46.58 178.03 47.48 178.2 48.15 178.54C48.83 178.88 49.35 179.35 49.73 179.95C50.11 180.55 50.36 181.25 50.5 182.07C50.64 182.88 50.7 183.77 50.7 184.71V192.49H46.35V185.58C46.35 185.17 46.33 184.75 46.31 184.31C46.28 183.88 46.19 183.47 46.05 183.11C45.91 182.74 45.68 182.44 45.38 182.21C45.08 181.98 44.65 181.86 44.09 181.86C43.53 181.86 43.07 181.96 42.73 182.16C42.38 182.36 42.12 182.64 41.93 182.97C41.75 183.31 41.62 183.69 41.57 184.12C41.51 184.55 41.48 184.99 41.48 185.46V192.49H37.13V178.37H37.12ZM63.39 181.86H59.56V186.56C59.56 186.95 59.58 187.3 59.62 187.62C59.66 187.94 59.74 188.21 59.88 188.45C60.02 188.68 60.22 188.86 60.5 188.99C60.78 189.11 61.15 189.18 61.62 189.18C61.85 189.18 62.16 189.16 62.53 189.11C62.91 189.06 63.19 188.95 63.39 188.77V192.4C62.91 192.57 62.41 192.69 61.88 192.75C61.36 192.81 60.85 192.84 60.34 192.84C59.61 192.84 58.93 192.76 58.31 192.61C57.69 192.45 57.15 192.21 56.68 191.87C56.22 191.53 55.86 191.09 55.59 190.55C55.33 190.01 55.19 189.35 55.19 188.57V181.86H52.41V178.38H55.19V174.2L59.55 175.57V178.38H63.38V181.86H63.39ZM65.6 178.37H69.95V180.64H70.01C70.47 179.77 71.03 179.12 71.67 178.68C72.31 178.25 73.11 178.03 74.08 178.03C74.33 178.03 74.58 178.04 74.83 178.06C75.08 178.08 75.31 178.11 75.53 178.17V182.15C75.22 182.05 74.92 181.98 74.62 181.93C74.32 181.88 74.01 181.86 73.68 181.86C72.85 181.86 72.19 181.98 71.7 182.21C71.22 182.44 70.84 182.77 70.58 183.18C70.32 183.6 70.15 184.1 70.07 184.68C69.99 185.26 69.95 185.9 69.95 186.6V192.5H65.6V178.37ZM86.28 190.72H86.22C85.74 191.48 85.09 192.02 84.29 192.35C83.49 192.68 82.64 192.84 81.75 192.84C81.09 192.84 80.46 192.75 79.85 192.56C79.24 192.38 78.71 192.1 78.24 191.74C77.78 191.37 77.41 190.92 77.13 190.37C76.86 189.83 76.72 189.2 76.72 188.48C76.72 187.67 76.87 186.98 77.17 186.42C77.47 185.86 77.88 185.4 78.39 185.03C78.9 184.66 79.49 184.37 80.14 184.17C80.8 183.97 81.48 183.82 82.19 183.72C82.9 183.62 83.6 183.56 84.31 183.54C85.02 183.52 85.67 183.51 86.27 183.51C86.27 182.74 85.99 182.12 85.44 181.67C84.89 181.21 84.23 180.99 83.48 180.99C82.76 180.99 82.11 181.14 81.52 181.44C80.93 181.74 80.4 182.16 79.94 182.67L77.62 180.29C78.43 179.54 79.38 178.97 80.46 178.59C81.55 178.21 82.67 178.02 83.83 178.02C85.11 178.02 86.16 178.18 86.98 178.5C87.8 178.82 88.46 179.29 88.95 179.91C89.45 180.53 89.79 181.29 89.98 182.19C90.18 183.09 90.27 184.13 90.27 185.31V192.48H86.26V190.72H86.28ZM85.2 186.3C84.87 186.3 84.46 186.31 83.97 186.34C83.47 186.37 83 186.45 82.55 186.59C82.09 186.72 81.71 186.93 81.39 187.2C81.07 187.47 80.91 187.85 80.91 188.33C80.91 188.85 81.13 189.24 81.58 189.49C82.03 189.74 82.49 189.87 82.97 189.87C83.4 189.87 83.81 189.81 84.2 189.7C84.6 189.58 84.95 189.42 85.26 189.21C85.57 189 85.81 188.73 86 188.4C86.18 188.07 86.28 187.68 86.28 187.24V186.31H85.2V186.3ZM93.07 170.54L97.43 171.91V192.49H93.07V170.54ZM109.71 171.93H117.38C118.27 171.93 119.17 171.99 120.06 172.12C120.96 172.25 121.77 172.5 122.49 172.88C123.2 173.26 123.79 173.78 124.23 174.46C124.68 175.14 124.9 176.04 124.9 177.16C124.9 178.32 124.58 179.28 123.93 180.05C123.28 180.81 122.43 181.36 121.36 181.69V181.75C122.04 181.84 122.65 182.04 123.2 182.31C123.75 182.59 124.23 182.95 124.62 183.39C125.02 183.82 125.32 184.33 125.53 184.91C125.74 185.49 125.85 186.11 125.85 186.77C125.85 187.85 125.62 188.76 125.15 189.48C124.68 190.21 124.08 190.79 123.35 191.24C122.62 191.69 121.79 192.01 120.87 192.2C119.95 192.4 119.04 192.49 118.13 192.49H109.71V171.93ZM114.24 180.15H117.52C117.87 180.15 118.21 180.11 118.55 180.03C118.89 179.95 119.19 179.83 119.46 179.65C119.73 179.48 119.95 179.24 120.11 178.95C120.27 178.66 120.36 178.31 120.36 177.9C120.36 177.47 120.27 177.12 120.09 176.84C119.91 176.56 119.67 176.34 119.38 176.19C119.09 176.03 118.76 175.92 118.39 175.85C118.02 175.78 117.66 175.75 117.32 175.75H114.24V180.15ZM114.24 188.66H118.3C118.65 188.66 119 188.62 119.36 188.54C119.72 188.46 120.04 188.33 120.33 188.13C120.62 187.93 120.86 187.68 121.04 187.38C121.22 187.07 121.32 186.69 121.32 186.25C121.32 185.77 121.2 185.37 120.96 185.07C120.72 184.77 120.41 184.54 120.04 184.39C119.67 184.23 119.28 184.13 118.85 184.07C118.42 184.01 118.03 183.98 117.66 183.98H114.23V188.66H114.24ZM141.56 192.49H137.38V190.57H137.32C137.17 190.84 136.97 191.11 136.73 191.38C136.49 191.65 136.19 191.9 135.84 192.11C135.49 192.33 135.09 192.5 134.65 192.63C134.2 192.77 133.72 192.83 133.2 192.83C132.09 192.83 131.2 192.66 130.51 192.32C129.82 191.98 129.29 191.51 128.91 190.91C128.53 190.31 128.28 189.61 128.16 188.79C128.04 187.98 127.97 187.09 127.97 186.15V178.37H132.33V185.28C132.33 185.69 132.34 186.11 132.37 186.55C132.4 186.98 132.49 187.39 132.63 187.75C132.77 188.12 133 188.42 133.3 188.65C133.6 188.88 134.03 189 134.59 189C135.15 189 135.61 188.9 135.96 188.7C136.31 188.5 136.57 188.22 136.76 187.89C136.94 187.55 137.06 187.17 137.12 186.74C137.18 186.31 137.21 185.87 137.21 185.4V178.37H141.57V192.49H141.56ZM152.62 182.53C151.98 181.74 151.14 181.34 150.09 181.34C149.72 181.34 149.36 181.43 149.02 181.6C148.67 181.78 148.5 182.08 148.5 182.5C148.5 182.85 148.68 183.11 149.04 183.27C149.4 183.43 149.85 183.58 150.4 183.7C150.95 183.82 151.54 183.96 152.17 184.11C152.8 184.26 153.39 184.49 153.94 184.79C154.49 185.1 154.94 185.52 155.3 186.05C155.66 186.59 155.84 187.3 155.84 188.19C155.84 189.1 155.64 189.85 155.24 190.44C154.85 191.03 154.34 191.5 153.72 191.86C153.1 192.22 152.4 192.47 151.63 192.61C150.86 192.75 150.09 192.83 149.34 192.83C148.35 192.83 147.36 192.69 146.35 192.41C145.34 192.13 144.49 191.63 143.8 190.91L146.44 187.98C146.85 188.48 147.3 188.86 147.79 189.12C148.28 189.38 148.86 189.52 149.52 189.52C150.02 189.52 150.48 189.45 150.89 189.3C151.3 189.15 151.5 188.89 151.5 188.5C151.5 188.13 151.32 187.86 150.96 187.67C150.6 187.48 150.15 187.33 149.6 187.2C149.05 187.07 148.46 186.94 147.83 186.79C147.2 186.64 146.61 186.43 146.06 186.13C145.51 185.84 145.05 185.43 144.7 184.9C144.34 184.37 144.16 183.66 144.16 182.77C144.16 181.94 144.33 181.22 144.67 180.62C145.01 180.02 145.45 179.53 146.01 179.14C146.56 178.75 147.2 178.47 147.91 178.28C148.62 178.1 149.35 178 150.09 178C151.02 178 151.96 178.14 152.91 178.41C153.86 178.68 154.66 179.16 155.32 179.86L152.62 182.53ZM158.14 178.37L162.5 179.74V192.48H158.14V178.37ZM157.79 173.93C157.79 173.23 158.04 172.64 158.53 172.14C159.03 171.64 159.62 171.4 160.31 171.4C161.01 171.4 161.6 171.65 162.1 172.14C162.59 172.63 162.84 173.23 162.84 173.93C162.84 174.63 162.59 175.22 162.1 175.71C161.6 176.2 161.01 176.45 160.31 176.45C159.61 176.45 159.02 176.2 158.53 175.71C158.04 175.23 157.79 174.63 157.79 173.93ZM165.63 178.37H169.81V180.29H169.87C170.01 180.02 170.2 179.75 170.45 179.48C170.7 179.21 171 178.96 171.35 178.75C171.7 178.53 172.1 178.36 172.54 178.23C172.99 178.09 173.47 178.03 173.99 178.03C175.1 178.03 175.99 178.2 176.66 178.54C177.34 178.88 177.87 179.35 178.24 179.95C178.62 180.55 178.88 181.25 179.01 182.07C179.15 182.88 179.21 183.77 179.21 184.71V192.49H174.85V185.58C174.85 185.17 174.84 184.75 174.81 184.31C174.78 183.88 174.7 183.47 174.55 183.11C174.41 182.74 174.18 182.44 173.88 182.21C173.58 181.98 173.15 181.86 172.59 181.86C172.03 181.86 171.57 181.96 171.22 182.16C170.87 182.36 170.61 182.64 170.42 182.97C170.24 183.31 170.11 183.69 170.06 184.12C170 184.55 169.97 184.99 169.97 185.46V192.49H165.61V178.37H165.63ZM195.66 190.05C194.96 190.94 194.08 191.63 193.02 192.11C191.96 192.59 190.85 192.84 189.71 192.84C188.62 192.84 187.6 192.67 186.65 192.32C185.69 191.97 184.86 191.47 184.15 190.82C183.44 190.17 182.89 189.39 182.48 188.48C182.07 187.57 181.87 186.55 181.87 185.43C181.87 184.31 182.07 183.29 182.48 182.38C182.89 181.47 183.44 180.69 184.15 180.04C184.86 179.39 185.69 178.89 186.65 178.54C187.61 178.19 188.63 178.02 189.71 178.02C190.72 178.02 191.63 178.2 192.45 178.54C193.27 178.89 193.97 179.39 194.54 180.04C195.11 180.69 195.55 181.47 195.86 182.38C196.17 183.29 196.32 184.31 196.32 185.43V186.79H186.21C186.38 187.62 186.76 188.29 187.34 188.78C187.92 189.27 188.64 189.52 189.49 189.52C190.2 189.52 190.81 189.36 191.3 189.04C191.8 188.72 192.23 188.31 192.59 187.81L195.66 190.05ZM191.97 183.84C191.99 183.1 191.75 182.47 191.24 181.95C190.74 181.43 190.09 181.16 189.29 181.16C188.81 181.16 188.38 181.24 188.01 181.39C187.64 181.55 187.33 181.74 187.06 181.99C186.8 182.23 186.6 182.51 186.45 182.83C186.31 183.15 186.22 183.48 186.2 183.83H191.97V183.84ZM206.95 182.53C206.31 181.74 205.47 181.34 204.42 181.34C204.05 181.34 203.7 181.43 203.35 181.6C203 181.78 202.83 182.08 202.83 182.5C202.83 182.85 203.01 183.11 203.37 183.27C203.73 183.43 204.18 183.58 204.74 183.7C205.29 183.82 205.88 183.96 206.51 184.11C207.14 184.26 207.73 184.49 208.28 184.79C208.83 185.1 209.29 185.52 209.65 186.05C210.01 186.59 210.19 187.3 210.19 188.19C210.19 189.1 209.99 189.85 209.6 190.44C209.2 191.03 208.69 191.5 208.08 191.86C207.46 192.22 206.76 192.47 205.99 192.61C205.22 192.75 204.45 192.83 203.7 192.83C202.72 192.83 201.72 192.69 200.71 192.41C199.7 192.13 198.85 191.63 198.15 190.91L200.8 187.98C201.21 188.48 201.66 188.86 202.15 189.12C202.64 189.38 203.22 189.52 203.88 189.52C204.38 189.52 204.84 189.45 205.24 189.3C205.65 189.15 205.85 188.89 205.85 188.5C205.85 188.13 205.67 187.86 205.31 187.67C204.95 187.48 204.5 187.33 203.94 187.2C203.39 187.07 202.8 186.94 202.17 186.79C201.54 186.64 200.95 186.43 200.4 186.13C199.85 185.84 199.39 185.43 199.03 184.9C198.67 184.37 198.5 183.66 198.5 182.77C198.5 181.94 198.67 181.22 199.01 180.62C199.35 180.02 199.79 179.53 200.35 179.14C200.9 178.75 201.53 178.47 202.25 178.28C202.97 178.1 203.69 178 204.43 178C205.36 178 206.3 178.14 207.25 178.41C208.2 178.68 209 179.16 209.66 179.86L206.95 182.53ZM220.39 182.53C219.75 181.74 218.91 181.34 217.86 181.34C217.49 181.34 217.13 181.43 216.79 181.6C216.44 181.78 216.27 182.08 216.27 182.5C216.27 182.85 216.45 183.11 216.81 183.27C217.16 183.43 217.62 183.58 218.17 183.7C218.72 183.82 219.31 183.96 219.94 184.11C220.57 184.26 221.16 184.49 221.71 184.79C222.26 185.1 222.72 185.52 223.07 186.05C223.43 186.59 223.61 187.3 223.61 188.19C223.61 189.1 223.41 189.85 223.01 190.44C222.61 191.03 222.11 191.5 221.49 191.86C220.87 192.22 220.17 192.47 219.4 192.61C218.63 192.75 217.86 192.83 217.11 192.83C216.12 192.83 215.13 192.69 214.12 192.41C213.12 192.13 212.26 191.63 211.57 190.91L214.21 187.98C214.62 188.48 215.07 188.86 215.56 189.12C216.05 189.38 216.63 189.52 217.29 189.52C217.79 189.52 218.25 189.45 218.66 189.3C219.07 189.15 219.27 188.89 219.27 188.5C219.27 188.13 219.09 187.86 218.73 187.67C218.37 187.48 217.92 187.33 217.37 187.2C216.82 187.07 216.23 186.94 215.6 186.79C214.97 186.64 214.38 186.43 213.83 186.13C213.28 185.84 212.82 185.43 212.47 184.9C212.11 184.37 211.93 183.66 211.93 182.77C211.93 181.94 212.1 181.22 212.44 180.62C212.78 180.02 213.23 179.53 213.78 179.14C214.33 178.75 214.97 178.47 215.68 178.28C216.4 178.1 217.12 178 217.86 178C218.79 178 219.73 178.14 220.68 178.41C221.63 178.68 222.43 179.16 223.09 179.86L220.39 182.53ZM235 171.93H239.53V179.59H248.33V171.93H252.86V192.49H248.33V183.6H239.53V192.49H235V171.93ZM270.07 192.49H265.89V190.57H265.83C265.67 190.84 265.47 191.11 265.23 191.38C264.99 191.65 264.69 191.9 264.35 192.11C264 192.33 263.6 192.5 263.16 192.63C262.71 192.77 262.23 192.83 261.71 192.83C260.61 192.83 259.71 192.66 259.03 192.32C258.34 191.98 257.81 191.51 257.43 190.91C257.05 190.31 256.8 189.61 256.68 188.79C256.55 187.98 256.49 187.09 256.49 186.15V178.37H260.85V185.28C260.85 185.69 260.87 186.11 260.89 186.55C260.92 186.98 261.01 187.39 261.15 187.75C261.29 188.12 261.52 188.42 261.82 188.65C262.12 188.88 262.55 189 263.11 189C263.67 189 264.13 188.9 264.47 188.7C264.82 188.5 265.09 188.22 265.27 187.89C265.45 187.55 265.57 187.17 265.63 186.74C265.69 186.31 265.72 185.87 265.72 185.4V178.37H270.08V192.49H270.07ZM273.56 170.54L277.92 171.91V179.89H277.98C278.48 179.21 279.12 178.73 279.91 178.45C280.7 178.17 281.54 178.03 282.45 178.03C283.45 178.03 284.36 178.24 285.15 178.65C285.94 179.06 286.61 179.62 287.17 180.32C287.72 181.02 288.15 181.82 288.45 182.72C288.75 183.62 288.9 184.56 288.9 185.55C288.9 186.62 288.74 187.59 288.4 188.48C288.07 189.37 287.6 190.14 286.99 190.79C286.38 191.44 285.65 191.94 284.8 192.3C283.95 192.66 283 192.83 281.95 192.83C281.45 192.83 280.97 192.76 280.53 192.63C280.08 192.49 279.67 192.32 279.3 192.11C278.92 191.9 278.59 191.66 278.31 191.4C278.03 191.14 277.8 190.88 277.63 190.63H277.57V192.49H273.56V170.54ZM277.57 185.43C277.57 186.49 277.87 187.36 278.48 188.01C279.09 188.67 279.95 189 281.05 189C282.15 189 283.01 188.67 283.62 188.01C284.23 187.35 284.53 186.49 284.53 185.43C284.53 184.36 284.23 183.5 283.62 182.84C283.01 182.18 282.15 181.85 281.05 181.85C279.95 181.85 279.09 182.18 278.48 182.84C277.87 183.5 277.57 184.37 277.57 185.43Z" fill="#2D2C2B"/>
<path fill-rule="evenodd" clip-rule="evenodd" d="M79.96 42.96C72.22 38.65 63.3 36.1899 53.82 36.1899C24.1 36.1899 0.0200195 60.28 0.0200195 89.99C0.0200195 119.7 24.11 143.79 53.82 143.79C63.31 143.79 72.23 141.33 79.96 137.02V108.92C74.1 117.01 64.57 122.27 53.82 122.27C35.99 122.27 21.54 107.82 21.54 89.99C21.54 72.16 35.99 57.71 53.82 57.71C64.57 57.71 74.1 62.9799 79.96 71.0599V42.96Z" fill="#0E5359"/>
<path fill-rule="evenodd" clip-rule="evenodd" d="M108.6 46.22V5.46002L86.0601 0.0100098V133.05C90.1401 129.98 93.7701 126.35 96.8401 122.27C106.66 135.34 122.28 143.79 139.88 143.79C155.45 143.79 169.47 137.18 179.29 126.61C183.79 121.62 187.72 115.93 191.52 108.95C195.7 101.28 199.74 92.03 204.23 80.43C208.3 67.27 220.57 57.7 235.07 57.7C252.9 57.7 267.35 72.15 267.35 89.98V143.78H288.87V89.98C288.87 60.27 264.78 36.18 235.07 36.18C222.86 36.18 211.59 40.25 202.56 47.11V5.45001L181.04 0C181.04 18.5 181.08 36.97 181.11 55.44C171.24 43.67 156.43 36.18 139.87 36.18C128.22 36.19 117.42 39.91 108.6 46.22ZM139.89 57.71C157.71 57.71 172.17 72.16 172.17 89.99C172.17 107.82 157.72 122.27 139.89 122.27C122.06 122.27 107.61 107.82 107.61 89.99C107.61 72.16 122.07 57.71 139.89 57.71Z" fill="#0E5359"/>
</svg>
